<svg width="96" height="85" viewBox="0 0 96 85" fill="none" xmlns="http://www.w3.org/2000/svg">
<path d="M91.7812 73.8403H53.6211C53.2219 73.3139 52.7494 72.8452 52.2188 72.4492V66.884C68.8967 64.8176 81.8438 50.6671 81.8438 33.5722C81.8438 21.3553 75.1421 10.0901 64.3539 4.173C63.6743 3.80063 62.8187 4.04466 62.4429 4.71889C62.0672 5.39313 62.3136 6.24183 62.9932 6.61456C72.4736 11.8146 78.5089 21.5186 78.9956 32.1774H60.2812V21.5757H60.7978C61.6791 21.5757 62.4405 21.0439 62.7373 20.2209C63.0343 19.3977 62.7861 18.5075 62.1047 17.9527L49.7164 7.86947C48.7221 7.06039 47.2783 7.06021 46.2836 7.86966L33.8953 17.9529C33.2141 18.5075 32.9659 19.3979 33.2629 20.2209C33.5597 21.0439 34.3211 21.5757 35.2024 21.5757H35.7189V32.1774H17.0019C17.7399 15.8491 31.3607 2.79012 48 2.79012C51.3428 2.79012 54.6307 3.31388 57.7727 4.34728C58.5096 4.58963 59.3057 4.19346 59.55 3.46212C59.7943 2.73079 59.3949 1.94142 58.6577 1.69907C55.2298 0.571564 51.6441 0 48 0C29.3385 0 14.1562 15.0604 14.1562 33.5722C14.1562 46.7692 21.9988 58.794 34.1362 64.207C34.3234 64.2903 34.5193 64.3299 34.7121 64.3299C35.2485 64.3299 35.7611 64.0236 35.9955 63.5065C36.3139 62.804 35.9979 61.9782 35.2894 61.6622C33.4181 60.8276 31.6612 59.8181 30.0281 58.6645C30.7054 56.5124 31.2951 54.2856 31.7884 52.022C36.5586 51.1146 41.5517 50.609 46.5938 50.5294V64.3199C44.6072 64.2315 42.6367 63.96 40.719 63.5026C39.9641 63.323 39.2046 63.7839 39.0231 64.5329C38.8414 65.2819 39.3066 66.0351 40.0616 66.2152C41.2847 66.5068 42.5274 66.7282 43.7812 66.8829V72.449C43.2506 72.845 42.7781 73.3137 42.3789 73.8401H4.21875C1.89262 73.8403 0 75.7177 0 78.0252C0 80.3326 1.89262 82.2101 4.21875 82.2101H42.375C42.3763 82.2101 42.3774 82.2099 42.3787 82.2099C43.6628 83.903 45.7046 85 48 85C50.2954 85 52.3371 83.903 53.6211 82.2101H59.9203C60.6971 82.2101 61.3266 81.5857 61.3266 80.8151C61.3266 80.0445 60.6971 79.4201 59.9203 79.4201H54.8897C54.9823 78.9693 55.0312 78.5028 55.0312 78.0252C55.0312 77.5475 54.9823 77.081 54.8897 76.6302H91.7812C92.5567 76.6302 93.1875 77.2559 93.1875 78.0252C93.1875 78.7944 92.5567 79.4201 91.7812 79.4201H65.9578C65.181 79.4201 64.5516 80.0445 64.5516 80.8151C64.5516 81.5857 65.181 82.2101 65.9578 82.2101H91.7812C94.1074 82.2101 96 80.3326 96 78.0252C96 75.7177 94.1074 73.8403 91.7812 73.8403ZM50.3438 32.1772H45.6562V26.4114H50.3438V32.1772ZM62.2806 34.9672C62.3537 39.7767 62.8048 44.5095 63.6266 49.0803C59.0211 48.2679 54.234 47.8135 49.4062 47.7395V34.9672H62.2806ZM73.2838 51.3999C71.1208 50.7307 68.8864 50.1474 66.5947 49.6571C65.6756 44.9185 65.1722 39.9878 65.0934 34.9672H78.9979C78.7221 41.0723 76.6464 46.7206 73.2838 51.3999ZM64.2116 52.022C64.7044 54.2826 65.2929 56.5062 65.9689 58.6552C61.2523 61.9897 55.5594 64.0478 49.4064 64.3214V50.5294C54.4483 50.609 59.4414 51.1146 64.2116 52.022ZM68.34 56.8006C67.9361 55.4451 67.5677 54.0615 67.2375 52.6593C68.6558 52.9868 70.0483 53.3525 71.4135 53.7522C70.4616 54.8377 69.4344 55.8565 68.34 56.8006ZM48 10.0811L58.6943 18.7856H37.3058L48 10.0811ZM38.5312 21.5755H57.4688V32.1772H53.1562V25.7604C53.1562 24.581 52.1889 23.6214 51 23.6214H45C43.8111 23.6214 42.8438 24.581 42.8438 25.7604V32.1772H38.5312V21.5755ZM22.7158 51.3999C19.3178 46.6533 17.2793 40.9691 17.0044 34.9672H30.9066C30.8278 39.9876 30.3244 44.9183 29.4053 49.6571C27.1134 50.1472 24.8788 50.7307 22.7158 51.3999ZM27.6561 56.8137C26.5558 55.8636 25.527 54.8414 24.5773 53.7548C25.9455 53.3541 27.3411 52.9875 28.7625 52.6593C28.4314 54.066 28.0614 55.4538 27.6561 56.8137ZM32.3734 49.0803C33.1952 44.5091 33.6463 39.7765 33.7194 34.9672H46.5938V47.7395C41.766 47.8135 36.9789 48.2681 32.3734 49.0803ZM46.5938 67.1122C47.0619 67.1314 47.5307 67.1444 48 67.1444C48.4712 67.1444 48.9396 67.1323 49.4062 67.1134V71.1908C48.9518 71.0989 48.4815 71.0503 48 71.0503C47.5185 71.0503 47.0482 71.0989 46.5938 71.1908V67.1122ZM4.21875 79.4201C3.44325 79.4201 2.8125 78.7944 2.8125 78.0252C2.8125 77.2559 3.44325 76.6302 4.21875 76.6302H41.1103C41.0177 77.081 40.9688 77.5475 40.9688 78.0252C40.9688 78.5028 41.0177 78.9693 41.1103 79.4201H4.21875ZM48 82.2101C45.6739 82.2101 43.7812 80.3326 43.7812 78.0252C43.7812 75.7177 45.6739 73.8403 48 73.8403C50.3261 73.8403 52.2188 75.7177 52.2188 78.0252C52.2188 80.3326 50.3261 82.2101 48 82.2101Z" fill="#C0D9F9"/>
</svg>
