<svg width="83" height="80" viewBox="0 0 83 80" fill="none" xmlns="http://www.w3.org/2000/svg">
<path fill-rule="evenodd" clip-rule="evenodd" d="M30.9259 14.2579L24.6834 10.9914C23.794 10.526 22.7316 10.526 21.8421 10.9914C19.2525 12.3466 11.1954 16.5629 8.43891 18.0054C7.4316 18.5317 6.80159 19.5723 6.80159 20.7062V46.3732C6.80159 47.0949 7.38871 47.6804 8.11205 47.6804C8.83457 47.6804 9.42265 47.0948 9.42265 46.3732C9.42265 46.3732 9.42265 28.6413 9.42265 20.7062C9.42265 20.545 9.51269 20.3958 9.6559 20.3209L23.06 13.3069C23.1866 13.2408 23.3387 13.2408 23.4653 13.3069L29.7078 16.5735C30.3482 16.9089 31.1414 16.6623 31.4769 16.0227C31.8135 15.384 31.5663 14.5934 30.9259 14.2579Z" fill="#C0D9F9"/>
<path fill-rule="evenodd" clip-rule="evenodd" d="M24.5732 27.593V23.6589C24.5732 21.9743 23.2041 20.6087 21.5154 20.6087C20.4836 20.6087 19.1827 20.6087 18.1509 20.6087C16.462 20.6087 15.0929 21.9744 15.0929 23.6589V27.593C15.0929 29.2777 16.462 30.6432 18.1509 30.6432H21.5154C23.2043 30.6432 24.5732 29.2777 24.5732 27.593ZM21.9522 23.6589V27.593C21.9522 27.8336 21.7565 28.0288 21.5153 28.0288H18.1507C17.9095 28.0288 17.7138 27.8336 17.7138 27.593V23.6589C17.7138 23.4175 17.9095 23.2231 18.1507 23.2231H21.5153C21.7565 23.2232 21.9522 23.4175 21.9522 23.6589Z" fill="#C0D9F9"/>
<path fill-rule="evenodd" clip-rule="evenodd" d="M24.5732 41.3473V37.4132C24.5732 35.7285 23.2041 34.363 21.5154 34.363C20.4836 34.363 19.1827 34.363 18.1509 34.363C16.462 34.363 15.0929 35.7287 15.0929 37.4132V41.3473C15.0929 43.0319 16.462 44.3975 18.1509 44.3975H21.5154C23.2043 44.3976 24.5732 43.0319 24.5732 41.3473ZM21.9522 37.4133V41.3474C21.9522 41.588 21.7565 41.7832 21.5153 41.7832H18.1507C17.9095 41.7832 17.7138 41.588 17.7138 41.3474V37.4133C17.7138 37.1727 17.9095 36.9775 18.1507 36.9775H21.5153C21.7565 36.9775 21.9522 37.1727 21.9522 37.4133Z" fill="#C0D9F9"/>
<path fill-rule="evenodd" clip-rule="evenodd" d="M69.6179 41.8144V3.05024C69.6179 1.36558 68.2488 0 66.56 0H32.0642C30.3753 0 29.0064 1.36572 29.0064 3.05024V41.1442C29.0064 41.8659 29.5935 42.4515 30.3168 42.4515C31.0403 42.4515 31.6273 41.8658 31.6273 41.1442V3.05024C31.6273 2.80977 31.823 2.61442 32.0642 2.61442H66.5599C66.801 2.61442 66.9968 2.80964 66.9968 3.05024V41.8145C66.9968 42.5362 67.5839 43.1217 68.3073 43.1217C69.0308 43.1217 69.6179 42.5361 69.6179 41.8144Z" fill="#C0D9F9"/>
<path fill-rule="evenodd" clip-rule="evenodd" d="M36.6249 12.4477V17.0529C36.6249 18.7376 37.994 20.1031 39.6827 20.1031H45.0778C46.7666 20.1031 48.1356 18.7374 48.1356 17.0529V10.9218C48.1356 9.23713 46.7665 7.87155 45.0778 7.87155C43.5174 7.87155 42.3501 7.87155 40.7897 7.87155C40.0662 7.87155 39.4792 8.45721 39.4792 9.17876C39.4792 9.90044 40.0663 10.486 40.7897 10.486H45.0778C45.3189 10.486 45.5147 10.6812 45.5147 10.9218V17.0529C45.5147 17.2934 45.319 17.4887 45.0778 17.4887C43.5174 17.4887 41.2432 17.4887 39.6827 17.4887C39.4415 17.4887 39.2458 17.2935 39.2458 17.0529C39.2458 17.0521 39.2458 12.4477 39.2458 12.4477C39.2458 11.726 38.6587 11.1405 37.9354 11.1405C37.212 11.1405 36.6249 11.7262 36.6249 12.4477Z" fill="#C0D9F9"/>
<path fill-rule="evenodd" clip-rule="evenodd" d="M48.1358 31.5506V25.4195C48.1358 23.7348 46.7666 22.3692 45.0779 22.3692C43.5175 22.3692 41.2433 22.3692 39.6829 22.3692C37.994 22.3692 36.625 23.7349 36.625 25.4195V31.5506C36.625 33.2352 37.9942 34.6008 39.6829 34.6008H45.0779C46.7666 34.6008 48.1358 33.2352 48.1358 31.5506ZM45.5147 25.4195V31.5506C45.5147 31.7912 45.319 31.9864 45.0778 31.9864C43.5174 31.9864 41.2432 31.9864 39.6827 31.9864C39.4415 31.9864 39.2458 31.7912 39.2458 31.5506V25.4195C39.2458 25.179 39.4415 24.9836 39.6827 24.9836H45.0778C45.319 24.9836 45.5147 25.1789 45.5147 25.4195Z" fill="#C0D9F9"/>
<path fill-rule="evenodd" clip-rule="evenodd" d="M61.9993 17.0529V10.9218C61.9993 9.23713 60.6302 7.87155 58.9415 7.87155C57.3811 7.87155 55.1069 7.87155 53.5464 7.87155C51.8576 7.87155 50.4886 9.23727 50.4886 10.9218V17.0529C50.4886 18.7376 51.8577 20.1031 53.5464 20.1031H58.9415C60.6302 20.1031 61.9993 18.7376 61.9993 17.0529ZM59.3783 10.9218V17.0529C59.3783 17.2934 59.1834 17.4887 58.9414 17.4887C57.3809 17.4887 55.1067 17.4887 53.5463 17.4887C53.3051 17.4887 53.1094 17.2935 53.1094 17.0529C53.1094 17.0521 53.1094 10.9218 53.1094 10.9218C53.1094 10.6813 53.3051 10.486 53.5463 10.486H58.9414C59.1834 10.486 59.3783 10.6812 59.3783 10.9218Z" fill="#C0D9F9"/>
<path fill-rule="evenodd" clip-rule="evenodd" d="M61.9993 31.5506V25.4195C61.9993 23.7348 60.6302 22.3692 58.9415 22.3692C57.3811 22.3692 55.1069 22.3692 53.5464 22.3692C51.8576 22.3692 50.4886 23.7349 50.4886 25.4195V31.5506C50.4886 33.2352 51.8577 34.6008 53.5464 34.6008H58.9415C60.6302 34.6008 61.9993 33.2352 61.9993 31.5506ZM59.3783 25.4195V31.5506C59.3783 31.7912 59.1834 31.9864 58.9414 31.9864C57.3809 31.9864 55.1067 31.9864 53.5463 31.9864C53.3051 31.9864 53.1094 31.7912 53.1094 31.5506V25.4195C53.1094 25.179 53.3051 24.9836 53.5463 24.9836H58.9414C59.1834 24.9836 59.3783 25.1789 59.3783 25.4195Z" fill="#C0D9F9"/>
<path fill-rule="evenodd" clip-rule="evenodd" d="M80.4324 78.6927V47.4445C80.4324 46.2104 79.6871 45.0984 78.5444 44.6259C75.4542 43.35 66.6325 39.708 64.1321 38.6752C63.3824 38.3666 62.542 38.3666 61.7924 38.6752C59.2919 39.7079 50.4702 43.3499 47.3801 44.6259C46.2372 45.0983 45.4921 46.2104 45.4921 47.4445V78.6928C45.4921 79.4145 46.0792 80 46.8025 80C47.5251 80 48.113 79.4143 48.113 78.6928C48.113 78.6928 48.113 53.2409 48.113 47.4445C48.113 47.2684 48.2187 47.1098 48.3822 47.0419L62.7953 41.0911C62.9019 41.0475 63.0225 41.0475 63.129 41.0911L77.5422 47.0419C77.7047 47.1098 77.8113 47.2684 77.8113 47.4445V78.6928C77.8113 79.4145 78.3984 80 79.1218 80C79.8451 80 80.4324 79.4143 80.4324 78.6927Z" fill="#C0D9F9"/>
<path fill-rule="evenodd" clip-rule="evenodd" d="M61.691 52.2552C61.691 50.5706 60.3219 49.205 58.6331 49.205H55.3035C53.6147 49.205 52.2457 50.5707 52.2457 52.2552V56.1509C52.2457 57.8356 53.6148 59.2011 55.3035 59.2011H58.6331C60.322 59.2011 61.691 57.8354 61.691 56.1509C61.691 54.976 61.691 53.4309 61.691 52.2552ZM59.0699 52.2552V56.1509C59.0699 56.3923 58.8742 56.5867 58.633 56.5867H55.3034C55.0622 56.5867 54.8665 56.3923 54.8665 56.1509C54.8665 54.976 54.8665 53.4309 54.8665 52.2552C54.8665 52.0148 55.0622 51.8194 55.3034 51.8194H58.633C58.8742 51.8194 59.0699 52.0146 59.0699 52.2552Z" fill="#C0D9F9"/>
<path fill-rule="evenodd" clip-rule="evenodd" d="M61.691 66.101C61.691 64.4163 60.3219 63.0507 58.6331 63.0507C57.6109 63.0507 56.3258 63.0507 55.3035 63.0507C53.6147 63.0507 52.2457 64.4164 52.2457 66.101V69.9966C52.2457 71.6813 53.6148 73.0469 55.3035 73.0469H58.6331C60.322 73.0469 61.691 71.6811 61.691 69.9966C61.691 68.8219 61.691 67.2767 61.691 66.101ZM59.0699 66.101V69.9966C59.0699 70.238 58.8742 70.4324 58.633 70.4324H55.3034C55.0622 70.4324 54.8665 70.238 54.8665 69.9966C54.8665 68.8219 54.8665 67.2767 54.8665 66.101C54.8665 65.8605 55.0622 65.6651 55.3034 65.6651H58.633C58.8742 65.6653 59.0699 65.8605 59.0699 66.101Z" fill="#C0D9F9"/>
<path fill-rule="evenodd" clip-rule="evenodd" d="M73.6788 52.2552C73.6788 50.5706 72.3096 49.205 70.6209 49.205C69.5987 49.205 68.3136 49.205 67.2913 49.205C65.6025 49.205 64.2335 50.5707 64.2335 52.2552V56.1509C64.2335 57.8356 65.6026 59.2011 67.2913 59.2011H70.6209C72.3098 59.2011 73.6788 57.8354 73.6788 56.1509C73.6788 54.976 73.6788 53.4309 73.6788 52.2552ZM71.0577 52.2552V56.1509C71.0577 56.3923 70.862 56.5867 70.6208 56.5867H67.2912C67.05 56.5867 66.8543 56.3923 66.8543 56.1509V52.2552C66.8543 52.0148 67.05 51.8194 67.2912 51.8194H70.6208C70.862 51.8194 71.0577 52.0146 71.0577 52.2552Z" fill="#C0D9F9"/>
<path fill-rule="evenodd" clip-rule="evenodd" d="M73.6788 66.101C73.6788 64.4163 72.3096 63.0507 70.6209 63.0507C69.5987 63.0507 68.3136 63.0507 67.2913 63.0507C65.6025 63.0507 64.2335 64.4164 64.2335 66.101V69.9966C64.2335 71.6813 65.6026 73.0469 67.2913 73.0469H70.6209C72.3098 73.0469 73.6788 71.6811 73.6788 69.9966C73.6788 68.8219 73.6788 67.2767 73.6788 66.101ZM71.0577 66.101V69.9966C71.0577 70.238 70.862 70.4324 70.6208 70.4324H67.2912C67.05 70.4324 66.8543 70.238 66.8543 69.9966C66.8543 68.8219 66.8543 67.2767 66.8543 66.101C66.8543 65.8605 67.05 65.6651 67.2912 65.6651H70.6208C70.862 65.6653 71.0577 65.8605 71.0577 66.101Z" fill="#C0D9F9"/>
<path fill-rule="evenodd" clip-rule="evenodd" d="M1.43106 57.432C0.534627 59.0748 0 61.0872 0 63.2617C0 69.0023 3.74458 73.5099 8.11219 73.5099C12.4788 73.5099 16.2236 69.0025 16.2236 63.2617C16.2236 61.0881 15.6897 59.0766 14.7969 57.4321C14.7961 57.4313 14.7951 57.4304 14.7951 57.4295C14.2403 56.4134 14.0254 55.1479 14.1826 53.9148C14.1826 53.913 14.1826 53.9112 14.1826 53.9096C14.2307 53.5243 14.2551 53.1295 14.2551 52.7269C14.2551 48.4137 11.3929 45.0663 8.11219 45.0663C4.83069 45.0663 1.96843 48.4137 1.96843 52.7269C1.96843 53.1313 1.99378 53.5279 2.04449 53.9148C2.20087 55.1487 1.9868 56.415 1.43106 57.432ZM3.73321 58.6826C4.53782 57.2081 4.87249 55.3752 4.64444 53.5851C4.64444 53.5826 4.64444 53.5808 4.64362 53.579C4.60689 53.3019 4.58949 53.0169 4.58949 52.7266C4.58949 51.0133 5.19236 49.4812 6.16911 48.5399C6.71607 48.0126 7.38172 47.6806 8.11219 47.6806C8.8417 47.6806 9.50748 48.0126 10.0544 48.5399C11.0312 49.4812 11.6341 51.0133 11.6341 52.7266C11.6341 53.0203 11.6157 53.3089 11.5816 53.5903C11.3544 55.3744 11.6882 57.2071 12.4938 58.68C13.1935 59.9699 13.6025 61.5534 13.6025 63.2615C13.6025 65.8316 12.6825 68.1237 11.2173 69.5365C10.3436 70.3775 9.27601 70.8952 8.11219 70.8952C6.94755 70.8952 5.87994 70.3775 5.00707 69.5365C3.54106 68.1237 2.62106 65.8316 2.62106 63.2615C2.62106 61.5542 3.02905 59.9715 3.73321 58.6817V58.6826Z" fill="#C0D9F9"/>
<path fill-rule="evenodd" clip-rule="evenodd" d="M23.6367 57.432C22.7394 59.0748 22.2056 61.0872 22.2056 63.2615C22.2056 69.0022 25.9502 73.5098 30.317 73.5098C34.6846 73.5098 38.4291 69.0023 38.4291 63.2615C38.4291 61.088 37.8953 59.0765 37.0015 57.432C37.0007 57.4312 37.0007 57.4302 36.9997 57.4294C36.445 56.4132 36.2309 55.1477 36.3873 53.9146C36.3873 53.9128 36.3873 53.9111 36.3881 53.9094C36.4352 53.5242 36.4598 53.1294 36.4598 52.7268C36.4598 48.4136 33.5975 45.0661 30.3168 45.0661C27.0362 45.0661 24.1739 48.4136 24.1739 52.7268C24.1739 53.1311 24.1983 53.5277 24.2499 53.9146C24.4065 55.1487 24.1914 56.415 23.6367 57.432ZM25.938 58.6826C26.7436 57.2081 27.0773 55.3752 26.8502 53.5851C26.8494 53.5826 26.8494 53.5808 26.8494 53.579C26.8126 53.3019 26.7952 53.0169 26.7952 52.7266C26.7952 51.0133 27.3971 49.4812 28.3748 48.5399C28.9218 48.0126 29.5876 47.6806 30.3171 47.6806C31.0466 47.6806 31.7124 48.0126 32.2602 48.5399C33.2369 49.4812 33.839 51.0133 33.839 52.7266C33.839 53.0203 33.8214 53.3089 33.7865 53.5903C33.5602 55.3744 33.8939 57.2071 34.6987 58.68C35.3994 59.9699 35.8082 61.5534 35.8082 63.2615C35.8082 65.8316 34.8882 68.1237 33.4222 69.5365C32.5493 70.3775 31.4817 70.8952 30.3171 70.8952C29.1525 70.8952 28.0848 70.3775 27.212 69.5365C25.7468 68.1237 24.8268 65.8316 24.8268 63.2615C24.8268 61.5542 25.2348 59.9715 25.9381 58.6816L25.938 58.6826Z" fill="#C0D9F9"/>
<path fill-rule="evenodd" clip-rule="evenodd" d="M6.80159 58.1023V78.6928C6.80159 79.4145 7.38871 80 8.11205 80C8.83457 80 9.42251 79.4143 9.42251 78.6928V58.1023C9.42251 57.3806 8.83457 56.7951 8.11205 56.7951C7.38871 56.7949 6.80159 57.3806 6.80159 58.1023Z" fill="#C0D9F9"/>
<path fill-rule="evenodd" clip-rule="evenodd" d="M29.0064 58.1023V78.6928C29.0064 79.4145 29.5935 80 30.3168 80C31.0402 80 31.6273 79.4143 31.6273 78.6928V58.1023C31.6273 57.3806 31.0402 56.7951 30.3168 56.7951C29.5935 56.7949 29.0064 57.3806 29.0064 58.1023Z" fill="#C0D9F9"/>
<path fill-rule="evenodd" clip-rule="evenodd" d="M1.31046 80H81.6895C82.413 80 83 79.4143 83 78.6928C83 77.9712 82.4129 77.3856 81.6895 77.3856H1.31046C0.58698 77.3856 0 77.9712 0 78.6928C0 79.4143 0.587117 80 1.31046 80Z" fill="#C0D9F9"/>
</svg>
