<svg width="83" height="81" viewBox="0 0 83 81" fill="none" xmlns="http://www.w3.org/2000/svg">
<path d="M37.8526 42.9938H45.1475C45.8191 42.9938 46.3633 42.4627 46.3633 41.8072C46.3633 41.1518 45.8191 40.6207 45.1475 40.6207H37.8526C37.1811 40.6207 36.6367 41.1518 36.6367 41.8072C36.6367 42.4627 37.1811 42.9938 37.8526 42.9938ZM21.2527 13.4969C21.2527 9.38642 17.8261 6.0423 13.6141 6.0423C9.40221 6.0423 5.97554 9.38642 5.97554 13.4969C5.97554 17.6074 9.40221 20.9515 13.6141 20.9515C17.8261 20.9515 21.2527 17.6074 21.2527 13.4969ZM8.40734 13.4969C8.40734 10.6949 10.7432 8.41537 13.6143 8.41537C16.4854 8.41537 18.8212 10.6949 18.8212 13.4969C18.8212 16.2988 16.4854 18.5784 13.6143 18.5784C10.7432 18.5784 8.40734 16.2987 8.40734 13.4969ZM32.9893 42.9938C33.6598 42.9938 34.2051 42.4616 34.2051 41.8072C34.2051 41.1531 33.6598 40.6207 32.9893 40.6207C32.3188 40.6207 31.7735 41.1531 31.7735 41.8072C31.7735 42.4616 32.3188 42.9938 32.9893 42.9938ZM69.3859 54.4638C65.174 54.4638 61.7473 57.8079 61.7473 61.9183C61.7473 66.0288 65.174 69.3729 69.3859 69.3729C73.5978 69.3729 77.0245 66.0288 77.0245 61.9183C77.0245 57.8079 73.5978 54.4638 69.3859 54.4638ZM69.3859 66.9999C66.5148 66.9999 64.1789 64.7203 64.1789 61.9183C64.1789 59.1164 66.5148 56.8368 69.3859 56.8368C72.257 56.8368 74.5928 59.1164 74.5928 61.9183C74.5928 64.7203 72.257 66.9999 69.3859 66.9999ZM69.3859 48.4216C62.563 48.4216 56.8892 53.3685 55.92 59.7872H36.4098C35.7383 59.7872 35.194 60.3183 35.194 60.9737C35.194 61.6291 35.7383 62.1602 36.4098 62.1602H55.7827C55.8162 62.9244 55.9384 63.7157 56.149 64.5333H16.4168C8.70546 64.5333 2.43167 58.4106 2.43167 50.8849C2.43167 43.3584 8.70546 37.2351 16.4168 37.2351H25.6944V39.6082H16.4168C10.0463 39.6082 4.86331 44.6663 4.86331 50.8834C4.86331 57.1015 10.0463 62.1602 16.4168 62.1602H30.736C31.4074 62.1602 31.9518 61.6291 31.9518 60.9737C31.9518 60.3183 31.4074 59.7872 30.736 59.7872H16.4168C11.3871 59.7872 7.29495 55.793 7.29495 50.8834C7.29495 45.9748 11.3871 41.9813 16.4168 41.9813H25.6944V44.5962C25.6944 46.2832 26.684 47.748 28.126 48.4694V51.592C28.126 53.5547 29.7622 55.1516 31.7735 55.1516C33.7847 55.1516 35.4209 53.5547 35.4209 51.592V48.9467H47.5791V51.592C47.5791 53.5547 49.2154 55.1516 51.2266 55.1516C53.2377 55.1516 54.874 53.5547 54.874 51.592V48.4694C56.316 47.7478 57.3057 46.2832 57.3057 44.5962V41.9813H66.5832C75.6354 41.9813 83 34.794 83 25.9598C83 17.1247 75.6354 9.93682 66.5832 9.93682H26.7894C25.2643 4.22706 19.9359 0 13.6143 0C11.7747 0 9.9905 0.352321 8.31121 1.047C7.69309 1.30281 7.40421 1.99923 7.66634 2.60262C7.92847 3.20569 8.64224 3.48809 9.26036 3.23196C10.6378 2.66195 12.1028 2.37307 13.6143 2.37307C19.7803 2.37307 24.7968 7.2687 24.7968 13.2862C24.7968 18.5186 19.0505 25.3864 13.6136 30.1259C8.16855 25.3869 2.41886 18.5204 2.43167 13.2892C2.43815 10.6578 3.41178 8.11715 5.17342 6.13517C5.61339 5.64014 5.55892 4.89089 5.05168 4.46152C4.54444 4.03215 3.77669 4.08531 3.33656 4.58033C1.19283 6.992 0.00797156 10.0828 2.81994e-05 13.2836C-0.00807727 16.6244 1.73119 20.5071 5.16969 24.8237C7.88584 28.2338 10.9648 31.0079 12.1624 32.0422C12.5761 32.3996 13.0949 32.5784 13.6136 32.5784C14.1329 32.5784 14.6523 32.3993 15.0661 32.0411C16.262 31.0068 19.3364 28.2328 22.0509 24.8229C24.2629 22.0444 25.7715 19.446 26.5665 17.056H66.5834C71.6131 17.056 75.7052 21.0502 75.7052 25.9598C75.7052 30.8684 71.6133 34.8621 66.5834 34.8621H57.3057V25.7699C57.3057 23.3711 55.3057 21.4193 52.8477 21.4193H30.1524C27.6941 21.4193 25.6944 23.3711 25.6944 25.7699V34.8621H16.4168C7.36465 34.8621 2.81994e-05 42.0499 2.81994e-05 50.885C2.81994e-05 59.7193 7.36465 66.9065 16.4168 66.9065H56.9756C57.8382 68.8934 59.1615 71.0111 60.9413 73.2455C63.6576 76.6554 66.7365 79.4295 67.934 80.4637C68.3477 80.8212 68.8665 81 69.3854 81C69.9046 81 70.4239 80.8209 70.8379 80.4627C72.0338 79.4286 75.108 76.6546 77.8227 73.2445C81.2581 68.9289 83 65.0473 83 61.7079C83 54.3818 76.8927 48.4216 69.3859 48.4216ZM57.3057 37.2351H66.5832C72.9538 37.2351 78.1367 32.177 78.1367 25.9598C78.1367 19.7417 72.9538 14.6829 66.5832 14.6829H27.1302C27.1948 14.2075 27.2284 13.7418 27.2284 13.2863C27.2284 12.9576 27.2119 12.6326 27.1877 12.3099H66.5834C74.2947 12.3099 80.5685 18.4332 80.5685 25.9598C80.5685 33.4854 74.2949 39.6082 66.5834 39.6082H57.3057V37.2351ZM32.9893 51.5922C32.9893 52.2465 32.4439 52.7787 31.7735 52.7787C31.103 52.7787 30.5576 52.2465 30.5576 51.5922V48.9468H32.9893V51.5922ZM52.4424 51.5922C52.4424 52.2465 51.8971 52.7787 51.2266 52.7787C50.5561 52.7787 50.0108 52.2465 50.0108 51.5922V48.9468H52.4424V51.5922ZM28.126 25.7701C28.126 24.6796 29.0349 23.7925 30.1524 23.7925H52.8477C53.9651 23.7925 54.874 24.6796 54.874 25.7701V34.6676H28.126V25.7701ZM28.126 37.0407H54.874V44.5964C54.874 45.6869 53.9651 46.5739 52.8477 46.5739H30.1524C29.0349 46.5739 28.126 45.6869 28.126 44.5964V37.0407ZM69.3854 78.5477C63.9403 73.8085 58.1906 66.9421 58.2034 61.7106C58.2182 55.6916 63.2345 50.7947 69.3857 50.7947C75.5517 50.7947 80.5682 55.6903 80.5682 61.7078C80.5684 66.9405 74.8222 73.8083 69.3854 78.5477ZM50.0108 42.9938C50.6812 42.9938 51.2266 42.4616 51.2266 41.8072C51.2266 41.1531 50.6812 40.6207 50.0108 40.6207C49.3403 40.6207 48.7949 41.1531 48.7949 41.8072C48.7949 42.4616 49.3403 42.9938 50.0108 42.9938Z" fill="#C0D9F9"/>
</svg>
