<svg width="81" height="81" viewBox="0 0 81 81" fill="none" xmlns="http://www.w3.org/2000/svg">
<path d="M62.1001 29.7001C62.1001 28.8991 61.8626 28.116 61.4176 27.45C60.9725 26.784 60.34 26.2649 59.6 25.9584C58.8599 25.6518 58.0456 25.5716 57.26 25.7279C56.4744 25.8842 55.7527 26.2699 55.1863 26.8363C54.6199 27.4027 54.2342 28.1243 54.0779 28.91C53.9217 29.6956 54.0019 30.5099 54.3084 31.2499C54.6149 31.99 55.134 32.6225 55.8001 33.0675C56.4661 33.5126 57.2491 33.7501 58.0501 33.7501C59.1239 33.7489 60.1533 33.3218 60.9126 32.5625C61.6718 31.8033 62.0989 30.7738 62.1001 29.7001ZM56.7001 29.7001C56.7001 29.4331 56.7793 29.1721 56.9276 28.9501C57.076 28.728 57.2868 28.555 57.5335 28.4528C57.7802 28.3507 58.0516 28.3239 58.3135 28.376C58.5754 28.4281 58.8159 28.5567 59.0047 28.7455C59.1935 28.9343 59.3221 29.1748 59.3742 29.4367C59.4263 29.6986 59.3995 29.97 59.2974 30.2167C59.1952 30.4634 59.0221 30.6742 58.8001 30.8226C58.5781 30.9709 58.3171 31.0501 58.0501 31.0501C57.6922 31.0497 57.349 30.9073 57.096 30.6542C56.8429 30.4011 56.7005 30.058 56.7001 29.7001Z" fill="#C0D9F9"/>
<path d="M36.4501 20.2501H33.7501V24.3001H36.4501V20.2501Z" fill="#C0D9F9"/>
<path d="M41.8501 20.2501H39.1501V24.3001H41.8501V20.2501Z" fill="#C0D9F9"/>
<path d="M80.0054 28.3977L65.9822 24.5733C64.8048 22.7502 63.0358 21.3879 60.9725 20.7153C58.9091 20.0427 56.6771 20.1008 54.6515 20.8798L55.6228 23.3993C57.1983 22.7905 58.9447 22.7936 60.5181 23.4081C62.0914 24.0226 63.3776 25.204 64.1234 26.7195C64.8692 28.235 65.0206 29.9748 64.5477 31.5963C64.0747 33.2178 63.0118 34.6035 61.5683 35.4805C60.1247 36.3574 58.4051 36.6621 56.7481 36.3345C55.0911 36.0069 53.6168 35.0707 52.6156 33.7104C51.6143 32.3501 51.1587 30.6642 51.3384 28.9847C51.5182 27.3052 52.3202 25.7539 53.5867 24.6362L51.8003 22.6112C50.7948 23.4984 49.9895 24.5893 49.4377 25.8114C48.886 27.0336 48.6005 28.3591 48.6001 29.7001H45.9001V27.723C45.9001 25.025 46.9719 22.4375 48.8797 20.5297C50.7875 18.6219 53.375 17.5501 56.073 17.55H64.8001V14.85H59.4001V4.05001C59.4001 3.69197 59.2579 3.34859 59.0047 3.09541C58.7515 2.84224 58.4081 2.70001 58.0501 2.70001H43.2001C42.899 2.70001 42.6066 2.80066 42.3693 2.98596C42.132 3.17125 41.9634 3.43055 41.8904 3.72263L39.4461 13.5H32.4001V12.15H33.7501C34.1081 12.15 34.4515 12.0078 34.7047 11.7546C34.9578 11.5014 35.1001 11.1581 35.1001 10.8V5.40001C35.1001 5.04197 34.9578 4.69859 34.7047 4.44542C34.4515 4.19224 34.1081 4.05001 33.7501 4.05001H32.4001V2.70001H35.1001V0H31.0501C30.692 0 30.3486 0.142232 30.0955 0.395407C29.8423 0.648582 29.7001 0.99196 29.7001 1.35V4.05001H28.3501C27.992 4.05001 27.6486 4.19224 27.3955 4.44542C27.1423 4.69859 27 5.04197 27 5.40001V10.8C27 11.1581 27.1423 11.5014 27.3955 11.7546C27.6486 12.0078 27.992 12.15 28.3501 12.15H29.7001V13.5H28.1955C26.8048 13.5016 25.4715 14.0547 24.4881 15.0381C23.5047 16.0215 22.9516 17.3548 22.95 18.7455V25.5461L22.4487 25.7466C22.1982 25.8468 21.9834 26.0198 21.8321 26.2432C21.6809 26.4666 21.6 26.7303 21.6 27.0001V31.0501C21.6 31.4081 21.7423 31.7515 21.9954 32.0047C22.2486 32.2579 22.592 32.4001 22.95 32.4001H24.471C24.1174 33.7707 24.3169 35.2253 25.0265 36.4501H14.85V32.2291C16.0084 31.9283 17.0344 31.2519 17.7673 30.3057C18.5001 29.3594 18.8985 28.1969 18.9 27.0001V21.6001C18.9008 20.5028 18.567 19.4314 17.9433 18.5287C17.3195 17.626 16.4354 16.9348 15.4088 16.5475C14.3822 16.1601 13.262 16.0948 12.1973 16.3604C11.1327 16.626 10.1743 17.2098 9.45002 18.034C8.72569 17.2098 7.76733 16.626 6.70271 16.3604C5.63809 16.0948 4.5178 16.1601 3.49121 16.5475C2.46462 16.9348 1.58051 17.626 0.956763 18.5287C0.333013 19.4314 -0.000740983 20.5028 1.23525e-06 21.6001V27.0001C0.00153173 28.1969 0.399916 29.3594 1.13278 30.3057C1.86564 31.2519 2.89159 31.9283 4.05001 32.2291V36.4501H1.35V39.1501H5.47679L0.251439 46.4656L2.44857 48.035L8.79459 39.1501H14.244L0.0877515 76.4715L2.61226 77.4289L17.1317 39.1501H25.2575L14.8929 79.3127L17.5072 79.9877L28.0463 39.1501H34.9144L29.7112 79.4776L32.3889 79.8228L37.6371 39.1501H43.3631L48.6112 79.8228L51.289 79.4776L46.0857 39.1501H52.9538L63.4926 79.9877L66.1069 79.3127L55.7423 39.1501H63.8681L78.3879 77.4289L80.9124 76.4715L66.7561 39.1501H72.2056L78.5516 48.0346L80.7487 46.4653L75.5234 39.1501H79.6501V36.4501H64.6547C65.7952 35.3376 66.6353 33.9542 67.0965 32.4291C67.5576 30.9041 67.6249 29.287 67.2919 27.7289L72.6487 29.1898L71.5905 33.4227L74.2098 34.0775L75.254 29.9004L78.0199 30.6547L76.9905 34.7722L79.6098 35.427L80.9598 30.0269C81.0453 29.6845 80.9932 29.3222 80.8148 29.0177C80.6364 28.7131 80.3459 28.4906 80.0054 28.3977ZM29.7001 6.75002H32.4001V9.45002H29.7001V6.75002ZM48.9951 32.4001C49.4555 33.936 50.2987 35.3296 51.4456 36.4501H34.3744C35.084 35.2253 35.2835 33.7707 34.93 32.4001H48.9951ZM56.7001 5.40001V13.5H45.1093L47.2501 11.3593L48.9955 13.1047L50.9047 11.1954L45.5047 5.7954L43.7063 7.59478L44.2541 5.40001H56.7001ZM43.6614 7.77062L45.3408 9.45002L42.542 12.2491L43.6614 7.77062ZM25.65 21.6001H28.3501V23.3861L25.65 24.4661V21.6001ZM24.3 27.914L30.2014 25.5535C30.4519 25.4533 30.6667 25.2804 30.8179 25.0569C30.9692 24.8335 31.0501 24.5699 31.0501 24.3001V20.2501C31.0501 19.892 30.9078 19.5486 30.6547 19.2955C30.4015 19.0423 30.0581 18.9 29.7001 18.9H25.65V18.7455C25.6508 18.0706 25.9192 17.4236 26.3964 16.9464C26.8736 16.4692 27.5206 16.2008 28.1955 16.2H50.3279C48.1872 17.2696 46.3865 18.9141 45.1276 20.9493C43.8687 22.9844 43.2012 25.3299 43.2001 27.723V29.7001H33.2661C32.2819 28.8302 31.0136 28.3501 29.7001 28.3501C28.3865 28.3501 27.1183 28.8302 26.134 29.7001H24.3V27.914ZM27 33.7501C27 33.2161 27.1584 32.6941 27.4551 32.25C27.7518 31.806 28.1734 31.46 28.6668 31.2556C29.1602 31.0512 29.7031 30.9978 30.2268 31.102C30.7505 31.2061 31.2316 31.4633 31.6092 31.8409C31.9868 32.2185 32.244 32.6996 32.3482 33.2233C32.4524 33.7471 32.3989 34.29 32.1945 34.7833C31.9902 35.2767 31.6441 35.6984 31.2001 35.9951C30.7561 36.2917 30.2341 36.4501 29.7001 36.4501C28.9842 36.4492 28.298 36.1645 27.7918 35.6583C27.2856 35.1522 27.0009 34.4659 27 33.7501ZM13.5 18.9C14.2159 18.9009 14.9021 19.1856 15.4083 19.6918C15.9144 20.198 16.1992 20.8842 16.2 21.6001V27.0001C16.1994 27.4734 16.0743 27.9383 15.8374 28.348C15.6005 28.7578 15.26 29.0981 14.85 29.3347V27.0001H12.15V29.3347C11.7401 29.0981 11.3996 28.7578 11.1627 28.348C10.9257 27.9383 10.8007 27.4734 10.8 27.0001V21.6001C10.8009 20.8842 11.0856 20.198 11.5918 19.6918C12.0979 19.1856 12.7842 18.9009 13.5 18.9ZM2.70001 27.0001V21.6001C2.70001 20.884 2.98447 20.1972 3.49082 19.6909C3.99717 19.1845 4.68393 18.9 5.40001 18.9C6.1161 18.9 6.80285 19.1845 7.3092 19.6909C7.81555 20.1972 8.10002 20.884 8.10002 21.6001V27.0001C8.09938 27.4734 7.97433 27.9383 7.73738 28.348C7.50044 28.7578 7.15994 29.0981 6.75001 29.3347V27.0001H4.05001V29.3347C3.64009 29.0981 3.29958 28.7578 3.06264 28.348C2.8257 27.9383 2.70064 27.4734 2.70001 27.0001ZM6.75001 32.2291C7.79602 31.9571 8.73648 31.3779 9.45002 30.5661C10.1636 31.3779 11.104 31.9571 12.15 32.2291V36.4501H6.75001V32.2291Z" fill="#C0D9F9"/>
<path d="M40.5001 66.801C40.0246 66.1783 39.4117 65.6738 38.7092 65.3267C38.0067 64.9796 37.2336 64.7994 36.4501 64.8002V67.5002C36.9531 67.4997 37.4435 67.6577 37.8515 67.9518C38.2596 68.246 38.5646 68.6612 38.7231 69.1386L39.2194 70.6271C39.3091 70.8959 39.481 71.1296 39.7108 71.2952C39.9407 71.4609 40.2168 71.55 40.5001 71.55C40.7834 71.55 41.0595 71.4609 41.2893 71.2952C41.5192 71.1296 41.6911 70.8959 41.7807 70.6271L42.277 69.1386C42.4356 68.6612 42.7406 68.246 43.1486 67.9518C43.5567 67.6577 44.0471 67.4997 44.5501 67.5002V64.8002C43.7665 64.7994 42.9934 64.9796 42.291 65.3267C41.5885 65.6738 40.9756 66.1783 40.5001 66.801Z" fill="#C0D9F9"/>
<path d="M40.5001 57.351C40.0246 56.7283 39.4117 56.2237 38.7092 55.8767C38.0067 55.5296 37.2336 55.3494 36.4501 55.3501V58.0501C36.9531 58.0497 37.4435 58.2077 37.8515 58.5018C38.2596 58.7959 38.5646 59.2112 38.7231 59.6885L39.2194 61.1771C39.3091 61.4458 39.481 61.6796 39.7108 61.8452C39.9407 62.0108 40.2168 62.1 40.5001 62.1C40.7834 62.1 41.0595 62.0108 41.2893 61.8452C41.5192 61.6796 41.6911 61.4458 41.7807 61.1771L42.277 59.6885C42.4356 59.2112 42.7406 58.7959 43.1486 58.5018C43.5567 58.2077 44.0471 58.0497 44.5501 58.0501V55.3501C43.7665 55.3494 42.9934 55.5296 42.291 55.8767C41.5885 56.2237 40.9756 56.7283 40.5001 57.351Z" fill="#C0D9F9"/>
<path d="M40.5001 76.2511C40.0246 75.6283 39.4117 75.1238 38.7092 74.7767C38.0067 74.4297 37.2336 74.2495 36.4501 74.2502V76.9502C36.9531 76.9497 37.4435 77.1077 37.8515 77.4019C38.2596 77.696 38.5646 78.1112 38.7231 78.5886L39.2194 80.0771C39.3091 80.3459 39.481 80.5796 39.7108 80.7452C39.9407 80.9109 40.2168 81 40.5001 81C40.7834 81 41.0595 80.9109 41.2893 80.7452C41.5192 80.5796 41.6911 80.3459 41.7807 80.0771L42.277 78.5886C42.4356 78.1112 42.7406 77.696 43.1486 77.4019C43.5567 77.1077 44.0471 76.9497 44.5501 76.9502V74.2502C43.7665 74.2495 42.9934 74.4297 42.291 74.7767C41.5885 75.1238 40.9756 75.6283 40.5001 76.2511Z" fill="#C0D9F9"/>
<path d="M9.45002 74.9011C8.9745 74.2783 8.36163 73.7738 7.65915 73.4267C6.95667 73.0797 6.18355 72.8995 5.40001 72.9002V75.6002C5.90302 75.5997 6.3934 75.7577 6.80146 76.0519C7.20952 76.346 7.5145 76.7612 7.67308 77.2386L8.16937 78.7271C8.25901 78.9959 8.43092 79.2296 8.66076 79.3952C8.8906 79.5609 9.16672 79.65 9.45002 79.65C9.73332 79.65 10.0094 79.5609 10.2393 79.3952C10.4691 79.2296 10.641 78.9959 10.7307 78.7271L11.227 77.2386C11.3855 76.7612 11.6905 76.346 12.0986 76.0519C12.5066 75.7577 12.997 75.5997 13.5 75.6002V72.9002C12.7165 72.8995 11.9434 73.0797 11.2409 73.4267C10.5384 73.7738 9.92554 74.2783 9.45002 74.9011Z" fill="#C0D9F9"/>
<path d="M17.55 64.8002V62.1002C16.7665 62.0994 15.9934 62.2796 15.2909 62.6267C14.5884 62.9737 13.9755 63.4783 13.5 64.101C13.0245 63.4783 12.4116 62.9737 11.7092 62.6267C11.0067 62.2796 10.2336 62.0994 9.45002 62.1002V64.8002C9.95303 64.7997 10.4434 64.9577 10.8515 65.2518C11.2595 65.546 11.5645 65.9612 11.7231 66.4386L12.2194 67.9271C12.309 68.1959 12.4809 68.4296 12.7108 68.5952C12.9406 68.7608 13.2167 68.85 13.5 68.85C13.7833 68.85 14.0594 68.7608 14.2893 68.5952C14.5191 68.4296 14.691 68.1959 14.7807 67.9271L15.277 66.4386C15.4355 65.9612 15.7405 65.546 16.1486 65.2518C16.5566 64.9577 17.047 64.7997 17.55 64.8002Z" fill="#C0D9F9"/>
<path d="M71.5501 74.9011C71.0746 74.2783 70.4617 73.7738 69.7593 73.4267C69.0568 73.0797 68.2837 72.8995 67.5001 72.9002V75.6002C68.0031 75.5997 68.4935 75.7577 68.9016 76.0519C69.3096 76.346 69.6146 76.7612 69.7732 77.2386L70.2695 78.7271C70.3591 78.9959 70.531 79.2296 70.7609 79.3952C70.9907 79.5609 71.2668 79.65 71.5501 79.65C71.8334 79.65 72.1096 79.5609 72.3394 79.3952C72.5692 79.2296 72.7411 78.9959 72.8308 78.7271L73.3271 77.2386C73.4856 76.7612 73.7906 76.346 74.1987 76.0519C74.6068 75.7577 75.0971 75.5997 75.6001 75.6002V72.9002C74.8166 72.8995 74.0435 73.0797 73.341 73.4267C72.6385 73.7738 72.0257 74.2783 71.5501 74.9011Z" fill="#C0D9F9"/>
<path d="M68.7808 67.9271L69.2771 66.4386C69.4356 65.9612 69.7406 65.546 70.1487 65.2518C70.5567 64.9577 71.0471 64.7997 71.5501 64.8002V62.1002C70.7666 62.0994 69.9935 62.2796 69.291 62.6267C68.5885 62.9737 67.9756 63.4783 67.5001 64.101C67.0246 63.4783 66.4117 62.9737 65.7093 62.6267C65.0068 62.2796 64.2337 62.0994 63.4501 62.1002V64.8002C63.9531 64.7997 64.4435 64.9577 64.8516 65.2518C65.2596 65.546 65.5646 65.9612 65.7232 66.4386L66.2195 67.9271C66.3091 68.1959 66.481 68.4296 66.7109 68.5952C66.9407 68.7608 67.2168 68.85 67.5001 68.85C67.7834 68.85 68.0595 68.7608 68.2894 68.5952C68.5192 68.4296 68.6911 68.1959 68.7808 67.9271Z" fill="#C0D9F9"/>
<path d="M36.8455 49.5547L39.5455 52.2548C39.6708 52.3801 39.8196 52.4796 39.9834 52.5474C40.1472 52.6153 40.3228 52.6502 40.5001 52.6502C40.6774 52.6502 40.8529 52.6153 41.0167 52.5474C41.1805 52.4796 41.3293 52.3801 41.4547 52.2548L44.1547 49.5547L42.2455 47.6455L40.5001 49.3911L38.7547 47.6455L36.8455 49.5547Z" fill="#C0D9F9"/>
<path d="M14.4546 53.0455L12.5454 54.9548L15.2454 57.6548C15.3708 57.7801 15.5196 57.8796 15.6834 57.9474C15.8472 58.0153 16.0227 58.0502 16.2 58.0502C16.3773 58.0502 16.5529 58.0153 16.7167 57.9474C16.8805 57.8796 17.0293 57.7801 17.1547 57.6548L19.8547 54.9548L17.9454 53.0455L16.2 54.7911L14.4546 53.0455Z" fill="#C0D9F9"/>
<path d="M64.8001 58.0501C64.9774 58.0504 65.1531 58.0156 65.3169 57.9477C65.4807 57.8799 65.6295 57.7803 65.7547 57.6548L68.4548 54.9548L66.5455 53.0455L64.8001 54.7911L63.0547 53.0455L61.1455 54.9548L63.8455 57.6548C63.9707 57.7803 64.1195 57.8799 64.2834 57.9477C64.4472 58.0156 64.6228 58.0504 64.8001 58.0501Z" fill="#C0D9F9"/>
<path d="M21.6 41.8501H18.9V44.5501H21.6V41.8501Z" fill="#C0D9F9"/>
<path d="M18.9 47.2501H16.2V49.9501H18.9V47.2501Z" fill="#C0D9F9"/>
<path d="M41.8501 41.8501H39.1501V44.5501H41.8501V41.8501Z" fill="#C0D9F9"/>
<path d="M62.1001 41.8501H59.4001V44.5501H62.1001V41.8501Z" fill="#C0D9F9"/>
<path d="M64.8001 47.2501H62.1001V49.9501H64.8001V47.2501Z" fill="#C0D9F9"/>
</svg>
