<svg width="93" height="80" viewBox="0 0 93 80" fill="none" xmlns="http://www.w3.org/2000/svg">
<path d="M15.7748 50.3365C15.0224 50.3365 14.4125 50.953 14.4125 51.7137V54.3821C14.4125 55.1429 15.0224 55.7593 15.7748 55.7593C16.5271 55.7593 17.1371 55.1429 17.1371 54.3821V51.7137C17.1371 50.953 16.5271 50.3365 15.7748 50.3365Z" fill="#C0D9F9"/>
<path d="M24.1135 50.3365C23.3612 50.3365 22.7512 50.953 22.7512 51.7137V54.3821C22.7512 55.1429 23.3612 55.7593 24.1135 55.7593C24.8659 55.7593 25.4758 55.1429 25.4758 54.3821V51.7137C25.4758 50.953 24.8659 50.3365 24.1135 50.3365Z" fill="#C0D9F9"/>
<path d="M32.4525 50.3365C31.7001 50.3365 31.0902 50.953 31.0902 51.7137V54.3821C31.0902 55.1429 31.7001 55.7593 32.4525 55.7593C33.2048 55.7593 33.8148 55.1429 33.8148 54.3821V51.7137C33.8148 50.953 33.2048 50.3365 32.4525 50.3365Z" fill="#C0D9F9"/>
<path d="M40.7912 50.3365C40.0389 50.3365 39.4289 50.953 39.4289 51.7137V54.3821C39.4289 55.1429 40.0389 55.7593 40.7912 55.7593C41.5436 55.7593 42.1535 55.1429 42.1535 54.3821V51.7137C42.1535 50.953 41.5436 50.3365 40.7912 50.3365Z" fill="#C0D9F9"/>
<path d="M49.13 50.3365C48.3774 50.3365 47.7677 50.953 47.7677 51.7137V54.3821C47.7677 55.1429 48.3774 55.7593 49.13 55.7593C49.8825 55.7593 50.4923 55.1429 50.4923 54.3821V51.7137C50.4923 50.953 49.8825 50.3365 49.13 50.3365Z" fill="#C0D9F9"/>
<path d="M57.4687 50.3365C56.7162 50.3365 56.1064 50.953 56.1064 51.7137V54.3821C56.1064 55.1429 56.7162 55.7593 57.4687 55.7593C58.2213 55.7593 58.831 55.1429 58.831 54.3821V51.7137C58.831 50.953 58.2213 50.3365 57.4687 50.3365Z" fill="#C0D9F9"/>
<path d="M83.4653 53.845H79.026C78.2735 53.845 77.6637 54.4615 77.6637 55.2222C77.6637 55.983 78.2735 56.5994 79.026 56.5994H83.4653C84.2179 56.5994 84.8276 55.983 84.8276 55.2222C84.8276 54.4615 84.2179 53.845 83.4653 53.845Z" fill="#C0D9F9"/>
<path d="M83.4653 60.4555H79.026C78.2735 60.4555 77.6637 61.0719 77.6637 61.8327C77.6637 62.5934 78.2735 63.2098 79.026 63.2098H83.4653C84.2179 63.2098 84.8276 62.5934 84.8276 61.8327C84.8276 61.0719 84.2179 60.4555 83.4653 60.4555Z" fill="#C0D9F9"/>
<path d="M83.4653 67.0659H79.026C78.2735 67.0659 77.6637 67.6824 77.6637 68.4431C77.6637 69.2039 78.2735 69.8203 79.026 69.8203H83.4653C84.2179 69.8203 84.8276 69.2039 84.8276 68.4431C84.8276 67.6824 84.2179 67.0659 83.4653 67.0659Z" fill="#C0D9F9"/>
<path d="M41.741 36.3643H31.5025C30.7501 36.3643 30.1402 36.9809 30.1402 37.7414C30.1402 38.502 30.7501 39.1186 31.5025 39.1186H41.741C42.4934 39.1186 43.1033 38.502 43.1033 37.7414C43.1033 36.9809 42.4934 36.3643 41.741 36.3643Z" fill="#C0D9F9"/>
<path d="M91.7285 77.249V31.8216C91.7285 31.061 91.1188 30.4444 90.3662 30.4444H88.3653V26.3566C88.3653 24.9322 87.2189 23.7734 85.8101 23.7734H82.608V11.7064C82.608 9.61894 80.9282 7.92078 78.8633 7.92078H45.2725C45.2007 6.18352 45.1813 4.43579 45.216 2.68421C45.23 1.97138 44.966 1.29859 44.4723 0.789765C43.9786 0.280577 43.318 0.000183523 42.6122 0.000183523H39.2554C38.5031 0.000183523 37.8931 0.616791 37.8931 1.37736C37.8931 2.13793 38.5031 2.75454 39.2554 2.75454H42.4894C42.4492 4.94939 42.4923 7.15875 42.6162 9.3626C42.6165 9.37049 42.6171 9.37839 42.6174 9.38628C42.6668 10.2614 42.729 11.1358 42.8038 12.0081H30.4395C30.7034 8.93182 30.8102 5.82876 30.7539 2.75435H33.9879C34.7402 2.75435 35.3502 2.13775 35.3502 1.37718C35.3502 0.616608 34.7402 0 33.9879 0H30.6311C29.9255 0 29.2648 0.280394 28.771 0.789582C28.2775 1.2984 28.0133 1.97138 28.0273 2.68421C28.3043 16.6958 25.059 32.4922 17.4362 43.6653H8.82083C7.35572 43.6653 6.16379 44.8703 6.16379 46.3514V57.9777H5.47465C3.43628 57.9777 1.7779 59.6541 1.7779 61.715V77.2457H1.3623C0.609949 77.2457 0 77.8621 0 78.6228C0 79.3836 0.609949 80 1.3623 80H91.6377C92.3902 80 93 79.3836 93 78.6228C93 77.8931 92.4385 77.2962 91.7285 77.249ZM89.0039 39.2989H73.4874V33.199H89.0039V39.2989ZM70.7628 60.7678H67.0799V57.4573H70.7626L70.7628 60.7678ZM67.0799 63.5222H70.7626V77.2458H67.0799V63.5222ZM85.6406 30.4444H76.8505V26.5277H85.6406V30.4444ZM78.8631 10.6751C79.4256 10.6751 79.8832 11.1379 79.8832 11.7064V23.7734H76.6814C75.2724 23.7734 74.1261 24.9322 74.1261 26.3566V30.4444H72.1251C71.3726 30.4444 70.7628 31.061 70.7628 31.8216V54.7029H67.0799V46.3515C67.0799 44.8706 65.888 43.6655 64.4227 43.6655H55.8071C49.4934 34.4114 46.2626 22.0121 45.4303 10.6751H78.8631ZM43.0832 14.7624C43.261 16.2832 43.4775 17.7931 43.7316 19.2856H29.5121C29.7662 17.7933 29.9825 16.2832 30.1605 14.7624H43.0832ZM28.296 25.1458C28.5481 24.1234 28.7815 23.0872 28.9958 22.04H44.2477C44.4622 23.0872 44.6954 24.1234 44.9475 25.1458C46.6871 32.1997 49.2364 38.4164 52.5383 43.6655H20.7054C24.0073 38.4164 26.5566 32.1997 28.296 25.1458ZM4.50233 61.7151C4.50233 61.1733 4.93845 60.7322 5.47447 60.7322H6.16361V77.2458H4.50233V61.7151ZM51.662 77.2458V64.7578C51.662 63.1595 50.3759 61.8593 48.795 61.8593H24.4485C22.8675 61.8593 21.5814 63.1595 21.5814 64.7578V68.2672C21.5814 69.0279 22.1914 69.6444 22.9438 69.6444C23.6961 69.6444 24.3061 69.0279 24.3061 68.2672V64.7578C24.3061 64.6783 24.37 64.6136 24.4485 64.6136H48.795C48.8737 64.6136 48.9374 64.6785 48.9374 64.7578V77.2458H24.3061V73.5923C24.3061 72.8315 23.6961 72.2151 22.9438 72.2151C22.1914 72.2151 21.5814 72.8315 21.5814 73.5923V77.2457H8.88822V46.4198H64.3553V77.2458H51.662ZM73.4874 77.2458V48.3604H78.6119C79.3644 48.3604 79.9742 47.744 79.9742 46.9832C79.9742 46.2225 79.3644 45.606 78.6119 45.606H73.4874V42.0531H89.0039V45.606H83.8795C83.1269 45.606 82.5172 46.2225 82.5172 46.9832C82.5172 47.744 83.1269 48.3604 83.8795 48.3604H89.0039V77.2458H73.4874Z" fill="#C0D9F9"/>
</svg>
