<svg width="97" height="81" viewBox="0 0 97 81" fill="none" xmlns="http://www.w3.org/2000/svg">
<path d="M97 79.5549C97 78.7567 96.364 78.1099 95.5791 78.1099H94.4511L92.9105 66.0959L93.5497 65.7697C94.0351 65.5219 94.3391 65.0146 94.3333 64.4624C94.3272 63.9102 94.0123 63.4097 93.5218 63.1729L92.4706 62.6654L91.1421 52.3059L92.2472 51.7724C92.7307 51.5389 93.0442 51.0489 93.058 50.5046C93.0721 49.9605 92.7843 49.4545 92.3131 49.1956L90.6241 48.2673L89.3245 38.1324L91.0288 37.1958C91.475 36.9506 91.759 36.4822 91.7737 35.9666C91.7885 35.4508 91.532 34.9666 91.1004 34.6951L88.6895 33.1796L87.4627 23.6129L89.0562 22.6112C89.4418 22.3688 89.6905 21.954 89.7258 21.4943C89.761 21.0348 89.5786 20.5856 89.2345 20.2854L86.7587 18.1244L85.497 8.28516H89.6867V11.3679H89.3055C88.5206 11.3679 87.8847 12.0147 87.8847 12.813C87.8847 13.6112 88.5206 14.258 89.3055 14.258H92.9097C93.6946 14.258 94.3306 13.6112 94.3306 12.813C94.3306 12.0147 93.6946 11.3679 92.9097 11.3679H92.5283V6.83991C92.5283 6.04167 91.8923 5.39486 91.1074 5.39486H85.1262L84.5957 1.25816C84.5035 0.538523 83.9005 0 83.1866 0H72.3419C71.6281 0 71.0252 0.538523 70.9328 1.25816L70.4023 5.39486H64.4216C63.6367 5.39486 63.0007 6.04167 63.0007 6.83991V11.3677H62.6196C61.8347 11.3677 61.1987 12.0146 61.1987 12.8128C61.1987 13.611 61.8347 14.2578 62.6196 14.2578H66.2235C67.0084 14.2578 67.6444 13.611 67.6444 12.8128C67.6444 12.0146 67.0084 11.3677 66.2235 11.3677H65.8423V8.28497H70.0321L68.7703 18.1242L66.2946 20.2853C65.9507 20.5856 65.7683 21.0348 65.8033 21.4941C65.8388 21.9538 66.0873 22.3686 66.4728 22.611L68.0663 23.6127L67.7589 26.0107H60.2847C54.8052 26.0107 50.3474 30.5446 50.3474 36.1173V45.2783H48.7876V36.897C48.7876 36.0988 48.1516 35.452 47.3667 35.452H39.8416V28.1945H40.0926C40.8774 28.1945 41.5135 27.5477 41.5135 26.7495C41.5135 25.9512 40.8774 25.3044 40.0926 25.3044H39.8416V20.0381H40.0926C40.8774 20.0381 41.5135 19.3913 41.5135 18.593C41.5135 17.7948 40.8774 17.148 40.0926 17.148H39.8416V11.8816H40.0926C40.8774 11.8816 41.5135 11.2348 41.5135 10.4366C41.5135 9.63831 40.8774 8.9915 40.0926 8.9915H39.8416V2.8901H40.0926C40.8774 2.8901 41.5135 2.2433 41.5135 1.44505C41.5135 0.646805 40.8774 0 40.0926 0H27.8775C27.0927 0 26.4566 0.646805 26.4566 1.44505C26.4566 2.2433 27.0927 2.8901 27.8775 2.8901H28.1285V8.9915H27.8775C27.0927 8.9915 26.4566 9.63831 26.4566 10.4366C26.4566 11.2348 27.0927 11.8816 27.8775 11.8816H28.1285V17.148H27.8775C27.0927 17.148 26.4566 17.7948 26.4566 18.593C26.4566 19.3913 27.0927 20.0381 27.8775 20.0381H28.1285V25.3044H27.8775C27.0927 25.3044 26.4566 25.9512 26.4566 26.7495C26.4566 27.5477 27.0927 28.1945 27.8775 28.1945H28.1285V35.452H23.1999C22.4151 35.452 21.779 36.0988 21.779 36.897C21.779 37.6952 22.4151 38.3421 23.1999 38.3421H45.9456V78.1099H39.5876V69.8346C39.5876 67.1308 37.4246 64.931 34.766 64.931H25.6533C22.9947 64.931 20.8317 67.1308 20.8317 69.8346V78.1099H14.4737V38.3421H17.5163C18.301 38.3421 18.9372 37.6952 18.9372 36.897C18.9372 36.0988 18.301 35.452 17.5163 35.452H13.0528C12.268 35.452 11.6319 36.0988 11.6319 36.897V57.0314H3.79664C3.01193 57.0314 2.37574 57.6782 2.37574 58.4764V70.0754C2.37574 70.8736 3.01193 71.5205 3.79664 71.5205C4.58136 71.5205 5.21754 70.8736 5.21754 70.0754V59.9215H11.6324V78.1099H5.21754V75.8556C5.21754 75.0574 4.58136 74.4106 3.79664 74.4106C3.01193 74.4106 2.37574 75.0574 2.37574 75.8556V78.1099H1.4209C0.636184 78.1099 0 78.7567 0 79.5549C0 80.3532 0.636184 81 1.4209 81H95.5791C96.3638 81 97 80.3532 97 79.5549ZM30.9707 2.8901H37V8.9915H30.9707V2.8901ZM30.9707 11.8816H37V17.148H30.9707V11.8816ZM30.9707 20.0381H37V25.3044H30.9707V20.0381ZM30.9707 35.452V28.1945H37V35.452H30.9707ZM86.2538 36.5348L77.7646 41.2L69.2754 36.5348L69.4831 34.9157L77.7646 29.7095L86.0462 34.9157L86.2538 36.5348ZM74.7758 42.8425L67.9883 46.5727L68.8819 39.6035L74.7758 42.8425ZM88.0569 50.5959L77.7646 55.565L67.4724 50.5959L67.5351 50.1069L77.7646 44.4851L87.9942 50.1069L88.0569 50.5959ZM74.4515 57.1647L66.1138 61.1903L67.0861 53.6087L74.4515 57.1647ZM77.7646 58.7643L89.6738 64.5143L77.7646 70.5931L65.8554 64.5143L77.7646 58.7643ZM74.5972 72.2098L64.0077 77.6151L65.3088 67.4687L74.5972 72.2098ZM77.7646 73.8268L86.1557 78.1099H69.3734L77.7646 73.8268ZM91.5218 77.6151L80.9323 72.2098L90.2206 67.4687L91.5218 77.6151ZM89.4154 61.1901L81.0778 57.1645L88.4432 53.6086L89.4154 61.1901ZM87.541 46.5727L80.7534 42.8425L86.6473 39.6035L87.541 46.5727ZM85.5724 31.2199L80.4672 28.0105L84.8106 25.2799L85.5724 31.2199ZM71.4477 19.5959L77.7648 14.0816L84.0819 19.5959L84.4076 22.1357L77.7648 26.3117L71.122 22.1357L71.4477 19.5959ZM79.9464 12.1772L82.81 9.67742L83.5318 15.307L79.9464 12.1772ZM77.7646 10.2728L75.4874 8.28497H80.0419L77.7646 10.2728ZM73.5899 2.8901H81.9394L82.2606 5.39486H73.2685L73.5899 2.8901ZM72.7195 9.67742L75.5831 12.1772L71.9977 15.307L72.7195 9.67742ZM75.0623 28.0105L69.9571 31.2199L70.7187 25.2799L75.0623 28.0105ZM23.6739 78.1099V69.8346C23.6739 68.7242 24.562 67.8211 25.6537 67.8211H34.7664C35.858 67.8211 36.7461 68.7244 36.7461 69.8346V78.1099H23.6739ZM48.788 78.1099V48.1684H55.6411V53.8908C55.6411 54.6891 56.2771 55.3359 57.062 55.3359C57.8469 55.3359 58.4829 54.6891 58.4829 53.8908V46.7234C58.4829 45.9251 57.8469 45.2783 57.062 45.2783H53.1895V36.1174C53.1895 32.1383 56.3727 28.901 60.2851 28.901H67.3885L66.8398 33.1796L64.4288 34.6951C63.9975 34.9664 63.7407 35.4508 63.7555 35.9666C63.7703 36.4822 64.0541 36.9504 64.5005 37.1958L66.2048 38.1324L64.9051 48.2673L63.2162 49.1956C62.7452 49.4545 62.4572 49.9605 62.4712 50.5046C62.4851 51.0489 62.7988 51.5389 63.2821 51.7724L64.3872 52.3059L63.0587 62.6654L62.0074 63.1729C61.5169 63.4097 61.2021 63.9102 61.196 64.4624C61.1901 65.0146 61.4942 65.5219 61.9796 65.7697L62.6188 66.0959L61.0782 78.1099H58.4827V59.671C58.4827 58.8728 57.8467 58.226 57.0618 58.226C56.2769 58.226 55.6409 58.8728 55.6409 59.671V78.1099H48.788Z" fill="#C0D9F9"/>
<path d="M27.2867 53.0654C27.8862 53.5831 28.7825 53.5066 29.2896 52.8999L33.2966 48.1033C33.6552 47.6738 33.7357 47.0719 33.5033 46.5609C33.2706 46.0498 32.7674 45.7224 32.2137 45.7224H31.3731L33.2964 43.4202C33.8045 42.8119 33.7316 41.8998 33.1335 41.3832C32.5355 40.8667 31.6387 40.9408 31.1306 41.5487L27.2184 46.2318C26.8597 46.6613 26.7792 47.2632 27.0117 47.7742C27.2443 48.2854 27.7475 48.6127 28.3013 48.6127H29.1419L27.1236 51.0285C26.6157 51.6367 26.6886 52.5487 27.2867 53.0654Z" fill="#C0D9F9"/>
</svg>
