<svg width="70" height="70" viewBox="0 0 70 70" fill="none" xmlns="http://www.w3.org/2000/svg">
<path d="M66.5 11.6667C68.429 11.6572 69.9905 10.0958 70 8.16669C70 6.23371 68.433 4.66669 66.5 4.66669H65.3334V3.50006C65.3403 2.5764 64.9724 1.68949 64.3137 1.04187C63.6637 0.370719 62.7677 -0.00556425 61.8334 6.22032e-05C59.9004 6.22032e-05 58.3334 1.56709 58.3334 3.50006V4.66669H53.6668V3.50006C53.6737 2.5764 53.3058 1.68949 52.6471 1.04187C51.9971 0.370719 51.1011 -0.00556425 50.1668 6.22032e-05C48.2338 6.22032e-05 46.6668 1.56709 46.6668 3.50006V4.66669H42.0002V3.50006C42.007 2.5764 41.6392 1.68949 40.9805 1.04187C40.3305 0.370719 39.4345 -0.00556425 38.5002 6.22032e-05C36.5672 6.22032e-05 35.0002 1.56709 35.0002 3.50006V4.66669H31.1395C31.1395 2.08931 29.0501 6.22032e-05 26.4729 6.22032e-05H5.83336C2.61331 0.00385145 0.00390407 2.61326 0 5.83331V64.1666C0.00390407 67.3867 2.61331 69.9961 5.83336 70H64.1666C67.3867 69.9961 69.9961 67.3867 70 64.1666V43.5284C70 40.951 67.9106 38.8617 65.3334 38.8617V35H66.5C68.429 34.9905 69.9905 33.4291 70 31.5C70 29.5671 68.433 28 66.5 28H65.3334V23.3334H66.5C68.429 23.3239 69.9905 21.7625 70 19.8334C70 17.9004 68.433 16.3334 66.5 16.3334H65.3334V11.6668L66.5 11.6667ZM66.5 7.00006C67.1443 7.00006 67.6666 7.5224 67.6666 8.16669C67.6674 8.48131 67.5383 8.78238 67.3096 8.99848C67.0961 9.21481 66.8039 9.33561 66.5 9.33331H65.3334V7.00006H66.5ZM60.6666 3.50006C60.6666 2.85577 61.189 2.33343 61.8333 2.33343C62.1475 2.33297 62.448 2.46215 62.6639 2.69042C62.8816 2.9032 63.003 3.19566 62.9999 3.50006V39.3354C62.5927 39.4661 62.2089 39.6002 61.8333 39.7333C61.4576 39.8662 61.0668 40.0028 60.6666 40.1287V3.50006ZM51.3333 11.6667V16.3333H48.9999V11.6667H51.3333ZM58.3333 11.6667V16.3333H53.6667V11.6667H58.3333ZM41.9999 32.6667V30.3333H58.3333V32.6667H41.9999ZM58.3333 18.6667V21H41.9999V18.6667H58.3333ZM48.9999 28V23.3334H51.3333V28H48.9999ZM41.9999 28V23.3334H46.6665V28H41.9999ZM53.6667 23.3333H58.3333V27.9999H53.6667V23.3333ZM46.6667 16.3333H42V11.6667H46.6667V16.3333ZM41.9999 35H46.6665V38.9165C45.2582 38.6205 43.8215 38.4809 42.3825 38.5C42.2507 38.5 42.1282 38.5152 41.9998 38.5199L41.9999 35ZM48.9999 35H51.3333V40.3527C50.6333 40.1707 50.0127 39.9549 49.3838 39.7333L48.9999 39.5991V35ZM53.6667 35H58.3333V40.6571C57.4302 40.7805 56.5194 40.8393 55.6079 40.8333C54.8788 40.8333 54.2428 40.8018 53.6665 40.7492L53.6667 35ZM48.9999 3.50006C48.9999 2.85577 49.5223 2.33343 50.1665 2.33343C50.4808 2.33297 50.7813 2.46215 50.9972 2.69042C51.2149 2.9032 51.3363 3.19566 51.3332 3.50006V4.66669H48.9998L48.9999 3.50006ZM58.3333 7.00006V9.33343H41.9999V7.00006H58.3333ZM37.3333 3.50006C37.3333 2.85577 37.8556 2.33343 38.4999 2.33343C38.8142 2.33297 39.1147 2.46215 39.3306 2.69042C39.5483 2.9032 39.6697 3.19566 39.6666 3.50006V38.8559C38.8657 39.0626 38.0848 39.3401 37.3332 39.6854L37.3333 3.50006ZM31.0858 23.3333H34.9999V27.9999H31.4801C31.4801 27.8681 31.5 27.7421 31.5 27.6079C31.519 26.1722 31.3802 24.7388 31.0858 23.3333ZM34.9999 16.3333H29.2518C29.1982 15.7558 29.1666 15.1165 29.1666 14.3827C29.161 13.4744 29.2194 12.5667 29.3416 11.6667H34.9999V16.3333ZM34.9999 18.6667V21H30.4044C30.3578 20.8694 30.3122 20.7364 30.2667 20.6069C30.0463 19.9815 29.8304 19.3655 29.6495 18.6667H34.9999ZM31.143 30.3333H34.9999V32.6667H30.3112C30.6567 31.9149 30.935 31.1341 31.143 30.3333ZM29.1037 35H34.9999V40.8929C32.3586 42.343 31.15 42.8225 29.1666 40.8334C27.1832 38.8443 27.6558 37.6378 29.1037 35ZM34.9999 9.33331H29.8667C29.9926 8.932 30.128 8.54928 30.2645 8.16669C30.4011 7.78397 30.5306 7.40953 30.66 7.00006H34.9999V9.33331ZM67.6666 43.5284V64.1666C67.6666 66.0996 66.0996 67.6666 64.1666 67.6666H5.83336C3.90039 67.6666 2.33337 66.0996 2.33337 64.1666V5.83331C2.33337 3.90034 3.90039 2.33332 5.83336 2.33332H26.4716C27.187 2.33412 27.8626 2.66229 28.3056 3.2239C28.7486 3.78563 28.9102 4.51914 28.7444 5.21498C28.5574 5.94998 28.3312 6.6743 28.0666 7.38495C27.199 9.61441 26.7799 11.9932 26.8334 14.3849C26.7798 16.7766 27.1989 19.1555 28.0666 21.3849C28.8438 23.3653 29.2178 25.4811 29.1667 27.6079C29.0518 29.781 28.3573 31.8838 27.1554 33.6979C25.7555 36.2413 24.1605 39.1253 27.516 42.4829C30.8713 45.8405 33.7529 44.2492 36.2963 42.8446C38.1093 41.6428 40.2108 40.9483 42.3828 40.8333C44.5104 40.7822 46.6268 41.1563 48.6081 41.9334C50.8375 42.8014 53.2163 43.2205 55.6081 43.1665C58.0001 43.2205 60.3789 42.8009 62.6081 41.9322C63.3207 41.6675 64.0471 41.4413 64.7839 41.2544C65.48 41.0889 66.2136 41.2509 66.7754 41.694C67.3371 42.1371 67.6654 42.8129 67.6666 43.5284ZM66.5 30.3333C67.1443 30.3333 67.6666 30.8556 67.6666 31.4999C67.6674 31.8145 67.5383 32.1156 67.3096 32.3317C67.0961 32.548 66.8039 32.6688 66.5 32.6666H65.3334V30.3332L66.5 30.3333ZM66.5 18.6667C67.1443 18.6667 67.6666 19.189 67.6666 19.8333C67.6674 20.1479 67.5383 20.449 67.3096 20.6651C67.0961 20.8814 66.8039 21.0022 66.5 20.9999H65.3334V18.6666L66.5 18.6667Z" fill="#1B48BD"/>
<path d="M9.33336 57.1666C7.40038 57.1666 5.83336 58.7337 5.83336 60.6666C5.83336 62.5996 7.40038 64.1666 9.33336 64.1666C11.2663 64.1666 12.8334 62.5996 12.8334 60.6666C12.8334 58.7337 11.2663 57.1666 9.33336 57.1666ZM9.33336 61.8333C8.68907 61.8333 8.16673 61.3109 8.16673 60.6666C8.16673 60.0224 8.68907 59.5 9.33336 59.5C9.97764 59.5 10.5 60.0224 10.5 60.6666C10.5 61.311 9.97764 61.8333 9.33336 61.8333Z" fill="#1B48BD"/>
<path d="M21 5.8333C19.067 5.8333 17.5 7.40033 17.5 9.3333C17.5 11.2663 19.067 12.8333 21 12.8333C22.9329 12.8333 24.5 11.2663 24.5 9.3333C24.5 7.40033 22.9331 5.8333 21 5.8333ZM21 10.5C20.3557 10.5 19.8333 9.9777 19.8333 9.33342C19.8333 8.68913 20.3557 8.16679 21 8.16679C21.6443 8.16679 22.1666 8.68913 22.1666 9.33342C22.1667 9.9777 21.6444 10.5 21 10.5Z" fill="#1B48BD"/>
<path d="M10.5 54.8333C11.1443 54.8333 11.6666 54.311 11.6666 53.6666C11.6666 53.0223 11.1443 52.5 10.5 52.5C9.85567 52.5 9.33336 53.0223 9.33336 53.6666C9.33336 54.311 9.85567 54.8333 10.5 54.8333Z" fill="#1B48BD"/>
<path d="M18.6667 17.4999C19.311 17.4999 19.8333 16.9776 19.8333 16.3333C19.8333 15.689 19.311 15.1667 18.6667 15.1667C18.0224 15.1667 17.5001 15.689 17.5001 16.3333C17.5001 16.9776 18.0224 17.4999 18.6667 17.4999Z" fill="#1B48BD"/>
<path d="M63 47.8333C63.6443 47.8333 64.1666 47.311 64.1666 46.6666C64.1666 46.0223 63.6443 45.5 63 45.5C62.3557 45.5 61.8334 46.0223 61.8334 46.6666C61.8334 47.311 62.3557 47.8333 63 47.8333Z" fill="#1B48BD"/>
<path fill-rule="evenodd" clip-rule="evenodd" d="M56.4491 57.4128C56.0757 57.7022 55.9137 58.1881 56.0387 58.6438C56.1638 59.0993 56.5511 59.4346 57.0199 59.4928C57.4887 59.551 57.9463 59.3209 58.1791 58.9098C58.4118 58.4987 58.3737 57.9879 58.0825 57.6159C57.6867 57.1101 56.9566 57.0194 56.4491 57.4128Z" fill="#1B48BD"/>
<path fill-rule="evenodd" clip-rule="evenodd" d="M54.1158 45.7462C53.7424 46.0356 53.5804 46.5215 53.7055 46.9771C53.8305 47.4326 54.2178 47.7679 54.6866 47.8262C55.1555 47.8844 55.6131 47.6543 55.8458 47.2432C56.0786 46.8321 56.0404 46.3212 55.7492 45.9493C55.3533 45.4435 54.6234 45.3528 54.1158 45.7462Z" fill="#1B48BD"/>
</svg>
