<svg width="80" height="80" viewBox="0 0 80 80" fill="none" xmlns="http://www.w3.org/2000/svg">
<path d="M64.9351 52.7976H52.184C51.5579 52.7976 51.0504 53.3051 51.0504 53.9312C51.0504 60.0245 46.0933 64.9817 40 64.9817C33.9067 64.9817 28.9496 60.0245 28.9496 53.9312C28.9496 53.3051 28.4421 52.7976 27.816 52.7976H15.0649C14.4389 52.7976 13.9313 53.3051 13.9313 53.9312V56.4246C13.9313 57.9529 15.1746 59.1961 16.7028 59.1961C18.8596 59.1961 20.2076 60.5953 20.75 61.9048C21.2923 63.2142 21.3286 65.1568 19.8036 66.6818C19.28 67.2052 18.9917 67.9012 18.9917 68.6418C18.9917 69.3823 19.28 70.0782 19.8036 70.6016L23.3297 74.1281C24.4104 75.2087 26.1687 75.2086 27.2494 74.1281C28.777 72.6005 30.7195 72.6356 32.0282 73.1775C33.3368 73.7197 34.7351 75.0685 34.7351 77.2287C34.7351 78.7569 35.9783 80 37.5066 80H42.4933C44.0215 80 45.2648 78.7568 45.2648 77.2287C45.2648 75.0719 46.664 73.7237 47.9734 73.1815C49.2829 72.6387 51.2256 72.6029 52.7506 74.1281C53.274 74.6515 53.97 74.9399 54.7104 74.9399C55.4509 74.9399 56.1469 74.6517 56.6703 74.1283L60.1966 70.6019C60.7202 70.0785 61.0084 69.3825 61.0084 68.6419C61.0084 67.9014 60.7202 67.2055 60.1966 66.6819C58.6716 65.1569 58.7077 63.2144 59.25 61.9049C59.7924 60.5955 61.1404 59.1963 63.2973 59.1963C64.8256 59.1963 66.0688 57.9529 66.0688 56.4248V53.9313C66.0687 53.3051 65.5611 52.7976 64.9351 52.7976ZM63.8015 56.4248C63.8015 56.7028 63.5752 56.9291 63.2972 56.9291C60.5582 56.9291 58.2049 58.5033 57.1553 61.0372C56.1057 63.5712 56.6567 66.3485 58.5934 68.2852C58.7218 68.4136 58.7411 68.5639 58.7411 68.6418C58.7411 68.7197 58.7219 68.87 58.5934 68.9984L55.067 72.5247C54.9385 72.6533 54.7883 72.6724 54.7103 72.6724C54.6322 72.6724 54.4821 72.6533 54.3537 72.5249C52.417 70.5882 49.6398 70.0371 47.1057 71.0866C44.5718 72.1362 42.9976 74.4897 42.9976 77.2285C42.9976 77.5066 42.7713 77.7326 42.4933 77.7326H37.5066C37.2285 77.7326 37.0023 77.5066 37.0023 77.2285C37.0023 74.4868 35.4288 72.132 32.8959 71.0829C32.0471 70.7313 31.1708 70.5597 30.3079 70.5597C28.5955 70.5597 26.9354 71.2359 25.6463 72.5249C25.4496 72.7215 25.1297 72.7215 24.933 72.525L21.4068 68.9985C21.2784 68.8701 21.2591 68.72 21.2591 68.6419C21.2591 68.5639 21.2784 68.4138 21.4068 68.2852C23.3433 66.3487 23.8944 63.5715 22.8447 61.0374C21.7951 58.5035 19.4416 56.9292 16.703 56.9292C16.4249 56.9292 16.1987 56.703 16.1987 56.4249V55.0651H26.7304C27.3075 61.8798 33.0387 67.2492 40.0002 67.2492C46.9616 67.2492 52.6926 61.8798 53.27 55.0651H63.8016V56.4248H63.8015ZM47.8047 53.9312C47.8047 53.3051 47.2972 52.7976 46.6711 52.7976H33.3287C32.7027 52.7976 32.1951 53.3051 32.1951 53.9312C32.1951 58.2348 35.6964 61.736 40 61.736C44.3035 61.7362 47.8047 58.235 47.8047 53.9312ZM34.5789 55.0648H45.4209C44.8964 57.5765 42.6649 59.4688 40 59.4688C37.3351 59.4688 35.1035 57.5765 34.5789 55.0648ZM77.6461 42.8568H74.6141V15.8257C74.6141 15.4727 74.4497 15.1399 74.1694 14.9255C73.8891 14.7111 73.525 14.6392 73.1841 14.7317L56.5926 19.2257V15.8257C56.5926 15.4727 56.4282 15.1399 56.1479 14.9255C55.8675 14.7111 55.5033 14.6392 55.1626 14.7317L38.571 19.2257V15.8257C38.571 15.4727 38.4065 15.1399 38.1263 14.9255C37.846 14.7111 37.4818 14.6392 37.1411 14.7317L20.5493 19.2257V2.35385C20.5493 1.05587 19.4933 0 18.1955 0H7.73976C6.44178 0 5.38591 1.05603 5.38591 2.35385V42.8567H2.35385C1.05603 42.8568 0 43.9127 0 45.2107V48.0698C0 49.3678 1.05603 50.4236 2.35385 50.4236H77.6461C78.9441 50.4236 80 49.3676 80 48.0698V45.2107C80 43.9127 78.944 42.8568 77.6461 42.8568ZM72.3469 17.3072V42.8568H56.5926V21.5744L72.3469 17.3072ZM54.3253 17.3072V42.8568H38.571V21.5744L54.3253 17.3072ZM36.3038 17.3072V42.8568H20.5493V21.5744L36.3038 17.3072ZM7.73976 2.26721H18.1955C18.2416 2.26721 18.2821 2.30769 18.2821 2.35385V7.54364H7.65312V2.35385C7.65312 2.30769 7.6936 2.26721 7.73976 2.26721ZM7.65312 9.81101H18.2821V42.8568H7.65312V9.81101ZM77.7328 48.0698C77.7328 48.1159 77.6923 48.1564 77.6461 48.1564H2.35385C2.30769 48.1564 2.26721 48.1159 2.26721 48.0698V45.2107C2.26721 45.1645 2.30769 45.124 2.35385 45.124H77.6461C77.6923 45.124 77.7328 45.1645 77.7328 45.2107V48.0698ZM25.8338 32.9903H31.0194C31.9135 32.9903 32.6411 32.2628 32.6411 31.3686V26.183C32.6411 25.2887 31.9137 24.5613 31.0194 24.5613H25.8338C24.9396 24.5613 24.2121 25.2887 24.2121 26.183V31.3686C24.2121 32.2628 24.9396 32.9903 25.8338 32.9903ZM26.4794 26.8285H30.3738V30.7231H26.4794V26.8285ZM43.8554 32.9903H49.041C49.9352 32.9903 50.6627 32.2628 50.6627 31.3686V26.183C50.6627 25.2887 49.9352 24.5613 49.041 24.5613H43.8554C42.9613 24.5613 42.2337 25.2887 42.2337 26.183V31.3686C42.2337 32.2628 42.9613 32.9903 43.8554 32.9903ZM44.5009 26.8285H48.3953V30.7231H44.5009V26.8285ZM61.8769 32.9903H67.0625C67.9568 32.9903 68.6842 32.2628 68.6842 31.3686V26.183C68.6842 25.2887 67.9568 24.5613 67.0625 24.5613H61.8769C60.9828 24.5613 60.2552 25.2887 60.2552 26.183V31.3686C60.2554 32.2628 60.9828 32.9903 61.8769 32.9903ZM62.5226 26.8285H66.417V30.7231H62.5226V26.8285Z" fill="#1B48BD"/>
</svg>
