<svg width="43" height="80" viewBox="0 0 43 80" fill="none" xmlns="http://www.w3.org/2000/svg">
<path d="M29.116 25.7402C28.8446 25.1509 28.1403 24.8905 27.5435 25.1583C26.9465 25.4261 26.6825 26.1208 26.9539 26.71L29.6915 32.6536L18.4214 21.5317L19.1827 19.8791H23.8075L24.6443 21.6955C24.9155 22.2847 25.6198 22.5452 26.2167 22.2773C26.8138 22.0095 27.0777 21.3148 26.8063 20.7256L25.6644 18.2464C25.6388 18.1872 25.6084 18.1305 25.5734 18.0767C25.4795 17.9309 25.3563 17.8112 25.2154 17.7219C25.0743 17.632 24.9128 17.5709 24.7391 17.5467C24.6752 17.5377 24.6102 17.5336 24.5453 17.5353H18.4181C17.9524 17.5353 17.5297 17.8039 17.337 18.2222L7.45344 39.68C7.24855 40.1247 7.34466 40.6481 7.69474 40.9936L13.8737 47.0913C14.0964 47.3111 14.3985 47.4345 14.7134 47.4345H28.2768C28.5917 47.4345 28.8938 47.3111 29.1164 47.0913L35.2954 40.9936C35.6455 40.6483 35.7416 40.1247 35.5367 39.68L29.116 25.7402ZM9.95591 39.9106L11.8189 35.8661L21.1666 45.0908H15.2053L9.95591 39.9106ZM27.7848 45.0908H24.5254L12.8685 33.5873L14.5953 29.8383L28.918 43.9725L27.7848 45.0908ZM30.5975 42.3152L15.645 27.5595L17.3718 23.8105L32.4905 38.7302L33.0343 39.9105L30.5975 42.3152Z" fill="#1B48BD"/>
<path d="M43 32.4848V1.17188C43 0.524687 42.4683 0 41.8125 0C41.1567 0 40.625 0.524687 40.625 1.17188V27.0742C39.2758 25.8208 37.461 25.0503 35.4663 25.0503C35.1123 25.0503 34.7587 25.0764 34.4094 25.1248L29.9368 15.4147C29.1283 13.6594 27.3433 12.525 25.3894 12.525H17.6008C15.6469 12.525 13.8619 13.6592 13.0534 15.4147L8.58141 25.1236C8.23514 25.0761 7.88458 25.0503 7.53371 25.0503C5.53901 25.0503 3.72419 25.8208 2.37502 27.0742V1.17188C2.37502 0.524687 1.84333 0 1.18751 0C0.531687 0 0 0.524687 0 1.17188V32.4848C0 34.6583 0.959033 36.7005 2.60223 38.1047L2.46764 38.397C1.61074 40.2572 2.01892 42.4778 3.48304 43.9225L10.6558 51.0008C11.5991 51.9317 12.8536 52.4445 14.1879 52.4445H16.5V56.0892C16.5 56.1178 16.4606 56.1564 16.4085 56.1792C11.6808 58.2392 8.72993 62.8603 8.89096 67.952C9.09505 74.4081 14.5842 79.8106 21.1272 79.9948C21.2516 79.9983 21.3755 80 21.4994 80C24.8014 79.9998 27.9085 78.7581 30.2834 76.4805C32.7483 74.1166 34.1059 70.9469 34.1059 67.5555V64.9709C34.1336 64.9708 34.1595 64.9697 34.1876 64.9697C34.8434 64.9697 35.3751 64.445 35.3751 63.7978C35.3751 63.1506 34.8434 62.6259 34.1876 62.6259C27.9025 62.6259 27.0467 66.3928 26.5353 68.6434L26.4894 68.8442C26.0565 70.7308 24.4221 72.2267 22.4229 72.5669C20.8538 72.8336 19.2793 72.4048 18.1029 71.3906C16.926 70.3759 16.2836 68.9089 16.3401 67.3656C16.4391 64.6633 18.8823 62.4647 21.7865 62.4647C24.3803 62.4647 26.4905 60.3822 26.4905 57.8227V56.2828C26.4905 55.6356 25.9588 55.1109 25.303 55.1109C24.6471 55.1109 24.1154 55.6356 24.1154 56.2828V57.8227C24.1154 59.09 23.0706 60.1209 21.7865 60.1209C17.6193 60.1209 14.1112 63.333 13.9667 67.2809C13.8842 69.533 14.8222 71.6742 16.5401 73.1556C17.9249 74.3497 19.6822 74.9888 21.5047 74.9888C21.9428 74.9888 22.3849 74.9519 22.8261 74.8767C25.7602 74.3777 28.1633 72.1616 28.8056 69.3622L28.8527 69.1562C29.2287 67.5006 29.591 65.9169 31.7307 65.2728V67.5555C31.7307 70.3081 30.6289 72.8808 28.628 74.7997C26.6282 76.7177 23.9888 77.733 21.1948 77.652C15.8849 77.5025 11.4303 73.1183 11.2649 67.8789C11.1341 63.7464 13.5297 59.9956 17.3677 58.3233C18.2834 57.9244 18.8751 57.0475 18.8751 56.0894V52.4447H28.8026C30.1369 52.4447 31.3914 51.9319 32.3347 51.0009L39.5075 43.9227C40.9716 42.4778 41.3796 40.2573 40.5229 38.3972L40.391 38.1106C42.0381 36.7061 43 34.6614 43 32.4848ZM2.37486 32.4848C2.37486 29.6778 4.68908 27.3941 7.53356 27.3941H7.53545L3.64882 35.8322C2.8372 34.9153 2.37486 33.7319 2.37486 32.4848ZM37.828 42.2652L30.6553 49.3436C30.1605 49.8319 29.5025 50.1009 28.8025 50.1009H14.1877C13.4879 50.1009 12.8298 49.832 12.3349 49.3436L5.16218 42.2652C4.3941 41.5073 4.18019 40.3427 4.62954 39.3669L15.2153 16.3847C15.6395 15.4639 16.5757 14.8689 17.6006 14.8689H25.3892C26.4141 14.8689 27.3504 15.4639 27.7746 16.3847L38.3603 39.3669C38.81 40.3425 38.5959 41.5073 37.828 42.2652ZM39.3447 35.8397L35.4547 27.3944C35.4585 27.3944 35.4625 27.3941 35.4663 27.3941C38.3108 27.3941 40.625 29.6778 40.625 32.4848C40.625 33.7352 40.1604 34.9217 39.3447 35.8397Z" fill="#1B48BD"/>
</svg>
