<svg width="80" height="80" viewBox="0 0 80 80" fill="none" xmlns="http://www.w3.org/2000/svg">
<path d="M76.4844 46.1084H69.1211C65.4594 46.1084 62.4805 49.0873 62.4805 52.7491V53.6247C61.7917 53.9284 61.1034 54.1694 59.8172 54.1694C58.3522 54.1694 57.6628 53.8561 56.8645 53.4931C56.2808 53.2277 55.6188 52.9269 54.6855 52.7541C54.5803 52.7345 54.5048 52.653 54.492 52.538L54.4844 52.4762C54.3173 51.2002 53.5639 50.1761 52.8992 49.2725C52.4542 48.6673 52.0338 48.0959 51.8888 47.5867C51.7189 46.99 51.7733 46.2325 51.8309 45.4305C51.9122 44.3005 51.9961 43.132 51.4945 42.052C50.957 40.8942 49.9275 40.1502 49.0191 39.4934C48.4045 39.0492 47.8242 38.6295 47.5217 38.1792C47.1822 37.6736 47.0042 36.9386 46.8153 36.1605C46.5613 35.1123 46.2733 33.9242 45.4719 33.0398C44.635 32.1159 43.4583 31.7002 42.4202 31.3334C41.6914 31.0759 41.0031 30.8327 40.5863 30.4753C40.1081 30.0658 39.7416 29.3784 39.3531 28.6508C38.837 27.6838 38.3034 26.6839 37.3617 26.0333C36.3338 25.3233 35.1061 25.1592 34.0231 25.0144C33.2617 24.9127 32.5423 24.8166 32.0961 24.5577C31.4556 24.1863 30.9181 23.473 30.3983 22.7831C29.7978 21.9862 29.177 21.1623 28.2967 20.6981C28.127 20.6086 27.9516 20.5261 27.7694 20.45L29.5092 17.4366C30.4784 15.7577 29.9011 13.6034 28.2223 12.6342L26.0489 11.3794C25.7795 11.2239 25.4597 11.182 25.1597 11.2622C24.8595 11.3427 24.6034 11.5391 24.4481 11.8083L23.8206 12.895L19.8825 10.6213C19.3217 10.2975 18.605 10.4897 18.2817 11.0502C17.9581 11.6106 18.1502 12.3273 18.7106 12.6509L22.6488 14.9247L21.3939 17.098L2.34375 6.09891V3.20172L13.8403 9.83937C14.4005 10.163 15.1175 9.97109 15.4411 9.41047C15.7647 8.85 15.5727 8.13328 15.0122 7.80969L1.75781 0.157031C1.39531 -0.0523438 0.948438 -0.0523438 0.585938 0.157031C0.223438 0.366406 0 0.753125 0 1.17188V20.788C0 21.2066 0.223438 21.5934 0.585938 21.8028L14.1545 29.6372L13.5275 30.7231C13.2039 31.2836 13.3959 32.0003 13.9564 32.3239L16.058 33.5373C16.6233 33.8638 17.2409 34.0187 17.8512 34.0187C19.0959 34.0187 20.3083 33.3733 20.9739 32.2202L21.6009 31.1341L32.5484 37.4544C33.8514 38.2066 35.0814 39.0938 36.2044 40.0913C36.6883 40.5211 37.4289 40.477 37.8587 39.9934C38.2886 39.5095 38.2448 38.7689 37.7608 38.3391C36.5197 37.2364 35.16 36.2559 33.7203 35.4247L22.7728 29.1044L26.5827 22.5055C26.807 22.5828 27.013 22.6711 27.2033 22.7716C27.6203 22.9916 28.0605 23.5756 28.5264 24.1939C29.1559 25.0292 29.8695 25.9761 30.9202 26.5855C31.7698 27.0783 32.7575 27.2103 33.7127 27.3378C34.6139 27.4583 35.465 27.572 36.0295 27.962C36.5033 28.2894 36.8831 29.0011 37.2853 29.7547C37.7366 30.6003 38.248 31.5588 39.0608 32.2553C39.8097 32.897 40.7397 33.2258 41.6391 33.5436C42.4909 33.8447 43.2956 34.1289 43.735 34.6141C44.1358 35.0566 44.3308 35.8611 44.5375 36.7131C44.7556 37.613 45.003 38.633 45.5758 39.4863C46.1116 40.2842 46.8916 40.8481 47.6459 41.3934C48.3877 41.9297 49.0883 42.4362 49.3686 43.0398C49.6145 43.5697 49.5555 44.3923 49.493 45.2633C49.4266 46.1875 49.3514 47.2352 49.6345 48.2294C49.8952 49.1448 50.4625 49.9161 51.0111 50.6619C51.5564 51.4031 52.0714 52.1034 52.1611 52.7877L52.1633 52.8055C52.29 53.9448 53.1319 54.8505 54.2584 55.0591C54.9098 55.1797 55.3663 55.3872 55.8947 55.6273C56.8086 56.0428 57.8445 56.5136 59.8172 56.5136C60.9712 56.5136 61.8045 56.3528 62.4805 56.1362V61.2261C62.4805 63.5955 60.553 65.523 58.1836 65.523H35.1466C32.7772 65.523 30.8497 63.5955 30.8497 61.2261V56.4133C31.3053 56.4813 31.7866 56.5136 32.3142 56.5136C34.2877 56.5136 35.3239 56.0427 36.2381 55.6272C37.0364 55.2644 37.7258 54.9511 39.1906 54.9511C40.6555 54.9511 41.345 55.2645 42.1431 55.6273C42.2833 55.6911 42.405 55.7464 42.5392 55.8047C43.3855 56.1731 44.3989 56.5134 46.0656 56.5134C46.6084 56.5134 47.098 56.4789 47.5627 56.408C48.2023 56.3102 48.6417 55.7122 48.5439 55.0725C48.4461 54.4327 47.8473 53.9933 47.2083 54.0911C46.8622 54.1441 46.4884 54.1697 46.0656 54.1697C45.9577 54.1697 45.8541 54.168 45.7541 54.1645C45.8148 53.8945 45.8281 53.6122 45.7886 53.3298C45.2594 49.5417 43.8277 45.8755 41.648 42.7272C41.2797 42.195 40.5497 42.0625 40.0173 42.4308C39.4853 42.7992 39.3525 43.5292 39.7211 44.0614C41.6931 46.91 42.9886 50.227 43.4695 53.6534C43.3491 53.6009 43.2311 53.5472 43.113 53.4936C42.1991 53.0781 41.1631 52.6072 39.1905 52.6072C37.2181 52.6072 36.1822 53.078 35.2681 53.4933C34.4695 53.8563 33.7798 54.1697 32.3139 54.1697C31.697 54.1697 31.2269 54.1134 30.8494 54.0327V52.7494C30.8494 49.0877 27.8705 46.1087 24.2088 46.1087H3.51562C1.57719 46.1087 0 47.6858 0 49.6244V65.6323C0 66.2795 0.524531 66.8042 1.17188 66.8042C1.81922 66.8042 2.34375 66.2795 2.34375 65.6323V49.6241C2.34375 48.9778 2.86937 48.4522 3.51562 48.4522H24.2091C26.5784 48.4522 28.5059 50.3797 28.5059 52.7491V61.2256C28.5059 64.8873 31.4848 67.8662 35.1466 67.8662H58.1838C61.8455 67.8662 64.8244 64.8873 64.8244 61.2256C64.8253 56.7723 64.8247 56.2044 64.8244 52.7491C64.8244 50.3797 66.7519 48.4522 69.1213 48.4522H76.4844C77.1306 48.4522 77.6562 48.9778 77.6562 49.6241V76.4844C77.6562 77.1306 77.1306 77.6562 76.4844 77.6562H3.51562C2.86937 77.6562 2.34375 77.1306 2.34375 76.4844V71.1006C2.34375 70.4534 1.81922 69.9287 1.17188 69.9287C0.524531 69.9287 0 70.4534 0 71.1006V76.4844C0 78.423 1.57719 80 3.51562 80H76.4844C78.4228 80 80 78.423 80 76.4844V49.6241C80 47.6855 78.4228 46.1084 76.4844 46.1084ZM2.34375 20.1114V8.80531L20.222 19.128L15.3264 27.6075L2.34375 20.1114ZM17.2298 31.5075L16.1431 30.88L25.8917 13.995L27.0503 14.6639C27.61 14.987 27.8023 15.7052 27.4794 16.2647C27.4014 16.3997 19.9859 29.2434 18.9442 31.048C18.5981 31.6475 17.8294 31.8536 17.2298 31.5075Z" fill="#1B48BD"/>
<path d="M12.0508 59.4141C12.0508 57.4297 10.4364 55.8155 8.45219 55.8155C6.46797 55.8155 4.85344 57.4297 4.85344 59.4141C4.85344 61.3984 6.46781 63.0127 8.45203 63.0127C10.4362 63.0127 12.0508 61.3984 12.0508 59.4141ZM8.45219 60.6689C7.76016 60.6689 7.19734 60.1059 7.19734 59.4141C7.19734 58.7222 7.76031 58.1592 8.45219 58.1592C9.14406 58.1592 9.70703 58.7222 9.70703 59.4141C9.70703 60.1059 9.14406 60.6689 8.45219 60.6689Z" fill="#1B48BD"/>
<path d="M26.6112 66.6944C26.6112 64.71 24.9969 63.0958 23.0127 63.0958C21.0284 63.0958 19.4141 64.7102 19.4141 66.6944C19.4141 68.6786 21.0284 70.293 23.0127 70.293C24.9969 70.293 26.6112 68.6786 26.6112 66.6944ZM21.7578 66.6944C21.7578 66.0025 22.3208 65.4395 23.0127 65.4395C23.7045 65.4395 24.2675 66.0025 24.2675 66.6944C24.2675 67.3862 23.7045 67.9492 23.0127 67.9492C22.3208 67.9492 21.7578 67.3862 21.7578 66.6944Z" fill="#1B48BD"/>
<path d="M71.5478 72.7197C73.532 72.7197 75.1464 71.1053 75.1464 69.1211C75.1464 67.1369 73.532 65.5225 71.5478 65.5225C69.5636 65.5225 67.9492 67.1369 67.9492 69.1211C67.9492 71.1053 69.5636 72.7197 71.5478 72.7197ZM71.5478 67.8662C72.2398 67.8662 72.8027 68.4292 72.8027 69.1211C72.8027 69.813 72.2397 70.3759 71.5478 70.3759C70.8559 70.3759 70.293 69.813 70.293 69.1211C70.293 68.4292 70.8559 67.8662 71.5478 67.8662Z" fill="#1B48BD"/>
<path d="M69.1211 60.5859C69.7683 60.5859 70.293 60.0613 70.293 59.4141C70.293 58.7669 69.7683 58.2422 69.1211 58.2422C68.4739 58.2422 67.9492 58.7669 67.9492 59.4141C67.9492 60.0613 68.4739 60.5859 69.1211 60.5859Z" fill="#1B48BD"/>
<path d="M73.9747 55.7325C74.6219 55.7325 75.1466 55.2078 75.1466 54.5606C75.1466 53.9134 74.6219 53.3887 73.9747 53.3887C73.3275 53.3887 72.8028 53.9134 72.8028 54.5606C72.8028 55.2078 73.3275 55.7325 73.9747 55.7325Z" fill="#1B48BD"/>
<path d="M54.5606 72.7197C55.2078 72.7197 55.7325 72.195 55.7325 71.5478C55.7325 70.9006 55.2078 70.3759 54.5606 70.3759C53.9134 70.3759 53.3887 70.9006 53.3887 71.5478C53.3887 72.195 53.9134 72.7197 54.5606 72.7197Z" fill="#1B48BD"/>
<path d="M49.707 75.1466C50.3542 75.1466 50.8789 74.6219 50.8789 73.9747C50.8789 73.3275 50.3542 72.8028 49.707 72.8028C49.0598 72.8028 48.5352 73.3275 48.5352 73.9747C48.5352 74.6219 49.0598 75.1466 49.707 75.1466Z" fill="#1B48BD"/>
<path d="M35.1466 72.7197C35.7938 72.7197 36.3184 72.195 36.3184 71.5478C36.3184 70.9006 35.7938 70.3759 35.1466 70.3759C34.4994 70.3759 33.9747 70.9006 33.9747 71.5478C33.9747 72.195 34.4994 72.7197 35.1466 72.7197Z" fill="#1B48BD"/>
<path d="M18.1592 75.1466C18.8064 75.1466 19.3311 74.6219 19.3311 73.9747C19.3311 73.3275 18.8064 72.8028 18.1592 72.8028C17.512 72.8028 16.9873 73.3275 16.9873 73.9747C16.9873 74.6219 17.512 75.1466 18.1592 75.1466Z" fill="#1B48BD"/>
<path d="M18.113 63.0589C18.7602 63.0589 19.2848 62.5342 19.2848 61.887C19.2848 61.2398 18.7602 60.7152 18.113 60.7152C17.4658 60.7152 16.9411 61.2398 16.9411 61.887C16.9411 62.5342 17.4658 63.0589 18.113 63.0589Z" fill="#1B48BD"/>
<path d="M8.45219 74.935C9.0994 74.935 9.62406 74.4103 9.62406 73.7631C9.62406 73.1159 9.0994 72.5913 8.45219 72.5913C7.80498 72.5913 7.28031 73.1159 7.28031 73.7631C7.28031 74.4103 7.80498 74.935 8.45219 74.935Z" fill="#1B48BD"/>
<path d="M15.7325 55.7325C16.3797 55.7325 16.9044 55.2078 16.9044 54.5606C16.9044 53.9134 16.3797 53.3887 15.7325 53.3887C15.0853 53.3887 14.5606 53.9134 14.5606 54.5606C14.5606 55.2078 15.0853 55.7325 15.7325 55.7325Z" fill="#1B48BD"/>
<path d="M33.9747 22.1787C34.6219 22.1787 35.1466 21.6541 35.1466 21.0069C35.1466 20.3597 34.6219 19.835 33.9747 19.835C33.3275 19.835 32.8028 20.3597 32.8028 21.0069C32.8028 21.6541 33.3275 22.1787 33.9747 22.1787Z" fill="#1B48BD"/>
<path d="M47.2803 30.9314C47.9275 30.9314 48.4522 30.4067 48.4522 29.7595C48.4522 29.1123 47.9275 28.5877 47.2803 28.5877C46.6331 28.5877 46.1084 29.1123 46.1084 29.7595C46.1084 30.4067 46.6331 30.9314 47.2803 30.9314Z" fill="#1B48BD"/>
<path d="M42.3786 23.4817C43.0258 23.4817 43.5505 22.9571 43.5505 22.3098C43.5505 21.6626 43.0258 21.138 42.3786 21.138C41.7314 21.138 41.2067 21.6626 41.2067 22.3098C41.2067 22.9571 41.7314 23.4817 42.3786 23.4817Z" fill="#1B48BD"/>
<path d="M54.5606 63.0127C55.2078 63.0127 55.7325 62.488 55.7325 61.8408C55.7325 61.1936 55.2078 60.6689 54.5606 60.6689C53.9134 60.6689 53.3887 61.1936 53.3887 61.8408C53.3887 62.488 53.9134 63.0127 54.5606 63.0127Z" fill="#1B48BD"/>
<path d="M47.2803 60.5859C47.9275 60.5859 48.4522 60.0613 48.4522 59.4141C48.4522 58.7669 47.9275 58.2422 47.2803 58.2422C46.6331 58.2422 46.1084 58.7669 46.1084 59.4141C46.1084 60.0613 46.6331 60.5859 47.2803 60.5859Z" fill="#1B48BD"/>
<path d="M37.5733 63.0127C38.2205 63.0127 38.7452 62.488 38.7452 61.8408C38.7452 61.1936 38.2205 60.6689 37.5733 60.6689C36.9261 60.6689 36.4014 61.1936 36.4014 61.8408C36.4014 62.488 36.9261 63.0127 37.5733 63.0127Z" fill="#1B48BD"/>
</svg>
