<svg width="65" height="70" viewBox="0 0 65 70" fill="none" xmlns="http://www.w3.org/2000/svg">
<path d="M10.0794 48.6625H5.70694C5.45574 48.6625 5.21483 48.7633 5.03721 48.9428C4.85959 49.1223 4.7598 49.3657 4.7598 49.6195V54.0373C4.7598 54.2911 4.85959 54.5346 5.03721 54.714C5.21483 54.8935 5.45574 54.9943 5.70694 54.9943H10.0794C10.3306 54.9943 10.5715 54.8935 10.7491 54.714C10.9267 54.5346 11.0265 54.2911 11.0265 54.0373V49.6197C11.0265 49.494 11.002 49.3695 10.9544 49.2534C10.9069 49.1373 10.8371 49.0317 10.7491 48.9429C10.6612 48.854 10.5568 48.7835 10.4418 48.7354C10.3269 48.6873 10.2038 48.6625 10.0794 48.6625ZM9.13222 53.0803H6.65435V50.577H9.13222V53.0803ZM10.0794 38.6137H5.70694C5.45574 38.6137 5.21483 38.7145 5.03721 38.894C4.85959 39.0735 4.7598 39.3169 4.7598 39.5707V43.9887C4.7598 44.2425 4.85959 44.4859 5.03721 44.6654C5.21483 44.8449 5.45574 44.9457 5.70694 44.9457H10.0794C10.3306 44.9457 10.5715 44.8449 10.7491 44.6654C10.9267 44.4859 11.0265 44.2425 11.0265 43.9887V39.571C11.0265 39.4453 11.0021 39.3208 10.9545 39.2047C10.9069 39.0886 10.8371 38.983 10.7492 38.8941C10.6612 38.8052 10.5568 38.7347 10.4419 38.6866C10.3269 38.6385 10.2038 38.6137 10.0794 38.6137ZM9.13222 43.0316H6.65435V40.5282H9.13222V43.0316ZM10.0794 58.711H5.70694C5.45574 58.711 5.21483 58.8119 5.03721 58.9913C4.85959 59.1708 4.7598 59.4142 4.7598 59.6681V64.086C4.7598 64.3398 4.85959 64.5832 5.03721 64.7627C5.21483 64.9422 5.45574 65.043 5.70694 65.043H10.0794C10.3306 65.043 10.5715 64.9422 10.7491 64.7627C10.9267 64.5832 11.0265 64.3398 11.0265 64.086V59.6683C11.0265 59.5426 11.0021 59.4182 10.9545 59.302C10.9069 59.1859 10.8371 59.0803 10.7492 58.9914C10.6612 58.9025 10.5568 58.832 10.4419 58.7839C10.3269 58.7358 10.2038 58.711 10.0794 58.711ZM9.13222 63.129H6.65435V60.6256H9.13222V63.129ZM41.318 51.8286C41.318 52.0825 41.2182 52.3259 41.0406 52.5054C40.863 52.6848 40.6221 52.7857 40.3709 52.7857H13.9797C13.7285 52.7857 13.4876 52.6848 13.31 52.5054C13.1323 52.3259 13.0325 52.0825 13.0325 51.8286C13.0325 51.5748 13.1323 51.3314 13.31 51.1519C13.4876 50.9724 13.7285 50.8716 13.9797 50.8716H40.3702C40.4946 50.8716 40.6178 50.8963 40.7327 50.9444C40.8477 50.9925 40.9521 51.0629 41.0401 51.1518C41.1281 51.2407 41.1979 51.3462 41.2455 51.4623C41.2931 51.5785 41.3176 51.7029 41.3176 51.8286H41.318ZM25.7769 31.2237C26.9276 31.2237 28.0525 30.8789 29.0093 30.2329C29.9661 29.5869 30.7118 28.6688 31.1522 27.5945C31.5925 26.5203 31.7078 25.3383 31.4833 24.1979C31.2588 23.0575 30.7046 22.01 29.891 21.1878C29.0773 20.3656 28.0406 19.8057 26.912 19.5789C25.7833 19.352 24.6135 19.4685 23.5504 19.9134C22.4873 20.3584 21.5786 21.1119 20.9393 22.0787C20.3 23.0454 19.9587 24.1821 19.9587 25.3448C19.9605 26.9034 20.5741 28.3977 21.6648 29.4998C22.7555 30.6019 24.2344 31.2219 25.7769 31.2237ZM25.7769 21.38C26.553 21.38 27.3116 21.6125 27.9569 22.0482C28.6022 22.4838 29.1051 23.103 29.4021 23.8275C29.6991 24.552 29.7768 25.3492 29.6254 26.1183C29.474 26.8874 29.1003 27.5939 28.5515 28.1484C28.0027 28.7028 27.3036 29.0805 26.5424 29.2334C25.7812 29.3864 24.9923 29.3079 24.2753 29.0078C23.5583 28.7077 22.9455 28.1995 22.5143 27.5475C22.0831 26.8955 21.853 26.129 21.853 25.3448C21.8542 24.2936 22.268 23.2859 23.0036 22.5427C23.7392 21.7994 24.7366 21.3814 25.7769 21.3804V21.38ZM39.3309 61.8773C39.3309 62.1311 39.2311 62.3745 39.0535 62.554C38.8759 62.7335 38.635 62.8343 38.3838 62.8343H13.9797C13.7285 62.8343 13.4876 62.7335 13.31 62.554C13.1323 62.3745 13.0325 62.1311 13.0325 61.8773C13.0325 61.6235 13.1323 61.38 13.31 61.2006C13.4876 61.0211 13.7285 60.9203 13.9797 60.9203H38.3835C38.5079 60.9202 38.6311 60.945 38.746 60.993C38.861 61.0411 38.9654 61.1116 39.0534 61.2005C39.1414 61.2893 39.2112 61.3949 39.2588 61.511C39.3064 61.6271 39.3309 61.7516 39.3309 61.8773ZM14.8584 27.7304L16.6579 28.2171C16.8295 28.774 17.0509 29.314 17.3192 29.8304L16.389 31.4573C16.2971 31.6179 16.2535 31.8019 16.2632 31.9871C16.273 32.1723 16.3358 32.3506 16.444 32.5004C17.0719 33.3719 17.8302 34.1394 18.6917 34.7752C18.8398 34.8843 19.0161 34.9476 19.1991 34.9575C19.3821 34.9674 19.564 34.9235 19.7228 34.831L21.3375 33.8905C21.8486 34.1616 22.383 34.3853 22.9341 34.5588L23.4158 36.3771C23.4633 36.5567 23.5616 36.7184 23.6985 36.8424C23.8355 36.9665 24.0052 37.0476 24.187 37.0758C24.7154 37.158 25.2491 37.1994 25.7837 37.1996C26.3145 37.1998 26.8445 37.1582 27.3689 37.0752C27.5501 37.0467 27.7191 36.9656 27.8556 36.8418C27.992 36.718 28.09 36.5569 28.1376 36.378L28.6194 34.5596C29.1694 34.3862 29.7027 34.1626 30.2126 33.8917L31.8274 34.8321C31.9862 34.9246 32.1682 34.9686 32.3513 34.9586C32.5344 34.9487 32.7107 34.8853 32.8588 34.776C33.7232 34.1406 34.4834 33.3719 35.1118 32.4982C35.2194 32.3485 35.2817 32.1706 35.2913 31.9859C35.3009 31.8012 35.2574 31.6177 35.1659 31.4575L34.2357 29.8305C34.504 29.3141 34.7253 28.7741 34.8969 28.2172L36.6965 27.7305C36.8742 27.6825 37.0341 27.5832 37.1569 27.4448C37.2797 27.3064 37.3599 27.1349 37.3878 26.9512C37.5514 25.8859 37.5514 24.8014 37.3878 23.736C37.3595 23.5529 37.2791 23.382 37.1564 23.2441C37.0338 23.1062 36.8741 23.0073 36.6969 22.9593L34.8973 22.4726C34.7249 21.9164 34.5034 21.3769 34.2357 20.8606L35.1666 19.2318C35.2586 19.0709 35.3022 18.8863 35.2921 18.7008C35.282 18.5152 35.2187 18.3366 35.1098 18.1868C34.4804 17.3155 33.7208 16.5484 32.8583 15.9127C32.7102 15.804 32.5341 15.741 32.3512 15.7313C32.1684 15.7216 31.9868 15.7656 31.8282 15.858L30.218 16.7981C29.707 16.5269 29.1726 16.3033 28.6214 16.1298L28.1397 14.3115C28.0922 14.132 27.9939 13.9703 27.857 13.8463C27.72 13.7223 27.5503 13.6412 27.3685 13.613C26.3141 13.4477 25.2408 13.4477 24.1864 13.613C24.0051 13.6416 23.836 13.7229 23.6996 13.8468C23.5631 13.9707 23.4653 14.132 23.4178 14.3111L22.9361 16.1294C22.385 16.3029 21.8506 16.5267 21.3395 16.798L19.7249 15.8574C19.5658 15.7646 19.3834 15.7207 19.2 15.7308C19.0166 15.741 18.84 15.8048 18.6919 15.9145C17.8302 16.5504 17.072 17.3182 16.4446 18.1902C16.337 18.3398 16.2746 18.5178 16.265 18.7025C16.2554 18.8872 16.2989 19.0708 16.3904 19.231L17.3207 20.858C17.0523 21.3744 16.831 21.9144 16.6594 22.4713L14.8599 22.958C14.6822 23.006 14.5222 23.1053 14.3994 23.2437C14.2766 23.382 14.1964 23.5536 14.1684 23.7373C14.0047 24.8027 14.0047 25.8872 14.1684 26.9526C14.1965 27.1358 14.2767 27.3069 14.3991 27.445C14.5216 27.5831 14.6812 27.6822 14.8584 27.7304ZM15.9679 24.6406L17.6683 24.1805C17.8318 24.1363 17.9806 24.0487 18.0992 23.9267C18.2178 23.8047 18.3019 23.6529 18.3428 23.4869C18.527 22.7337 18.8226 22.0128 19.2196 21.3487C19.3074 21.202 19.3546 21.0343 19.3564 20.8629C19.3581 20.6915 19.3143 20.5228 19.2294 20.3744L18.3485 18.8334C18.6482 18.4753 18.9769 18.1429 19.3312 17.8398L20.8582 18.7294C21.0051 18.815 21.172 18.8592 21.3415 18.8574C21.511 18.8556 21.6769 18.8078 21.8219 18.7192C22.4792 18.318 23.1926 18.0194 23.9381 17.8332C24.1023 17.792 24.2526 17.707 24.3733 17.5872C24.494 17.4673 24.5808 17.317 24.6245 17.1518L25.0799 15.4327C25.5437 15.3946 26.0098 15.3949 26.4736 15.4337L26.9289 17.1518C26.9726 17.317 27.0594 17.4673 27.1801 17.5872C27.3008 17.707 27.4511 17.792 27.6153 17.8332C28.3607 18.0194 29.0741 18.3181 29.7313 18.7192C29.8765 18.8079 30.0425 18.8556 30.2121 18.8574C30.3817 18.8592 30.5487 18.8149 30.6955 18.7291L32.2203 17.8394C32.5747 18.1434 32.9036 18.4765 33.2036 18.8354L32.3241 20.3745C32.2396 20.5224 32.1958 20.6903 32.1972 20.861C32.1986 21.0317 32.2452 21.1989 32.3321 21.3452C32.7284 22.0111 33.0246 22.7328 33.2109 23.4867C33.2517 23.6526 33.3358 23.8044 33.4544 23.9263C33.5729 24.0483 33.7217 24.1359 33.8851 24.1801L35.5865 24.6403C35.6244 25.1089 35.6241 25.5799 35.5855 26.0485L33.885 26.5085C33.7216 26.5528 33.5729 26.6405 33.4544 26.7624C33.3359 26.8844 33.2518 27.0361 33.2109 27.202C33.0265 27.9552 32.7309 28.676 32.334 29.3403C32.2462 29.4869 32.1989 29.6546 32.1972 29.8259C32.1954 29.9973 32.2393 30.166 32.3241 30.3144L33.2048 31.8556C32.9046 32.2143 32.5751 32.5469 32.2199 32.8499L30.6909 31.9596C30.5441 31.8741 30.3773 31.8299 30.2078 31.8318C30.0383 31.8336 29.8724 31.8813 29.7274 31.97C29.0714 32.3709 28.3594 32.6695 27.6153 32.856C27.4511 32.8972 27.3008 32.9822 27.1801 33.102C27.0594 33.2218 26.9726 33.3721 26.9289 33.5372L26.4733 35.2565C26.0095 35.295 25.5434 35.2947 25.0797 35.2555L24.6248 33.5372C24.581 33.372 24.4943 33.2217 24.3736 33.1019C24.2529 32.9821 24.1026 32.8971 23.9384 32.8558C23.1929 32.6696 22.4795 32.3709 21.8222 31.9699C21.6772 31.8812 21.5113 31.8334 21.3417 31.8316C21.1722 31.8298 21.0054 31.8739 20.8585 31.9595L19.3308 32.8495C18.977 32.5462 18.6488 32.2138 18.3494 31.8556L19.2298 30.3152C19.3147 30.1668 19.3585 29.9981 19.3568 29.8267C19.355 29.6553 19.3078 29.4876 19.22 29.3409C18.823 28.6768 18.5274 27.956 18.3432 27.2028C18.3023 27.0369 18.2183 26.885 18.0997 26.763C17.9811 26.6411 17.8323 26.5534 17.6688 26.5092L15.9675 26.0489C15.9294 25.5803 15.9297 25.1093 15.9683 24.6407L15.9679 24.6406ZM13.0317 41.7798C13.0317 41.526 13.1315 41.2826 13.3091 41.1031C13.4868 40.9236 13.7277 40.8228 13.9789 40.8228H45.8462C46.0974 40.8228 46.3383 40.9236 46.5159 41.1031C46.6935 41.2826 46.7933 41.526 46.7933 41.7798C46.7933 42.0337 46.6935 42.2771 46.5159 42.4566C46.3383 42.636 46.0974 42.7369 45.8462 42.7369H13.9797C13.8553 42.7369 13.7321 42.7122 13.6172 42.6641C13.5022 42.616 13.3978 42.5456 13.3098 42.4567C13.2219 42.3678 13.1521 42.2624 13.1044 42.1462C13.0568 42.0301 13.0323 41.9057 13.0323 41.78L13.0317 41.7798ZM64.8648 27.7078C64.6666 26.9584 64.2529 26.2853 63.6759 25.7736C63.099 25.2619 62.3848 24.9347 61.6237 24.8334C60.8626 24.732 60.0889 24.8611 59.4004 25.2043C58.712 25.5474 58.1398 26.0893 57.7562 26.7612L55.4697 30.7618C55.4636 30.7717 55.4562 30.7807 55.4511 30.7908C55.4461 30.8009 55.4407 30.8119 55.4352 30.8223L51.5507 37.6217V11.3567C51.5459 10.2679 51.1156 9.22505 50.3534 8.45531C49.5912 7.68556 48.5589 7.25126 47.4813 7.24698H38.9131V5.83646C38.9124 5.3498 38.7204 4.88334 38.3795 4.5396C38.0386 4.19586 37.5765 4.00298 37.0948 4.00334H30.5792C30.3638 2.87652 29.7669 1.86062 28.8909 1.1301C28.015 0.399571 26.9146 0 25.7789 0C24.6431 0 23.5427 0.399571 22.6668 1.1301C21.7908 1.86062 21.1939 2.87652 20.9785 4.00334H14.4552C13.9737 4.00439 13.5123 4.19839 13.1722 4.54277C12.8321 4.88715 12.6411 5.35379 12.6411 5.84029V7.24698H4.06717C2.99005 7.25334 1.95888 7.68865 1.19743 8.45846C0.435988 9.22826 0.00571712 10.2704 0 11.3588V65.8924C0.00822442 66.98 0.439729 68.0206 1.20122 68.7892C1.96271 69.5579 2.993 69.9928 4.06933 70H47.4851C48.562 69.9934 49.5928 69.5579 50.354 68.7881C51.1151 68.0183 51.5451 66.9763 51.5507 65.8882V53.3141L64.4782 30.6843C64.7347 30.2388 64.9009 29.7463 64.9673 29.2353C65.0337 28.7243 64.9988 28.2051 64.8648 27.7078ZM14.5358 5.91781H21.8381C22.0893 5.91781 22.3302 5.81698 22.5079 5.6375C22.6855 5.45802 22.7853 5.2146 22.7853 4.96078V4.93754C22.7853 4.13536 23.1006 3.36603 23.662 2.79881C24.2234 2.23158 24.9848 1.91292 25.7787 1.91292C26.5725 1.91292 27.3339 2.23158 27.8953 2.79881C28.4567 3.36603 28.772 4.13536 28.772 4.93754V4.96078C28.772 5.2146 28.8718 5.45802 29.0494 5.6375C29.2271 5.81698 29.468 5.91781 29.7192 5.91781H37.0188V9.4986H14.5358V5.91781ZM49.6554 65.886C49.6522 66.468 49.4221 67.0253 49.0151 67.437C48.608 67.8488 48.0568 68.082 47.4808 68.0859H4.07353C3.49769 68.0818 2.94655 67.8491 2.53901 67.438C2.13146 67.0269 1.9002 66.4704 1.8951 65.8886V11.3632C1.89811 10.781 2.12805 10.2235 2.53509 9.81146C2.94212 9.39944 3.49346 9.16609 4.0696 9.162H12.6415V9.58418C12.6475 10.068 12.8406 10.5303 13.1795 10.872C13.5185 11.2138 13.9763 11.408 14.4552 11.4131H37.1024C37.582 11.4067 38.04 11.2109 38.3784 10.8676C38.7168 10.5242 38.9087 10.0607 38.9131 9.57612V9.16159H47.479C48.0552 9.16399 48.6071 9.3962 49.0147 9.80768C49.4223 10.2192 49.6526 10.7766 49.6554 11.3588V40.9375L42.4148 53.6094C42.3536 53.7165 42.3134 53.8346 42.2967 53.9572L41.2345 61.7467C41.2088 61.9352 41.2392 62.1273 41.3219 62.2982C41.4047 62.4692 41.536 62.6113 41.6991 62.7065C41.8622 62.8017 42.0497 62.8455 42.2376 62.8325C42.4255 62.8195 42.6053 62.7501 42.754 62.6333L48.9019 57.8084C48.9987 57.7325 49.0799 57.6383 49.1411 57.531L49.6553 56.6309L49.6554 65.886ZM43.9818 55.625L46.6274 57.1699L43.4288 59.6802L43.9818 55.625ZM49.8178 52.5171C49.7954 52.5513 49.7752 52.5868 49.7572 52.6235L47.9741 55.7447L44.531 53.7349L56.6192 32.5792L60.0598 34.589L49.8178 52.5171ZM62.8378 29.7262L61.007 32.9312L57.5665 30.9214L59.3968 27.7184C59.6608 27.2578 60.0947 26.9219 60.6035 26.7842C61.1123 26.6465 61.6544 26.7184 62.1108 26.984H62.1119C62.5668 27.2514 62.8985 27.6898 63.0346 28.2035C63.1706 28.7172 63.0998 29.2644 62.8378 29.7255V29.7262Z" fill="#1B48BD"/>
</svg>
