<svg width="77" height="70" viewBox="0 0 77 70" fill="none" xmlns="http://www.w3.org/2000/svg">
<path d="M36.3452 18.4995C36.3452 18.2198 36.4561 17.9515 36.6535 17.7538C36.8509 17.556 37.1187 17.4449 37.3979 17.4449H51.3204C51.5996 17.4449 51.8674 17.556 52.0648 17.7538C52.2622 17.9515 52.3731 18.2198 52.3731 18.4995C52.3731 18.7791 52.2622 19.0474 52.0648 19.2451C51.8674 19.4429 51.5996 19.554 51.3204 19.554H37.3979C37.1187 19.554 36.8509 19.4429 36.6535 19.2451C36.4561 19.0474 36.3452 18.7791 36.3452 18.4995ZM37.3979 24.6874H59.3861C59.6653 24.6874 59.9331 24.5763 60.1305 24.3785C60.3279 24.1808 60.4388 23.9125 60.4388 23.6329C60.4388 23.3532 60.3279 23.0849 60.1305 22.8872C59.9331 22.6894 59.6653 22.5783 59.3861 22.5783H37.3982C37.119 22.5783 36.8512 22.6894 36.6538 22.8872C36.4564 23.0849 36.3455 23.3532 36.3455 23.6329C36.3455 23.9125 36.4564 24.1808 36.6538 24.3785C36.8512 24.5763 37.119 24.6874 37.3982 24.6874H37.3979ZM37.3982 27.7064C37.119 27.7064 36.8512 27.8175 36.6538 28.0153C36.4564 28.2131 36.3455 28.4813 36.3455 28.761C36.3455 29.0407 36.4564 29.3089 36.6538 29.5066C36.8512 29.7044 37.119 29.8155 37.3982 29.8155H59.3861C59.6653 29.8155 59.9331 29.7044 60.1305 29.5066C60.3279 29.3089 60.4388 29.0407 60.4388 28.761C60.4388 28.4813 60.3279 28.2131 60.1305 28.0153C59.9331 27.8175 59.6653 27.7064 59.3861 27.7064H37.3982ZM37.3982 32.8351C37.119 32.8351 36.8512 32.9462 36.6538 33.144C36.4564 33.3418 36.3455 33.61 36.3455 33.8897C36.3455 34.1694 36.4564 34.4376 36.6538 34.6354C36.8512 34.8331 37.119 34.9442 37.3982 34.9442H59.3861C59.6653 34.9442 59.9331 34.8331 60.1305 34.6354C60.3279 34.4376 60.4388 34.1694 60.4388 33.8897C60.4388 33.61 60.3279 33.3418 60.1305 33.144C59.9331 32.9462 59.6653 32.8351 59.3861 32.8351H37.3982ZM70.3714 54.4252V64.1964C70.3696 65.735 69.7587 67.2102 68.6726 68.2982C67.5866 69.3862 66.1141 69.9982 64.5781 70H20.6451C19.1091 69.9982 17.6366 69.3862 16.5506 68.2982C15.4645 67.2102 14.8536 65.735 14.8518 64.1964V38.8904L0.364293 26.3391C0.259675 26.2485 0.173898 26.1382 0.111864 26.0144C0.0498306 25.8906 0.012755 25.7557 0.00275573 25.6176C-0.00724351 25.4794 0.0100296 25.3406 0.0535882 25.2091C0.0971468 25.0777 0.166137 24.9561 0.256618 24.8513L21.3961 0.364839C21.4866 0.260035 21.5967 0.174114 21.7203 0.111984C21.844 0.0498539 21.9786 0.0127339 22.1165 0.00274471C22.2545 -0.00724446 22.393 0.010093 22.5243 0.0537665C22.6555 0.0974401 22.7769 0.166594 22.8814 0.257275L30.4546 6.82033L44.0975 0.590362C44.2233 0.532877 44.3592 0.500788 44.4974 0.495927C44.6356 0.491066 44.7734 0.513529 44.9029 0.562033C45.0324 0.610536 45.1511 0.68413 45.2523 0.778609C45.3534 0.873088 45.435 0.986602 45.4923 1.11266L49.6278 10.202H56.1506C56.4298 10.2021 56.6976 10.3132 56.8952 10.511L65.293 18.9237C65.4905 19.1215 65.6014 19.3898 65.6015 19.6696V35.0283C68.0566 34.6882 70.5504 35.2711 72.6016 36.6646C74.6529 38.0581 76.1161 40.1635 76.709 42.5742C77.3018 44.985 76.9822 47.5303 75.8118 49.7188C74.6414 51.9074 72.7032 53.5841 70.3714 54.4252ZM63.4954 35.556V20.7244H58.0351C57.2564 20.7235 56.5098 20.4132 55.9592 19.8616C55.4086 19.31 55.0988 18.5621 55.0979 17.7821V12.3117H33.2889V33.512L37.2476 37.389C38.1448 38.2683 38.8525 38.8905 39.7938 38.8905H59.0046C60.1574 37.3768 61.7143 36.2208 63.4954 35.556ZM57.2034 17.7821C57.2037 18.0028 57.2913 18.2145 57.4471 18.3706C57.603 18.5267 57.8142 18.6145 58.0346 18.6147H62.0061L57.2034 13.804V17.7821ZM44.0128 2.94758L30.7704 8.99466C30.7307 9.01605 30.6897 9.03482 30.6476 9.05086L16.5277 15.4987L23.2362 30.2431H28.0753C29.3845 30.2431 30.3868 30.8401 31.1828 31.5025V11.2568C31.1828 10.9771 31.2937 10.7089 31.4911 10.5111C31.6885 10.3134 31.9563 10.2023 32.2355 10.2023H47.313L44.0128 2.94758ZM14.8518 36.1014V35.1963C14.8539 33.8824 15.3762 32.623 16.304 31.6943C17.2319 30.7657 18.4895 30.2436 19.8011 30.2428H20.9221L14.1753 15.4139C14.1179 15.2878 14.0859 15.1517 14.081 15.0133C14.0762 14.8749 14.0986 14.7368 14.1471 14.6071C14.1955 14.4774 14.2689 14.3584 14.3632 14.2571C14.4575 14.1558 14.5708 14.0742 14.6966 14.0167L28.3471 7.78299L22.3001 2.54263L2.53824 25.4342L14.8518 36.1014ZM68.2655 54.9338C66.8514 55.1206 65.4137 55.0024 64.0489 54.5873C62.6841 54.1721 61.4235 53.4695 60.3518 52.5266C59.2801 51.5836 58.422 50.4221 57.8349 49.1199C57.2478 47.8177 56.9453 46.4048 56.9476 44.9759C56.9465 43.6083 57.2258 42.2551 57.7683 41.0002H39.7935C37.9206 41.0002 36.6805 39.7846 35.7749 38.8973L31.527 34.7368C31.5078 34.7192 31.4891 34.7011 31.4712 34.6821L30.6259 33.8535C29.6968 32.9471 29.0168 32.352 28.0754 32.352H19.8011C19.0478 32.3523 18.3254 32.6519 17.7923 33.1851C17.2593 33.7184 16.9592 34.4416 16.9578 35.1963V64.1964C16.9589 65.1757 17.3477 66.1146 18.039 66.8071C18.7302 67.4996 19.6675 67.8892 20.6451 67.8903H64.5781C65.5558 67.8892 66.493 67.4997 67.1843 66.8072C67.8756 66.1147 68.2645 65.1757 68.2655 64.1964V54.9338ZM74.8943 44.9759C74.8943 43.4066 74.4298 41.8725 73.5596 40.5677C72.6893 39.2629 71.4523 38.2459 70.005 37.6453C68.5577 37.0447 66.9652 36.8876 65.4288 37.1937C63.8924 37.4999 62.4811 38.2555 61.3734 39.3652C60.2656 40.4748 59.5113 41.8886 59.2057 43.4277C58.9 44.9669 59.0569 46.5622 59.6564 48.012C60.2558 49.4619 61.271 50.7011 62.5735 51.5729C63.876 52.4448 65.4074 52.9101 66.9739 52.9101C69.0738 52.9077 71.0869 52.0711 72.5718 50.5836C74.0566 49.0962 74.8919 47.0794 74.8943 44.9759ZM72.3351 40.9888C72.2373 40.8908 72.1213 40.8131 71.9936 40.7601C71.8658 40.7071 71.7289 40.6799 71.5907 40.6799C71.4524 40.6799 71.3155 40.7071 71.1878 40.7601C71.0601 40.8131 70.944 40.8908 70.8463 40.9888L65.1197 46.7255L63.1018 44.7041C62.9044 44.5063 62.6366 44.3952 62.3574 44.3952C62.0782 44.3952 61.8104 44.5063 61.613 44.7041C61.4156 44.9019 61.3047 45.1701 61.3047 45.4498C61.3047 45.7295 61.4156 45.9977 61.613 46.1955L64.3754 48.9627C64.4732 49.0606 64.5892 49.1383 64.7169 49.1913C64.8447 49.2443 64.9816 49.2716 65.1198 49.2716C65.258 49.2716 65.395 49.2443 65.5227 49.1913C65.6504 49.1383 65.7664 49.0606 65.8642 48.9627L72.3351 42.4802C72.4328 42.3823 72.5104 42.266 72.5633 42.1381C72.6162 42.0101 72.6434 41.873 72.6434 41.7345C72.6434 41.596 72.6162 41.4588 72.5633 41.3309C72.5104 41.2029 72.4328 41.0867 72.3351 40.9888ZM62.63 61.3058H22.5932C22.314 61.3058 22.0462 61.417 21.8488 61.6147C21.6514 61.8125 21.5405 62.0807 21.5405 62.3604C21.5405 62.6401 21.6514 62.9083 21.8488 63.1061C22.0462 63.3038 22.314 63.4149 22.5932 63.4149H62.63C62.9092 63.4149 63.177 63.3038 63.3744 63.1061C63.5718 62.9083 63.6827 62.6401 63.6827 62.3604C63.6827 62.0807 63.5718 61.8125 63.3744 61.6147C63.177 61.417 62.9092 61.3058 62.63 61.3058ZM22.5932 56.2119H32.8626C33.1418 56.2119 33.4095 56.1008 33.6069 55.9031C33.8044 55.7053 33.9153 55.4371 33.9153 55.1574C33.9153 54.8777 33.8044 54.6095 33.6069 54.4117C33.4095 54.2139 33.1418 54.1028 32.8626 54.1028H22.5932C22.314 54.1028 22.0462 54.2139 21.8488 54.4117C21.6514 54.6095 21.5405 54.8777 21.5405 55.1574C21.5405 55.4371 21.6514 55.7053 21.8488 55.9031C22.0462 56.1008 22.314 56.2119 22.5932 56.2119Z" fill="#1B48BD"/>
</svg>
