<svg width="61" height="61" viewBox="0 0 61 61" fill="none" xmlns="http://www.w3.org/2000/svg">
<path d="M57.4258 32.8816H56.2344V24.5414C56.2344 21.2534 53.9257 18.4964 50.8447 17.8015L45.422 8.40878C44.6273 7.03229 43.3442 6.04755 41.8088 5.63613C40.7248 5.34578 39.607 5.3671 38.5588 5.68356L34.6157 1.74018C32.2955 -0.579942 28.5206 -0.580181 26.2003 1.74018L10.3105 17.6309H6.91016C3.09992 17.6309 0 20.731 0 24.5414V54.0895C0 57.8999 3.09992 61 6.91016 61H22.7559C23.4138 61 23.9473 60.4665 23.9473 59.8085C23.9473 59.1506 23.4138 58.6171 22.7559 58.6171H6.91016C4.4138 58.6171 2.38281 56.586 2.38281 54.0895V24.5414C2.38281 22.0449 4.4138 20.0138 6.91016 20.0138H49.3242C51.8206 20.0138 53.8516 22.0449 53.8516 24.5414V32.8816H45.0352C41.4877 32.8816 38.6016 35.7679 38.6016 39.3155C38.6016 42.863 41.4877 45.7493 45.0352 45.7493H53.8516V54.0895C53.8516 56.586 51.8206 58.6171 49.3242 58.6171H33.4785C32.8206 58.6171 32.2871 59.1506 32.2871 59.8085C32.2871 60.4665 32.8206 61 33.4785 61H49.3242C53.1345 61 56.2344 57.8999 56.2344 54.0895V45.7493H57.4258C59.3966 45.7493 61 44.1459 61 42.175V36.456C61 34.4852 59.3966 32.8816 57.4258 32.8816ZM41.1922 7.93791C42.1126 8.18455 42.882 8.77491 43.3585 9.60024L47.9949 17.6309H22.3142L38.4849 8.29428C39.3101 7.81793 40.2713 7.69116 41.1922 7.93791ZM27.8853 3.42526C28.5591 2.75138 29.4551 2.38024 30.408 2.38024C31.361 2.38024 32.2571 2.75138 32.9308 3.42526L36.3062 6.80079L17.5487 17.6309H13.6804L27.8853 3.42526ZM58.6172 42.175C58.6172 42.8319 58.0827 43.3664 57.4258 43.3664H45.0352C42.8015 43.3664 40.9844 41.5492 40.9844 39.3155C40.9844 37.0817 42.8015 35.2645 45.0352 35.2645H57.4258C58.0827 35.2645 58.6172 35.799 58.6172 36.456V42.175Z" fill="#1B48BD"/>
<path d="M44.8362 38.124C44.5229 38.124 44.2155 38.2514 43.9939 38.4731C43.7723 38.6948 43.6448 39.0009 43.6448 39.3155C43.6448 39.6288 43.7721 39.9362 43.9939 40.1577C44.2155 40.3793 44.5229 40.5069 44.8362 40.5069C45.1507 40.5069 45.4569 40.3794 45.6784 40.1577C45.9012 39.9362 46.0276 39.6288 46.0276 39.3155C46.0276 39.0021 45.9012 38.6947 45.6784 38.4731C45.4569 38.2515 45.1507 38.124 44.8362 38.124Z" fill="#1B48BD"/>
<path d="M28.1172 58.6171C27.8038 58.6171 27.4965 58.7444 27.2749 58.9662C27.0533 59.1879 26.9258 59.4952 26.9258 59.8085C26.9258 60.1219 27.0531 60.4293 27.2749 60.6508C27.4965 60.8724 27.8038 61 28.1172 61C28.4305 61 28.7379 60.8725 28.9594 60.6508C29.181 60.4293 29.3086 60.1219 29.3086 59.8085C29.3086 59.4952 29.1811 59.1878 28.9594 58.9662C28.7379 58.7446 28.4305 58.6171 28.1172 58.6171Z" fill="#1B48BD"/>
</svg>
