<svg width="72" height="69" viewBox="0 0 72 69" fill="none" xmlns="http://www.w3.org/2000/svg">
<path d="M1.17464 39.4575C1.14806 39.4594 1.12148 39.4605 1.09505 39.4605C0.8477 39.4603 0.609508 39.3686 0.427863 39.2037C0.246218 39.0388 0.134435 38.8128 0.114753 38.5707C0.0385345 37.6357 3.36723e-06 36.7127 3.36723e-06 35.8275C-0.00333351 28.4867 2.47351 21.3524 7.04231 15.5426C11.6111 9.7329 18.0136 5.57626 25.2462 3.72424L21.8571 1.8045C21.631 1.6763 21.4659 1.46511 21.3983 1.21739C21.3307 0.969678 21.366 0.705728 21.4966 0.483608C21.6271 0.261488 21.8421 0.0993941 22.0944 0.0329845C22.3466 -0.0334251 22.6154 0.00128973 22.8415 0.129492L28.4301 3.29651C28.5421 3.35998 28.6403 3.4445 28.719 3.54525C28.7978 3.646 28.8555 3.761 28.889 3.88368C28.9224 4.00636 28.931 4.13432 28.9141 4.26023C28.8972 4.38615 28.8552 4.50757 28.7905 4.61754L25.5656 10.1015C25.5009 10.2115 25.4149 10.3079 25.3123 10.3852C25.2097 10.4625 25.0927 10.5192 24.9678 10.552C24.7156 10.6184 24.4469 10.5837 24.2208 10.4555C23.9946 10.3273 23.8296 10.1161 23.762 9.86841C23.6944 9.62073 23.7298 9.35681 23.8603 9.13473L25.9753 5.53749C19.1113 7.24076 13.0224 11.1452 8.67377 16.6321C4.32511 22.119 1.96544 28.8744 1.96875 35.8275C1.96875 36.6614 2.00531 37.5326 2.07731 38.4164C2.08766 38.543 2.07252 38.6703 2.03275 38.7911C1.99299 38.912 1.92938 39.0239 1.84555 39.1206C1.76173 39.2173 1.65934 39.2968 1.54422 39.3546C1.4291 39.4124 1.30352 39.4474 1.17464 39.4575ZM71.7119 33.3273C71.6205 33.2375 71.512 33.1663 71.3926 33.1177C71.2731 33.0691 71.1451 33.0441 71.0158 33.0441C70.8866 33.0441 70.7586 33.0691 70.6391 33.1177C70.5197 33.1663 70.4112 33.2375 70.3197 33.3273L67.5473 36.0503C67.5473 35.9759 67.5473 35.9016 67.5473 35.8275C67.5466 28.0543 64.7671 20.5281 59.6938 14.5618C54.6204 8.59556 47.5753 4.56804 39.7875 3.18188C39.6602 3.15941 39.5297 3.16177 39.4034 3.18883C39.2771 3.2159 39.1574 3.26713 39.0513 3.33961C38.9451 3.41209 38.8545 3.50439 38.7847 3.61125C38.7149 3.71811 38.6672 3.83744 38.6443 3.96241C38.6214 4.08738 38.6238 4.21556 38.6514 4.33962C38.6789 4.46368 38.7311 4.58119 38.8049 4.68545C38.8787 4.78971 38.9727 4.87867 39.0815 4.94726C39.1903 5.01584 39.3118 5.06271 39.439 5.08518C46.7773 6.38076 53.4176 10.1708 58.1966 15.7914C62.9757 21.412 65.5888 28.5049 65.5783 35.8275C65.5783 35.9725 65.5772 36.1181 65.5751 36.2644L62.5878 33.3277C62.4964 33.2379 62.3878 33.1666 62.2684 33.118C62.1489 33.0693 62.0209 33.0443 61.8916 33.0443C61.7623 33.0442 61.6342 33.0692 61.5147 33.1178C61.3952 33.1663 61.2866 33.2375 61.1952 33.3273C61.1037 33.4171 61.0312 33.5237 60.9816 33.641C60.9321 33.7583 60.9066 33.8841 60.9066 34.0111C60.9065 34.1381 60.9319 34.2638 60.9814 34.3812C61.0308 34.4986 61.1033 34.6052 61.1948 34.695L65.7548 39.1775C65.8462 39.2674 65.9547 39.3387 66.0742 39.3874C66.1936 39.436 66.3217 39.4611 66.451 39.4611C66.5803 39.4611 66.7084 39.4361 66.8278 39.3875C66.9473 39.3389 67.0558 39.2676 67.1473 39.1778L71.7111 34.6954C71.8027 34.6057 71.8753 34.499 71.9249 34.3817C71.9744 34.2643 72 34.1385 72 34.0114C72 33.8844 71.9745 33.7585 71.925 33.6412C71.8755 33.5238 71.8029 33.4171 71.7114 33.3273H71.7119ZM63.8583 48.6941C63.7414 48.6398 63.6148 48.6087 63.4856 48.6025C63.3565 48.5963 63.2274 48.6152 63.1057 48.658C62.9839 48.7009 62.872 48.7668 62.7762 48.8522C62.6805 48.9375 62.6028 49.0405 62.5476 49.1554C57.3151 60.0342 46.0207 67.0636 33.7737 67.0636C22.2814 67.0636 11.5942 60.846 6.00678 51.0679L10.0888 52.1427C10.341 52.2091 10.6098 52.1744 10.8359 52.0462C11.0621 51.918 11.2271 51.7068 11.2948 51.4591C11.3624 51.2114 11.327 50.9475 11.1965 50.7253C11.066 50.5032 10.851 50.3412 10.5987 50.2747L4.36907 48.6344C4.24418 48.6015 4.11393 48.5931 3.98573 48.6096C3.85754 48.6262 3.73392 48.6674 3.62194 48.7309C3.50996 48.7944 3.41181 48.8789 3.3331 48.9796C3.25439 49.0804 3.19666 49.1954 3.16321 49.3181L1.49301 55.4364C1.42543 55.6841 1.46081 55.948 1.59137 56.1701C1.72192 56.3922 1.93696 56.5542 2.18918 56.6206C2.44139 56.687 2.71012 56.6522 2.93625 56.524C3.16238 56.3958 3.32738 56.1846 3.39496 55.9369L4.40887 52.2217C7.46675 57.503 11.9424 61.8583 17.3477 64.8127C22.7531 67.7671 28.8806 69.2072 35.0622 68.9759C41.2437 68.7447 47.242 66.851 52.4028 63.5013C57.5637 60.1516 61.689 55.4746 64.329 49.9802C64.4401 49.7483 64.453 49.4826 64.3647 49.2414C64.2765 49.0003 64.0943 48.8034 63.8583 48.6941ZM42.0487 44.6911H21.5923C21.3313 44.6911 21.0809 44.7929 20.8963 44.9742C20.7117 45.1555 20.608 45.4014 20.608 45.6578C20.608 45.9142 20.7117 46.1601 20.8963 46.3415C21.0809 46.5228 21.3313 46.6246 21.5923 46.6246H42.0487C42.3098 46.6246 42.5602 46.5228 42.7448 46.3415C42.9294 46.1601 43.0331 45.9142 43.0331 45.6578C43.0331 45.4014 42.9294 45.1555 42.7448 44.9742C42.5602 44.7929 42.3098 44.6911 42.0487 44.6911ZM42.0487 49.6666H21.5923C21.3313 49.6666 21.0809 49.7685 20.8963 49.9498C20.7117 50.1311 20.608 50.377 20.608 50.6334C20.608 50.8898 20.7117 51.1357 20.8963 51.317C21.0809 51.4983 21.3313 51.6002 21.5923 51.6002H42.0487C42.3098 51.6002 42.5602 51.4983 42.7448 51.317C42.9294 51.1357 43.0331 50.8898 43.0331 50.6334C43.0331 50.377 42.9294 50.1311 42.7448 49.9498C42.5602 49.7685 42.3098 49.6666 42.0487 49.6666ZM21.5923 31.6936H31.8205C32.0816 31.6936 32.332 31.5917 32.5166 31.4104C32.7012 31.2291 32.8049 30.9832 32.8049 30.7268C32.8049 30.4704 32.7012 30.2245 32.5166 30.0432C32.332 29.8619 32.0816 29.76 31.8205 29.76H21.5923C21.3313 29.76 21.0809 29.8619 20.8963 30.0432C20.7117 30.2245 20.608 30.4704 20.608 30.7268C20.608 30.9832 20.7117 31.2291 20.8963 31.4104C21.0809 31.5917 21.3313 31.6936 21.5923 31.6936ZM42.0487 39.7149H21.5923C21.3313 39.7149 21.0809 39.8168 20.8963 39.9981C20.7117 40.1794 20.608 40.4253 20.608 40.6817C20.608 40.9381 20.7117 41.184 20.8963 41.3653C21.0809 41.5466 21.3313 41.6485 21.5923 41.6485H42.0487C42.3098 41.6485 42.5602 41.5466 42.7448 41.3653C42.9294 41.184 43.0331 40.9381 43.0331 40.6817C43.0331 40.4253 42.9294 40.1794 42.7448 39.9981C42.5602 39.8168 42.3098 39.7149 42.0487 39.7149ZM21.7638 15.9443H49.698C49.9591 15.9443 50.2094 16.0461 50.3941 16.2274C50.5787 16.4087 50.6824 16.6546 50.6824 16.9111V51.4122C50.6824 51.6686 50.5787 51.9145 50.3941 52.0958C50.2094 52.2771 49.9591 52.379 49.698 52.379H46.7717V55.2565C46.7717 55.5129 46.668 55.7588 46.4834 55.9401C46.2988 56.1215 46.0484 56.2233 45.7874 56.2233H17.8534C17.5923 56.2233 17.342 56.1215 17.1574 55.9401C16.9728 55.7588 16.869 55.5129 16.869 55.2565V20.7516C16.869 20.4952 16.9728 20.2493 17.1574 20.068C17.342 19.8867 17.5923 19.7849 17.8534 19.7849H20.7793V16.9122C20.7791 16.7851 20.8045 16.6592 20.8539 16.5418C20.9033 16.4244 20.9758 16.3177 21.0672 16.2278C21.1587 16.1379 21.2672 16.0666 21.3868 16.0179C21.5063 15.9693 21.6344 15.9443 21.7638 15.9443ZM44.803 28.5578H38.8201C38.5591 28.5578 38.3087 28.4559 38.1241 28.2746C37.9395 28.0933 37.8358 27.8474 37.8358 27.591V21.7187H18.8381V54.2898H44.803V28.5578ZM43.4095 26.6242L39.8045 23.0856V26.6242H43.4095ZM22.7481 19.785H38.8201C39.0812 19.785 39.3315 19.8869 39.5161 20.0681L46.4836 26.9074C46.5751 26.9972 46.6477 27.1038 46.6972 27.2211C46.7467 27.3385 46.7722 27.4643 46.7722 27.5913V50.4453H48.7128V17.8782H22.7483L22.7481 19.785ZM20.6078 35.7063C20.6078 35.9627 20.7115 36.2086 20.8961 36.3899C21.0808 36.5712 21.3311 36.673 21.5922 36.673H42.0487C42.3098 36.673 42.5602 36.5712 42.7448 36.3899C42.9294 36.2086 43.0331 35.9627 43.0331 35.7063C43.0331 35.4499 42.9294 35.204 42.7448 35.0227C42.5602 34.8413 42.3098 34.7395 42.0487 34.7395H21.5923C21.4631 34.7395 21.335 34.7645 21.2156 34.813C21.0962 34.8616 20.9876 34.9328 20.8962 35.0226C20.8048 35.1124 20.7323 35.219 20.6828 35.3363C20.6333 35.4536 20.6078 35.5793 20.6078 35.7063Z" fill="#1B48BD"/>
</svg>
