<svg width="90" height="92" viewBox="0 0 90 92" fill="none" xmlns="http://www.w3.org/2000/svg">
<path d="M45 44.5577C43.7484 44.5577 42.5249 44.1782 41.4843 43.4674C40.4436 42.7565 39.6325 41.7461 39.1536 40.564C38.6746 39.3819 38.5493 38.0811 38.7935 36.8261C39.0376 35.5712 39.6403 34.4185 40.5253 33.5137C41.4103 32.6089 42.5379 31.9928 43.7654 31.7432C44.993 31.4935 46.2654 31.6217 47.4217 32.1113C48.578 32.601 49.5663 33.4302 50.2616 34.494C50.957 35.5579 51.3281 36.8087 51.3281 38.0883C51.3263 39.8035 50.659 41.4479 49.4726 42.6608C48.2863 43.8736 46.6778 44.5558 45 44.5577ZM45 34.4941C44.3047 34.4941 43.625 34.7049 43.0468 35.0999C42.4687 35.4948 42.0181 36.0561 41.752 36.7129C41.4859 37.3696 41.4163 38.0923 41.5519 38.7894C41.6876 39.4866 42.0224 40.127 42.5141 40.6297C43.0057 41.1323 43.6322 41.4746 44.3141 41.6133C44.9961 41.752 45.703 41.6808 46.3454 41.4088C46.9878 41.1368 47.5368 40.6761 47.9231 40.085C48.3094 39.494 48.5156 38.7991 48.5156 38.0883C48.5146 37.1354 48.1439 36.2218 47.4848 35.5479C46.8257 34.8741 45.9321 34.4951 45 34.4941Z" fill="white"/>
<path d="M45 39.5259C44.8153 39.526 44.6324 39.4888 44.4618 39.4166C44.2912 39.3443 44.1361 39.2384 44.0055 39.1049C43.8749 38.9714 43.7714 38.8129 43.7007 38.6385C43.63 38.464 43.5937 38.2771 43.5938 38.0883V36.6506C43.5938 36.2693 43.7419 35.9037 44.0056 35.634C44.2694 35.3644 44.627 35.213 45 35.213C45.373 35.213 45.7306 35.3644 45.9944 35.634C46.2581 35.9037 46.4062 36.2693 46.4062 36.6506V38.0883C46.4063 38.2771 46.37 38.464 46.2993 38.6385C46.2287 38.8129 46.1251 38.9714 45.9945 39.1049C45.8639 39.2384 45.7088 39.3443 45.5382 39.4166C45.3676 39.4888 45.1847 39.526 45 39.5259Z" fill="white"/>
<path d="M37.2656 47.433C37.0809 47.433 36.8981 47.3959 36.7274 47.3236C36.5568 47.2514 36.4017 47.1455 36.2711 47.012C36.1406 46.8785 36.037 46.72 35.9663 46.5455C35.8957 46.3711 35.8593 46.1841 35.8594 45.9953V30.1812C35.8594 29.7999 36.0075 29.4342 36.2713 29.1646C36.535 28.895 36.8927 28.7436 37.2656 28.7436C37.6386 28.7436 37.9963 28.895 38.26 29.1646C38.5237 29.4342 38.6719 29.7999 38.6719 30.1812V45.9953C38.6719 46.1841 38.6356 46.3711 38.5649 46.5455C38.4943 46.72 38.3907 46.8785 38.2601 47.012C38.1295 47.1455 37.9745 47.2514 37.8038 47.3236C37.6332 47.3959 37.4503 47.433 37.2656 47.433Z" fill="white"/>
<path d="M52.7344 47.433C52.5497 47.433 52.3668 47.3959 52.1962 47.3236C52.0255 47.2514 51.8705 47.1455 51.7399 47.012C51.6093 46.8785 51.5057 46.72 51.4351 46.5455C51.3644 46.3711 51.3281 46.1841 51.3281 45.9953V30.1812C51.3281 29.7999 51.4763 29.4342 51.74 29.1646C52.0037 28.895 52.3614 28.7436 52.7344 28.7436C53.1073 28.7436 53.465 28.895 53.7287 29.1646C53.9925 29.4342 54.1406 29.7999 54.1406 30.1812V45.9953C54.1407 46.1841 54.1043 46.3711 54.0337 46.5455C53.963 46.72 53.8594 46.8785 53.7289 47.012C53.5983 47.1455 53.4432 47.2514 53.2726 47.3236C53.1019 47.3959 52.9191 47.433 52.7344 47.433Z" fill="white"/>
<path d="M52.7344 31.6189H37.2656C36.8927 31.6189 36.535 31.4674 36.2713 31.1978C36.0075 30.9282 35.8594 30.5625 35.8594 30.1812C35.8594 29.7999 36.0075 29.4342 36.2713 29.1646C36.535 28.895 36.8927 28.7436 37.2656 28.7436H52.7344C53.1073 28.7436 53.465 28.895 53.7287 29.1646C53.9925 29.4342 54.1406 29.7999 54.1406 30.1812C54.1406 30.5625 53.9925 30.9282 53.7287 31.1978C53.465 31.4674 53.1073 31.6189 52.7344 31.6189Z" fill="white"/>
<path d="M38.6733 27.3059C38.3714 27.3062 38.0774 27.2071 37.8348 27.0234C37.5922 26.8396 37.4139 26.5809 37.3263 26.2856C37.2387 25.9902 37.2464 25.6738 37.3482 25.3833C37.4501 25.0927 37.6407 24.8434 37.8919 24.6721L40.0012 23.2345C40.1548 23.1275 40.3277 23.0526 40.5098 23.0143C40.6918 22.976 40.8795 22.9749 41.062 23.0112C41.2444 23.0476 41.4181 23.1205 41.5728 23.2258C41.7275 23.3312 41.8603 23.4668 41.9634 23.6249C42.0665 23.7831 42.1379 23.9605 42.1735 24.147C42.2091 24.3336 42.2082 24.5254 42.1708 24.7116C42.1334 24.8977 42.0603 25.0745 41.9557 25.2316C41.8511 25.3886 41.717 25.523 41.5613 25.6267L39.4519 27.0644C39.2215 27.2219 38.9505 27.306 38.6733 27.3059Z" fill="white"/>
<path d="M42.8892 27.3059C42.612 27.306 42.341 27.2219 42.1106 27.0644L40.0012 25.6267C39.8457 25.5229 39.7119 25.3885 39.6075 25.2314C39.503 25.0744 39.4301 24.8977 39.3928 24.7117C39.3556 24.5256 39.3548 24.3339 39.3904 24.1475C39.426 23.9611 39.4974 23.7838 39.6005 23.6258C39.7035 23.4678 39.8362 23.3322 39.9907 23.2269C40.1453 23.1216 40.3188 23.0487 40.5011 23.0123C40.6834 22.9759 40.871 22.9768 41.0529 23.015C41.2349 23.0531 41.4077 23.1277 41.5613 23.2345L43.6707 24.6721C43.9219 24.8434 44.1125 25.0927 44.2143 25.3833C44.3162 25.6738 44.3238 25.9902 44.2362 26.2856C44.1486 26.5809 43.9703 26.8396 43.7277 27.0234C43.4851 27.2071 43.1911 27.3062 42.8892 27.3059Z" fill="white"/>
<path d="M42.892 27.3059C42.5901 27.3062 42.2961 27.2071 42.0536 27.0234C41.811 26.8396 41.6327 26.5809 41.5451 26.2856C41.4574 25.9902 41.4651 25.6738 41.567 25.3833C41.6688 25.0927 41.8594 24.8434 42.1106 24.6721L44.22 23.2345C44.5303 23.0277 44.908 22.9544 45.2708 23.0306C45.6337 23.1068 45.9525 23.3262 46.158 23.6414C46.3635 23.9565 46.4391 24.3418 46.3683 24.7135C46.2975 25.0852 46.0861 25.4134 45.78 25.6267L43.6707 27.0644C43.4402 27.2219 43.1692 27.306 42.892 27.3059Z" fill="white"/>
<path d="M47.108 27.3059C46.8308 27.306 46.5597 27.2219 46.3293 27.0644L44.2199 25.6267C43.9134 25.4136 43.7015 25.0854 43.6305 24.7134C43.5595 24.3414 43.635 23.9558 43.8407 23.6404C44.0463 23.3251 44.3654 23.1055 44.7286 23.0295C45.0918 22.9535 45.4697 23.0272 45.78 23.2345L47.8894 24.6721C48.1406 24.8434 48.3312 25.0927 48.4331 25.3833C48.5349 25.6738 48.5426 25.9902 48.455 26.2856C48.3673 26.5809 48.189 26.8396 47.9465 27.0234C47.7039 27.2071 47.4099 27.3062 47.108 27.3059Z" fill="white"/>
<path d="M47.1108 27.3059C46.8089 27.3062 46.5149 27.2071 46.2723 27.0234C46.0297 26.8396 45.8514 26.5809 45.7638 26.2856C45.6762 25.9902 45.6839 25.6738 45.7857 25.3833C45.8876 25.0927 46.0782 24.8434 46.3294 24.6721L48.4387 23.2345C48.7491 23.0277 49.1267 22.9544 49.4896 23.0306C49.8525 23.1068 50.1713 23.3262 50.3768 23.6414C50.5823 23.9565 50.6578 24.3418 50.5871 24.7135C50.5163 25.0852 50.3049 25.4134 49.9988 25.6267L47.8894 27.0644C47.659 27.2219 47.388 27.306 47.1108 27.3059Z" fill="white"/>
<path d="M51.3267 27.3059C51.0495 27.306 50.7785 27.2219 50.5481 27.0644L48.4387 25.6267C48.2832 25.5229 48.1494 25.3885 48.045 25.2314C47.9405 25.0744 47.8676 24.8977 47.8303 24.7117C47.7931 24.5256 47.7923 24.3339 47.8279 24.1475C47.8635 23.9611 47.9349 23.7838 48.038 23.6258C48.141 23.4678 48.2737 23.3322 48.4282 23.2269C48.5828 23.1216 48.7563 23.0487 48.9386 23.0123C49.1209 22.9759 49.3085 22.9768 49.4904 23.015C49.6724 23.0531 49.8452 23.1277 49.9988 23.2345L52.1082 24.6721C52.3594 24.8434 52.55 25.0927 52.6518 25.3833C52.7537 25.6738 52.7613 25.9902 52.6737 26.2856C52.5861 26.5809 52.4078 26.8396 52.1652 27.0234C51.9226 27.2071 51.6286 27.3062 51.3267 27.3059Z" fill="white"/>
<path d="M38.6719 31.6189C38.4872 31.6189 38.3043 31.5817 38.1337 31.5095C37.963 31.4373 37.808 31.3314 37.6774 31.1979C37.5468 31.0644 37.4432 30.9059 37.3726 30.7314C37.3019 30.557 37.2656 30.37 37.2656 30.1812V25.8683C37.2656 25.487 37.4138 25.1213 37.6775 24.8517C37.9412 24.5821 38.2989 24.4306 38.6719 24.4306C39.0448 24.4306 39.4025 24.5821 39.6662 24.8517C39.93 25.1213 40.0781 25.487 40.0781 25.8683V30.1812C40.0782 30.37 40.0418 30.557 39.9712 30.7314C39.9005 30.9059 39.7969 31.0644 39.6664 31.1979C39.5358 31.3314 39.3807 31.4373 39.2101 31.5095C39.0394 31.5817 38.8566 31.6189 38.6719 31.6189Z" fill="white"/>
<path d="M42.8906 31.6189C42.7059 31.6189 42.5231 31.5817 42.3524 31.5095C42.1818 31.4373 42.0267 31.3314 41.8961 31.1979C41.7656 31.0644 41.662 30.9059 41.5913 30.7314C41.5207 30.557 41.4843 30.37 41.4844 30.1812V25.8683C41.4844 25.487 41.6325 25.1213 41.8963 24.8517C42.16 24.5821 42.5177 24.4306 42.8906 24.4306C43.2636 24.4306 43.6213 24.5821 43.885 24.8517C44.1487 25.1213 44.2969 25.487 44.2969 25.8683V30.1812C44.2969 30.37 44.2606 30.557 44.1899 30.7314C44.1193 30.9059 44.0157 31.0644 43.8851 31.1979C43.7545 31.3314 43.5995 31.4373 43.4288 31.5095C43.2582 31.5817 43.0753 31.6189 42.8906 31.6189Z" fill="white"/>
<path d="M47.1094 31.6189C46.9247 31.6189 46.7418 31.5817 46.5712 31.5095C46.4005 31.4373 46.2455 31.3314 46.1149 31.1979C45.9843 31.0644 45.8807 30.9059 45.8101 30.7314C45.7394 30.557 45.7031 30.37 45.7031 30.1812V25.8683C45.7031 25.487 45.8513 25.1213 46.115 24.8517C46.3787 24.5821 46.7364 24.4306 47.1094 24.4306C47.4823 24.4306 47.84 24.5821 48.1037 24.8517C48.3675 25.1213 48.5156 25.487 48.5156 25.8683V30.1812C48.5157 30.37 48.4793 30.557 48.4087 30.7314C48.338 30.9059 48.2344 31.0644 48.1039 31.1979C47.9733 31.3314 47.8182 31.4373 47.6476 31.5095C47.4769 31.5817 47.2941 31.6189 47.1094 31.6189Z" fill="white"/>
<path d="M51.3281 31.6189C51.1434 31.6189 50.9606 31.5817 50.7899 31.5095C50.6193 31.4373 50.4642 31.3314 50.3336 31.1979C50.2031 31.0644 50.0995 30.9059 50.0288 30.7314C49.9582 30.557 49.9218 30.37 49.9219 30.1812V25.8683C49.9219 25.487 50.07 25.1213 50.3338 24.8517C50.5975 24.5821 50.9552 24.4306 51.3281 24.4306C51.7011 24.4306 52.0588 24.5821 52.3225 24.8517C52.5862 25.1213 52.7344 25.487 52.7344 25.8683V30.1812C52.7344 30.37 52.6981 30.557 52.6274 30.7314C52.5568 30.9059 52.4532 31.0644 52.3226 31.1979C52.192 31.3314 52.037 31.4373 51.8663 31.5095C51.6957 31.5817 51.5128 31.6189 51.3281 31.6189Z" fill="white"/>
<path d="M40.7827 25.869C40.5664 25.8687 40.3531 25.8175 40.1593 25.7194C39.9655 25.6214 39.7963 25.479 39.665 25.3033C39.5337 25.1276 39.4437 24.9234 39.402 24.7065C39.3602 24.4895 39.368 24.2657 39.4245 24.0523L43.6432 8.23815C43.7415 7.87036 43.9786 7.55752 44.3024 7.36842C44.6262 7.17932 45.0102 7.12945 45.37 7.22978C45.7298 7.33011 46.0359 7.57242 46.2209 7.90343C46.406 8.23444 46.4549 8.62703 46.3568 8.99487L42.1381 24.809C42.057 25.1131 41.8805 25.3816 41.6356 25.5731C41.3907 25.7646 41.091 25.8686 40.7827 25.869Z" fill="white"/>
<path d="M49.2173 25.869C48.909 25.8686 48.6093 25.7646 48.3644 25.5731C48.1195 25.3816 47.943 25.1131 47.8619 24.809L43.6432 8.99487C43.5451 8.62703 43.594 8.23444 43.7791 7.90343C43.9641 7.57242 44.2702 7.33011 44.63 7.22978C44.9898 7.12945 45.3738 7.17932 45.6976 7.36842C46.0214 7.55752 46.2585 7.87036 46.3568 8.23815L50.5755 24.0523C50.632 24.2657 50.6398 24.4895 50.598 24.7065C50.5563 24.9234 50.4663 25.1276 50.335 25.3033C50.2037 25.479 50.0345 25.6214 49.8407 25.7194C49.6469 25.8175 49.4336 25.8687 49.2173 25.869Z" fill="white"/>
<path d="M56.9531 47.433H33.0469C32.6739 47.433 32.3162 47.2815 32.0525 47.0119C31.7888 46.7423 31.6406 46.3766 31.6406 45.9953C31.6406 45.614 31.7888 45.2484 32.0525 44.9787C32.3162 44.7091 32.6739 44.5577 33.0469 44.5577H56.9531C57.3261 44.5577 57.6838 44.7091 57.9475 44.9787C58.2112 45.2484 58.3594 45.614 58.3594 45.9953C58.3594 46.3766 58.2112 46.7423 57.9475 47.0119C57.6838 47.2815 57.3261 47.433 56.9531 47.433Z" fill="white"/>
<path d="M56.9531 47.433C56.7684 47.433 56.5856 47.3959 56.4149 47.3236C56.2443 47.2514 56.0892 47.1455 55.9586 47.012C55.8281 46.8785 55.7245 46.72 55.6538 46.5455C55.5832 46.3711 55.5468 46.1841 55.5469 45.9953V41.6824C55.5469 41.3011 55.695 40.9354 55.9588 40.6658C56.2225 40.3962 56.5802 40.2447 56.9531 40.2447C57.3261 40.2447 57.6838 40.3962 57.9475 40.6658C58.2112 40.9354 58.3594 41.3011 58.3594 41.6824V45.9953C58.3594 46.1841 58.3231 46.3711 58.2524 46.5455C58.1818 46.72 58.0781 46.8784 57.9475 47.0119C57.8169 47.1454 57.662 47.2514 57.4913 47.3236C57.3207 47.3959 57.1378 47.433 56.9531 47.433Z" fill="white"/>
<path d="M33.0469 47.433C32.8622 47.433 32.6793 47.3959 32.5087 47.3236C32.338 47.2514 32.1831 47.1454 32.0525 47.0119C31.9219 46.8784 31.8182 46.72 31.7476 46.5455C31.6769 46.3711 31.6406 46.1841 31.6406 45.9953V41.6824C31.6406 41.3011 31.7888 40.9354 32.0525 40.6658C32.3162 40.3962 32.6739 40.2447 33.0469 40.2447C33.4198 40.2447 33.7775 40.3962 34.0412 40.6658C34.305 40.9354 34.4531 41.3011 34.4531 41.6824V45.9953C34.4532 46.1841 34.4168 46.3711 34.3462 46.5455C34.2755 46.72 34.1719 46.8785 34.0414 47.012C33.9108 47.1455 33.7557 47.2514 33.5851 47.3236C33.4144 47.3959 33.2316 47.433 33.0469 47.433Z" fill="white"/>
<path d="M48.5156 54.6212C48.3309 54.6213 48.148 54.5842 47.9774 54.512C47.8067 54.4398 47.6516 54.3339 47.521 54.2004C47.3904 54.0668 47.2868 53.9083 47.2162 53.7338C47.1456 53.5594 47.1093 53.3724 47.1094 53.1835C47.1094 52.4142 46.6782 52.0885 45.618 51.4749C44.7637 50.9807 43.5938 50.304 43.5938 48.8706C43.5938 48.514 43.7235 48.1701 43.9576 47.9058C44.1917 47.6414 44.5136 47.4754 44.8607 47.4401C45.2078 47.4047 45.5554 47.5025 45.8359 47.7145C46.1165 47.9264 46.3099 48.2374 46.3788 48.587C46.5298 48.6993 46.8059 48.8594 47.0023 48.9717C47.8347 49.3107 48.5533 49.8888 49.0714 50.6362C49.5895 51.3836 49.8849 52.2683 49.9219 53.1835C49.922 53.3724 49.8857 53.5594 49.815 53.7338C49.7444 53.9083 49.6408 54.0668 49.5102 54.2004C49.3796 54.3339 49.2246 54.4398 49.0539 54.512C48.8832 54.5842 48.7003 54.6213 48.5156 54.6212Z" fill="white"/>
<path d="M49.9219 56.0588C49.1763 56.0579 48.4614 55.7546 47.9342 55.2156C47.407 54.6766 47.1103 53.9458 47.1094 53.1835C47.1094 52.8023 47.2575 52.4366 47.5213 52.167C47.785 51.8974 48.1427 51.7459 48.5156 51.7459C48.8886 51.7459 49.2463 51.8974 49.51 52.167C49.7737 52.4366 49.9219 52.8023 49.9219 53.1835V53.1864C50.1064 53.1864 50.289 53.2236 50.4595 53.2957C50.6299 53.3679 50.7848 53.4737 50.9152 53.6071C51.0457 53.7404 51.1492 53.8988 51.2198 54.073C51.2904 54.2473 51.3267 54.434 51.3267 54.6226C51.3267 54.8112 51.2904 54.998 51.2198 55.1722C51.1492 55.3465 51.0457 55.5048 50.9152 55.6382C50.7848 55.7716 50.6299 55.8773 50.4595 55.9495C50.289 56.0217 50.1064 56.0588 49.9219 56.0588Z" fill="white"/>
<path d="M56.9531 56.0588H49.9219C49.5489 56.0588 49.1912 55.9074 48.9275 55.6378C48.6638 55.3682 48.5156 55.0025 48.5156 54.6212C48.5156 54.2399 48.6638 53.8742 48.9275 53.6046C49.1912 53.335 49.5489 53.1835 49.9219 53.1835L56.9531 53.1836C57.3261 53.1836 57.6838 53.335 57.9475 53.6046C58.2112 53.8742 58.3594 54.2399 58.3594 54.6212C58.3594 55.0025 58.2112 55.3682 57.9475 55.6378C57.6838 55.9074 57.3261 56.0588 56.9531 56.0588Z" fill="white"/>
<path d="M56.9531 56.0588C56.7684 56.059 56.5855 56.0218 56.4149 55.9496C56.2442 55.8774 56.0891 55.7715 55.9585 55.638C55.8279 55.5045 55.7243 55.346 55.6537 55.1715C55.5831 54.997 55.5468 54.81 55.5469 54.6212V45.9953C55.5469 45.614 55.695 45.2484 55.9588 44.9787C56.2225 44.7091 56.5802 44.5577 56.9531 44.5577C57.3261 44.5577 57.6838 44.7091 57.9475 44.9787C58.2112 45.2484 58.3594 45.614 58.3594 45.9953V54.6212C58.3595 54.81 58.3232 54.997 58.2525 55.1715C58.1819 55.346 58.0783 55.5045 57.9477 55.638C57.8171 55.7715 57.6621 55.8774 57.4914 55.9496C57.3207 56.0218 57.1378 56.059 56.9531 56.0588Z" fill="white"/>
<path d="M52.7344 56.0588C52.5497 56.059 52.3668 56.0218 52.1961 55.9496C52.0254 55.8774 51.8704 55.7715 51.7398 55.638C51.6092 55.5045 51.5056 55.346 51.435 55.1715C51.3643 54.997 51.328 54.81 51.3281 54.6212V45.9953C51.3281 45.614 51.4763 45.2484 51.74 44.9787C52.0037 44.7091 52.3614 44.5577 52.7344 44.5577C53.1073 44.5577 53.465 44.7091 53.7287 44.9787C53.9925 45.2484 54.1406 45.614 54.1406 45.9953V54.6212C54.1407 54.81 54.1044 54.997 54.0338 55.1715C53.9632 55.346 53.8596 55.5045 53.729 55.638C53.5984 55.7715 53.4433 55.8774 53.2726 55.9496C53.102 56.0218 52.9191 56.059 52.7344 56.0588Z" fill="white"/>
<path d="M41.4844 54.6212C41.2997 54.6213 41.1168 54.5842 40.9461 54.512C40.7754 54.4398 40.6204 54.3339 40.4898 54.2004C40.3592 54.0668 40.2556 53.9083 40.185 53.7338C40.1143 53.5594 40.078 53.3724 40.0781 53.1835C40.1151 52.2683 40.4105 51.3836 40.9286 50.6362C41.4467 49.8888 42.1653 49.3107 42.9977 48.9717C43.1941 48.8594 43.4702 48.6993 43.6212 48.587C43.6901 48.2374 43.8835 47.9264 44.1641 47.7145C44.4446 47.5025 44.7922 47.4047 45.1393 47.4401C45.4864 47.4754 45.8083 47.6414 46.0424 47.9058C46.2765 48.1701 46.4062 48.514 46.4062 48.8706C46.4062 50.304 45.2363 50.9807 44.382 51.4749C43.3218 52.0885 42.8906 52.4142 42.8906 53.1835C42.8907 53.3724 42.8544 53.5594 42.7838 53.7338C42.7132 53.9083 42.6096 54.0668 42.479 54.2004C42.3484 54.3339 42.1933 54.4398 42.0226 54.512C41.852 54.5842 41.6691 54.6213 41.4844 54.6212Z" fill="white"/>
<path d="M40.0781 56.0588C39.7052 56.0588 39.3475 55.9074 39.0838 55.6378C38.82 55.3682 38.6719 55.0025 38.6719 54.6212C38.6719 54.2399 38.82 53.8742 39.0838 53.6046C39.3475 53.335 39.7052 53.1835 40.0781 53.1835C40.0781 52.8023 40.2263 52.4366 40.49 52.167C40.7537 51.8974 41.1114 51.7459 41.4844 51.7459C41.8573 51.7459 42.215 51.8974 42.4787 52.167C42.7425 52.4366 42.8906 52.8023 42.8906 53.1835C42.8897 53.9458 42.593 54.6766 42.0658 55.2156C41.5386 55.7546 40.8237 56.0579 40.0781 56.0588Z" fill="white"/>
<path d="M40.0781 56.0588H33.0469C32.6739 56.0588 32.3162 55.9074 32.0525 55.6378C31.7888 55.3682 31.6406 55.0025 31.6406 54.6212C31.6406 54.2399 31.7888 53.8742 32.0525 53.6046C32.3162 53.335 32.6739 53.1836 33.0469 53.1836L40.0781 53.1835C40.4511 53.1835 40.8088 53.335 41.0725 53.6046C41.3362 53.8742 41.4844 54.2399 41.4844 54.6212C41.4844 55.0025 41.3362 55.3682 41.0725 55.6378C40.8088 55.9074 40.4511 56.0588 40.0781 56.0588Z" fill="white"/>
<path d="M33.0469 56.0588C32.8622 56.059 32.6793 56.0218 32.5086 55.9496C32.3379 55.8774 32.1829 55.7715 32.0523 55.638C31.9217 55.5045 31.8181 55.346 31.7475 55.1715C31.6768 54.997 31.6405 54.81 31.6406 54.6212V45.9953C31.6406 45.614 31.7888 45.2484 32.0525 44.9787C32.3162 44.7091 32.6739 44.5577 33.0469 44.5577C33.4198 44.5577 33.7775 44.7091 34.0412 44.9787C34.305 45.2484 34.4531 45.614 34.4531 45.9953V54.6212C34.4532 54.81 34.4169 54.997 34.3463 55.1715C34.2757 55.346 34.1721 55.5045 34.0415 55.638C33.9109 55.7715 33.7558 55.8774 33.5851 55.9496C33.4145 56.0218 33.2316 56.059 33.0469 56.0588Z" fill="white"/>
<path d="M37.2656 56.0588C37.0809 56.059 36.898 56.0218 36.7274 55.9496C36.5567 55.8774 36.4016 55.7715 36.271 55.638C36.1404 55.5045 36.0368 55.346 35.9662 55.1715C35.8956 54.997 35.8593 54.81 35.8594 54.6212V45.9953C35.8594 45.614 36.0075 45.2484 36.2713 44.9787C36.535 44.7091 36.8927 44.5577 37.2656 44.5577C37.6386 44.5577 37.9963 44.7091 38.26 44.9787C38.5237 45.2484 38.6719 45.614 38.6719 45.9953V54.6212C38.672 54.81 38.6357 54.997 38.565 55.1715C38.4944 55.346 38.3908 55.5045 38.2602 55.638C38.1296 55.7715 37.9746 55.8774 37.8039 55.9496C37.6332 56.0218 37.4503 56.059 37.2656 56.0588Z" fill="white"/>
<path d="M40.0781 58.9341C39.8934 58.9342 39.7105 58.8971 39.5399 58.8249C39.3692 58.7527 39.2141 58.6468 39.0835 58.5133C38.9529 58.3798 38.8493 58.2212 38.7787 58.0468C38.7081 57.8723 38.6718 57.6853 38.6719 57.4965V54.6212C38.6719 54.2399 38.82 53.8742 39.0838 53.6046C39.3475 53.335 39.7052 53.1835 40.0781 53.1835C40.4511 53.1835 40.8088 53.335 41.0725 53.6046C41.3362 53.8742 41.4844 54.2399 41.4844 54.6212V57.4965C41.4845 57.6853 41.4482 57.8723 41.3775 58.0468C41.3069 58.2212 41.2033 58.3798 41.0727 58.5133C40.9421 58.6468 40.7871 58.7527 40.6164 58.8249C40.4457 58.8971 40.2628 58.9342 40.0781 58.9341Z" fill="white"/>
<path d="M49.9219 58.9341C49.7372 58.9342 49.5543 58.8971 49.3836 58.8249C49.2129 58.7527 49.0579 58.6468 48.9273 58.5133C48.7967 58.3798 48.6931 58.2212 48.6225 58.0468C48.5518 57.8723 48.5155 57.6853 48.5156 57.4965V54.6212C48.5156 54.2399 48.6638 53.8742 48.9275 53.6046C49.1912 53.335 49.5489 53.1835 49.9219 53.1835C50.2948 53.1835 50.6525 53.335 50.9162 53.6046C51.18 53.8742 51.3281 54.2399 51.3281 54.6212V57.4965C51.3282 57.6853 51.2919 57.8723 51.2213 58.0468C51.1507 58.2212 51.0471 58.3798 50.9165 58.5133C50.7859 58.6468 50.6308 58.7527 50.4601 58.8249C50.2895 58.8971 50.1066 58.9342 49.9219 58.9341Z" fill="white"/>
<path d="M49.9219 58.9341H40.0781C39.7052 58.9341 39.3475 58.7827 39.0838 58.5131C38.82 58.2434 38.6719 57.8778 38.6719 57.4965C38.6719 57.1152 38.82 56.7495 39.0838 56.4799C39.3475 56.2103 39.7052 56.0588 40.0781 56.0588H49.9219C50.2948 56.0588 50.6525 56.2103 50.9162 56.4799C51.18 56.7495 51.3281 57.1152 51.3281 57.4965C51.3281 57.8778 51.18 58.2434 50.9162 58.5131C50.6525 58.7827 50.2948 58.9341 49.9219 58.9341Z" fill="white"/>
<path d="M45 58.9341C44.8153 58.9342 44.6324 58.8971 44.4617 58.8249C44.2911 58.7527 44.136 58.6468 44.0054 58.5133C43.8748 58.3798 43.7712 58.2212 43.7006 58.0468C43.6299 57.8723 43.5936 57.6853 43.5938 57.4965V54.6212C43.5938 54.2399 43.7419 53.8742 44.0056 53.6046C44.2694 53.335 44.627 53.1836 45 53.1836C45.373 53.1836 45.7306 53.335 45.9944 53.6046C46.2581 53.8742 46.4062 54.2399 46.4062 54.6212V57.4965C46.4064 57.6853 46.3701 57.8723 46.2994 58.0468C46.2288 58.2212 46.1252 58.3798 45.9946 58.5133C45.864 58.6468 45.7089 58.7527 45.5383 58.8249C45.3676 58.8971 45.1847 58.9342 45 58.9341Z" fill="white"/>
<path d="M33.0469 92C32.8622 92.0001 32.6793 91.963 32.5086 91.8908C32.3379 91.8186 32.1829 91.7127 32.0523 91.5792C31.9217 91.4456 31.8181 91.2871 31.7475 91.1126C31.6768 90.9382 31.6405 90.7512 31.6406 90.5624V54.6212C31.6406 54.2399 31.7888 53.8742 32.0525 53.6046C32.3162 53.335 32.6739 53.1836 33.0469 53.1836C33.4198 53.1836 33.7775 53.335 34.0412 53.6046C34.305 53.8742 34.4531 54.2399 34.4531 54.6212V90.5624C34.4532 90.7512 34.4169 90.9382 34.3463 91.1126C34.2757 91.2871 34.1721 91.4456 34.0415 91.5792C33.9109 91.7127 33.7558 91.8186 33.5851 91.8908C33.4145 91.963 33.2316 92.0001 33.0469 92Z" fill="white"/>
<path d="M56.9531 92C56.7684 92.0001 56.5855 91.963 56.4149 91.8908C56.2442 91.8186 56.0891 91.7127 55.9585 91.5792C55.8279 91.4456 55.7243 91.2871 55.6537 91.1126C55.5831 90.9382 55.5468 90.7512 55.5469 90.5624V54.6212C55.5469 54.2399 55.695 53.8742 55.9588 53.6046C56.2225 53.335 56.5802 53.1836 56.9531 53.1836C57.3261 53.1836 57.6838 53.335 57.9475 53.6046C58.2112 53.8742 58.3594 54.2399 58.3594 54.6212V90.5624C58.3595 90.7512 58.3232 90.9382 58.2525 91.1126C58.1819 91.2871 58.0783 91.4456 57.9477 91.5792C57.8171 91.7127 57.6621 91.8186 57.4914 91.8908C57.3207 91.963 57.1378 92.0001 56.9531 92Z" fill="white"/>
<path d="M52.7344 92H37.2656C37.0809 92.0001 36.898 91.963 36.7274 91.8908C36.5567 91.8186 36.4016 91.7127 36.271 91.5792C36.1404 91.4456 36.0368 91.2871 35.9662 91.1126C35.8956 90.9382 35.8593 90.7512 35.8594 90.5623V66.1224C35.8593 65.9335 35.8956 65.7465 35.9662 65.5721C36.0368 65.3976 36.1404 65.2391 36.271 65.1056C36.4016 64.972 36.5567 64.8661 36.7274 64.7939C36.898 64.7217 37.0809 64.6846 37.2656 64.6847H52.7344C52.9191 64.6846 53.102 64.7217 53.2726 64.7939C53.4433 64.8661 53.5984 64.972 53.729 65.1056C53.8596 65.2391 53.9632 65.3976 54.0338 65.5721C54.1044 65.7465 54.1407 65.9335 54.1406 66.1224V90.5623C54.1407 90.7512 54.1044 90.9382 54.0338 91.1126C53.9632 91.2871 53.8596 91.4456 53.729 91.5792C53.5984 91.7127 53.4433 91.8186 53.2726 91.8908C53.102 91.963 52.9191 92.0001 52.7344 92ZM38.6719 89.1247H51.3281V67.56H38.6719V89.1247Z" fill="white"/>
<path d="M52.7344 77.6235H37.2656C36.8927 77.6235 36.535 77.4721 36.2713 77.2025C36.0075 76.9328 35.8594 76.5672 35.8594 76.1859C35.8594 75.8046 36.0075 75.4389 36.2713 75.1693C36.535 74.8997 36.8927 74.7482 37.2656 74.7482H52.7344C53.1073 74.7482 53.465 74.8997 53.7287 75.1693C53.9925 75.4389 54.1406 75.8046 54.1406 76.1859C54.1406 76.5672 53.9925 76.9328 53.7287 77.2025C53.465 77.4721 53.1073 77.6235 52.7344 77.6235Z" fill="white"/>
<path d="M48.5156 85.5306C48.3309 85.5307 48.148 85.4936 47.9774 85.4214C47.8067 85.3492 47.6516 85.2433 47.521 85.1097C47.3904 84.9762 47.2868 84.8177 47.2162 84.6432C47.1456 84.4688 47.1093 84.2818 47.1094 84.0929C47.1094 83.521 46.8871 82.9725 46.4916 82.5681C46.096 82.1637 45.5594 81.9365 45 81.9365C44.4406 81.9365 43.904 82.1637 43.5084 82.5681C43.1129 82.9725 42.8906 83.521 42.8906 84.0929C42.8906 84.4742 42.7425 84.8399 42.4787 85.1095C42.215 85.3791 41.8573 85.5306 41.4844 85.5306C41.1114 85.5306 40.7537 85.3791 40.49 85.1095C40.2263 84.8399 40.0781 84.4742 40.0781 84.0929C40.0781 82.7584 40.5967 81.4786 41.5197 80.535C42.4427 79.5913 43.6946 79.0612 45 79.0612C46.3054 79.0612 47.5573 79.5913 48.4803 80.535C49.4033 81.4786 49.9219 82.7584 49.9219 84.0929C49.922 84.2818 49.8857 84.4688 49.815 84.6432C49.7444 84.8177 49.6408 84.9762 49.5102 85.1097C49.3796 85.2433 49.2246 85.3492 49.0539 85.4214C48.8832 85.4936 48.7003 85.5307 48.5156 85.5306Z" fill="white"/>
<path d="M41.4844 92C41.2997 92.0001 41.1168 91.963 40.9461 91.8908C40.7754 91.8186 40.6204 91.7127 40.4898 91.5792C40.3592 91.4456 40.2556 91.2871 40.185 91.1126C40.1143 90.9382 40.078 90.7512 40.0781 90.5623V84.0929C40.0781 83.7117 40.2263 83.346 40.49 83.0764C40.7537 82.8068 41.1114 82.6553 41.4844 82.6553C41.8573 82.6553 42.215 82.8068 42.4787 83.0764C42.7425 83.346 42.8906 83.7117 42.8906 84.0929V90.5623C42.8907 90.7512 42.8544 90.9382 42.7838 91.1126C42.7132 91.2871 42.6096 91.4456 42.479 91.5792C42.3484 91.7127 42.1933 91.8186 42.0226 91.8908C41.852 91.963 41.6691 92.0001 41.4844 92Z" fill="white"/>
<path d="M48.5156 92C48.3309 92.0001 48.148 91.963 47.9774 91.8908C47.8067 91.8186 47.6516 91.7127 47.521 91.5792C47.3904 91.4456 47.2868 91.2871 47.2162 91.1126C47.1456 90.9382 47.1093 90.7512 47.1094 90.5623V84.0929C47.1094 83.7117 47.2575 83.346 47.5213 83.0764C47.785 82.8068 48.1427 82.6553 48.5156 82.6553C48.8886 82.6553 49.2463 82.8068 49.51 83.0764C49.7737 83.346 49.9219 83.7117 49.9219 84.0929V90.5623C49.922 90.7512 49.8857 90.9382 49.815 91.1126C49.7444 91.2871 49.6408 91.4456 49.5102 91.5792C49.3796 91.7127 49.2246 91.8186 49.0539 91.8908C48.8832 91.963 48.7003 92.0001 48.5156 92Z" fill="white"/>
<path d="M56.9531 63.2471H33.0469C32.6739 63.2471 32.3162 63.0956 32.0525 62.826C31.7888 62.5564 31.6406 62.1907 31.6406 61.8094C31.6406 61.4281 31.7888 61.0625 32.0525 60.7929C32.3162 60.5232 32.6739 60.3718 33.0469 60.3718H56.9531C57.3261 60.3718 57.6838 60.5232 57.9475 60.7929C58.2112 61.0625 58.3594 61.4281 58.3594 61.8094C58.3594 62.1907 58.2112 62.5564 57.9475 62.826C57.6838 63.0956 57.3261 63.2471 56.9531 63.2471Z" fill="white"/>
<path d="M64.6875 68.9977C64.5028 68.9978 64.3199 68.9607 64.1492 68.8884C63.9786 68.8162 63.8235 68.7103 63.6929 68.5768C63.5623 68.4433 63.4587 68.2848 63.3881 68.1103C63.3174 67.9358 63.2811 67.7488 63.2812 67.56V67.5571C63.0968 67.5571 62.9141 67.52 62.7436 67.4478C62.5732 67.3756 62.4183 67.2698 62.2879 67.1365C62.1574 67.0031 62.0539 66.8448 61.9833 66.6705C61.9127 66.4963 61.8764 66.3095 61.8764 66.1209C61.8764 65.9323 61.9127 65.7456 61.9833 65.5713C62.0539 65.3971 62.1574 65.2387 62.2879 65.1054C62.4183 64.972 62.5732 64.8662 62.7436 64.794C62.9141 64.7219 63.0968 64.6847 63.2812 64.6847C64.0269 64.6857 64.7417 64.989 65.2689 65.528C65.7962 66.067 66.0928 66.7977 66.0938 67.56C66.0939 67.7488 66.0575 67.9358 65.9869 68.1103C65.9163 68.2848 65.8127 68.4433 65.6821 68.5768C65.5515 68.7103 65.3964 68.8162 65.2258 68.8884C65.0551 68.9607 64.8722 68.9978 64.6875 68.9977Z" fill="white"/>
<path d="M64.6875 68.9977C64.5028 68.9978 64.3199 68.9607 64.1492 68.8884C63.9786 68.8162 63.8235 68.7103 63.6929 68.5768C63.5623 68.4433 63.4587 68.2848 63.3881 68.1103C63.3174 67.9358 63.2811 67.7488 63.2812 67.56C63.2822 66.7977 63.5788 66.067 64.1061 65.528C64.6333 64.989 65.3481 64.6857 66.0938 64.6847C66.4667 64.6847 66.8244 64.8362 67.0881 65.1058C67.3518 65.3754 67.5 65.7411 67.5 66.1224C67.5 66.5037 67.3518 66.8693 67.0881 67.1389C66.8244 67.4085 66.4667 67.56 66.0938 67.56C66.0939 67.7488 66.0575 67.9358 65.9869 68.1103C65.9163 68.2848 65.8127 68.4433 65.6821 68.5768C65.5515 68.7103 65.3964 68.8162 65.2258 68.8884C65.0551 68.9607 64.8722 68.9978 64.6875 68.9977Z" fill="white"/>
<path d="M63.2812 67.56H61.875C61.502 67.56 61.1444 67.4085 60.8806 67.1389C60.6169 66.8693 60.4688 66.5037 60.4688 66.1224C60.4688 65.7411 60.6169 65.3754 60.8806 65.1058C61.1444 64.8362 61.502 64.6847 61.875 64.6847H63.2812C63.6542 64.6847 64.0119 64.8362 64.2756 65.1058C64.5393 65.3754 64.6875 65.7411 64.6875 66.1224C64.6875 66.5037 64.5393 66.8693 64.2756 67.1389C64.0119 67.4085 63.6542 67.56 63.2812 67.56Z" fill="white"/>
<path d="M67.5 67.56H66.0938C65.7208 67.56 65.3631 67.4085 65.0994 67.1389C64.8357 66.8693 64.6875 66.5037 64.6875 66.1224C64.6875 65.7411 64.8357 65.3754 65.0994 65.1058C65.3631 64.8362 65.7208 64.6847 66.0938 64.6847H67.5C67.873 64.6847 68.2306 64.8362 68.4944 65.1058C68.7581 65.3754 68.9062 65.7411 68.9062 66.1224C68.9062 66.5037 68.7581 66.8693 68.4944 67.1389C68.2306 67.4085 67.873 67.56 67.5 67.56Z" fill="white"/>
<path d="M67.5 74.7482C67.3153 74.7484 67.1324 74.7112 66.9617 74.639C66.7911 74.5668 66.636 74.4609 66.5054 74.3274C66.3748 74.1939 66.2712 74.0354 66.2006 73.8609C66.13 73.6864 66.0936 73.4994 66.0938 73.3106V66.1224C66.0938 65.7411 66.2419 65.3754 66.5056 65.1058C66.7694 64.8362 67.127 64.6847 67.5 64.6847C67.873 64.6847 68.2306 64.8362 68.4944 65.1058C68.7581 65.3754 68.9062 65.7411 68.9062 66.1224V73.3106C68.9064 73.4994 68.87 73.6864 68.7994 73.8609C68.7288 74.0354 68.6252 74.1939 68.4946 74.3274C68.364 74.4609 68.2089 74.5668 68.0383 74.639C67.8676 74.7112 67.6847 74.7484 67.5 74.7482Z" fill="white"/>
<path d="M61.875 74.7482C61.6903 74.7484 61.5074 74.7112 61.3367 74.639C61.1661 74.5668 61.011 74.4609 60.8804 74.3274C60.7498 74.1939 60.6462 74.0354 60.5756 73.8609C60.5049 73.6864 60.4686 73.4994 60.4688 73.3106V66.1224C60.4688 65.7411 60.6169 65.3754 60.8806 65.1058C61.1444 64.8362 61.502 64.6847 61.875 64.6847C62.248 64.6847 62.6056 64.8362 62.8694 65.1058C63.1331 65.3754 63.2812 65.7411 63.2812 66.1224V73.3106C63.2814 73.4994 63.2451 73.6864 63.1744 73.8609C63.1038 74.0354 63.0002 74.1939 62.8696 74.3274C62.739 74.4609 62.5839 74.5668 62.4133 74.639C62.2426 74.7112 62.0597 74.7484 61.875 74.7482Z" fill="white"/>
<path d="M74.5312 68.9977C74.3465 68.9978 74.1636 68.9607 73.993 68.8884C73.8223 68.8162 73.6672 68.7103 73.5366 68.5768C73.406 68.4433 73.3025 68.2848 73.2318 68.1103C73.1612 67.9358 73.1249 67.7488 73.125 67.56V67.5571C72.9405 67.5571 72.7578 67.52 72.5874 67.4478C72.4169 67.3756 72.2621 67.2698 72.1316 67.1365C72.0012 67.0031 71.8977 66.8448 71.8271 66.6705C71.7565 66.4963 71.7202 66.3095 71.7202 66.1209C71.7202 65.9323 71.7565 65.7456 71.8271 65.5713C71.8977 65.3971 72.0012 65.2387 72.1316 65.1054C72.2621 64.972 72.4169 64.8662 72.5874 64.794C72.7578 64.7219 72.9405 64.6847 73.125 64.6847C73.8706 64.6857 74.5854 64.989 75.1127 65.528C75.6399 66.067 75.9365 66.7977 75.9375 67.56C75.9376 67.7488 75.9013 67.9358 75.8307 68.1103C75.76 68.2848 75.6565 68.4433 75.5259 68.5768C75.3953 68.7103 75.2402 68.8162 75.0695 68.8884C74.8989 68.9607 74.716 68.9978 74.5312 68.9977Z" fill="white"/>
<path d="M74.5312 68.9977C74.3465 68.9978 74.1636 68.9607 73.993 68.8884C73.8223 68.8162 73.6672 68.7103 73.5366 68.5768C73.406 68.4433 73.3025 68.2848 73.2318 68.1103C73.1612 67.9358 73.1249 67.7488 73.125 67.56C73.126 66.7977 73.4226 66.067 73.9498 65.528C74.4771 64.989 75.1919 64.6857 75.9375 64.6847C76.3105 64.6847 76.6681 64.8362 76.9319 65.1058C77.1956 65.3754 77.3438 65.7411 77.3438 66.1224C77.3438 66.5037 77.1956 66.8693 76.9319 67.1389C76.6681 67.4085 76.3105 67.56 75.9375 67.56C75.9376 67.7488 75.9013 67.9358 75.8307 68.1103C75.76 68.2848 75.6565 68.4433 75.5259 68.5768C75.3953 68.7103 75.2402 68.8162 75.0695 68.8884C74.8989 68.9607 74.716 68.9978 74.5312 68.9977Z" fill="white"/>
<path d="M73.125 67.56H71.7188C71.3458 67.56 70.9881 67.4085 70.7244 67.1389C70.4607 66.8693 70.3125 66.5037 70.3125 66.1224C70.3125 65.7411 70.4607 65.3754 70.7244 65.1058C70.9881 64.8362 71.3458 64.6847 71.7188 64.6847H73.125C73.498 64.6847 73.8556 64.8362 74.1194 65.1058C74.3831 65.3754 74.5312 65.7411 74.5312 66.1224C74.5312 66.5037 74.3831 66.8693 74.1194 67.1389C73.8556 67.4085 73.498 67.56 73.125 67.56Z" fill="white"/>
<path d="M77.3438 67.56H75.9375C75.5645 67.56 75.2069 67.4085 74.9431 67.1389C74.6794 66.8693 74.5312 66.5037 74.5312 66.1224C74.5312 65.7411 74.6794 65.3754 74.9431 65.1058C75.2069 64.8362 75.5645 64.6847 75.9375 64.6847H77.3438C77.7167 64.6847 78.0744 64.8362 78.3381 65.1058C78.6018 65.3754 78.75 65.7411 78.75 66.1224C78.75 66.5037 78.6018 66.8693 78.3381 67.1389C78.0744 67.4085 77.7167 67.56 77.3438 67.56Z" fill="white"/>
<path d="M77.3438 74.7482C77.159 74.7484 76.9761 74.7112 76.8055 74.639C76.6348 74.5668 76.4797 74.4609 76.3491 74.3274C76.2185 74.1939 76.115 74.0354 76.0443 73.8609C75.9737 73.6864 75.9374 73.4994 75.9375 73.3106V66.1224C75.9375 65.7411 76.0857 65.3754 76.3494 65.1058C76.6131 64.8362 76.9708 64.6847 77.3438 64.6847C77.7167 64.6847 78.0744 64.8362 78.3381 65.1058C78.6018 65.3754 78.75 65.7411 78.75 66.1224V73.3106C78.7501 73.4994 78.7138 73.6864 78.6432 73.8609C78.5725 74.0354 78.469 74.1939 78.3384 74.3274C78.2078 74.4609 78.0527 74.5668 77.882 74.639C77.7114 74.7112 77.5285 74.7484 77.3438 74.7482Z" fill="white"/>
<path d="M71.7188 74.7482C71.534 74.7484 71.3511 74.7112 71.1805 74.639C71.0098 74.5668 70.8547 74.4609 70.7241 74.3274C70.5935 74.1939 70.49 74.0354 70.4193 73.8609C70.3487 73.6864 70.3124 73.4994 70.3125 73.3106V66.1224C70.3125 65.7411 70.4607 65.3754 70.7244 65.1058C70.9881 64.8362 71.3458 64.6847 71.7188 64.6847C72.0917 64.6847 72.4494 64.8362 72.7131 65.1058C72.9768 65.3754 73.125 65.7411 73.125 66.1224V73.3106C73.1251 73.4994 73.0888 73.6864 73.0182 73.8609C72.9475 74.0354 72.844 74.1939 72.7134 74.3274C72.5828 74.4609 72.4277 74.5668 72.257 74.639C72.0864 74.7112 71.9035 74.7484 71.7188 74.7482Z" fill="white"/>
<path d="M84.375 68.9977C84.1903 68.9978 84.0074 68.9607 83.8367 68.8884C83.6661 68.8162 83.511 68.7103 83.3804 68.5768C83.2498 68.4433 83.1462 68.2848 83.0756 68.1103C83.005 67.9358 82.9686 67.7488 82.9688 67.56V67.5571C82.7843 67.5571 82.6016 67.52 82.4311 67.4478C82.2607 67.3756 82.1058 67.2698 81.9754 67.1365C81.8449 67.0031 81.7414 66.8448 81.6708 66.6705C81.6002 66.4963 81.5639 66.3095 81.5639 66.1209C81.5639 65.9323 81.6002 65.7456 81.6708 65.5713C81.7414 65.3971 81.8449 65.2387 81.9754 65.1054C82.1058 64.972 82.2607 64.8662 82.4311 64.794C82.6016 64.7219 82.7843 64.6847 82.9688 64.6847C83.7144 64.6857 84.4292 64.989 84.9564 65.528C85.4837 66.067 85.7803 66.7977 85.7812 67.56C85.7814 67.7488 85.745 67.9358 85.6744 68.1103C85.6038 68.2848 85.5002 68.4433 85.3696 68.5768C85.239 68.7103 85.0839 68.8162 84.9133 68.8884C84.7426 68.9607 84.5597 68.9978 84.375 68.9977Z" fill="white"/>
<path d="M84.375 68.9977C84.1903 68.9978 84.0074 68.9607 83.8367 68.8884C83.6661 68.8162 83.511 68.7103 83.3804 68.5768C83.2498 68.4433 83.1462 68.2848 83.0756 68.1103C83.005 67.9358 82.9686 67.7488 82.9688 67.56C82.9697 66.7977 83.2663 66.067 83.7936 65.528C84.3208 64.989 85.0356 64.6857 85.7812 64.6847C86.1542 64.6847 86.5119 64.8362 86.7756 65.1058C87.0393 65.3754 87.1875 65.7411 87.1875 66.1224C87.1875 66.5037 87.0393 66.8693 86.7756 67.1389C86.5119 67.4085 86.1542 67.56 85.7812 67.56C85.7814 67.7488 85.745 67.9358 85.6744 68.1103C85.6038 68.2848 85.5002 68.4433 85.3696 68.5768C85.239 68.7103 85.0839 68.8162 84.9133 68.8884C84.7426 68.9607 84.5597 68.9978 84.375 68.9977Z" fill="white"/>
<path d="M82.9688 67.56H81.5625C81.1895 67.56 80.8319 67.4085 80.5681 67.1389C80.3044 66.8693 80.1562 66.5037 80.1562 66.1224C80.1562 65.7411 80.3044 65.3754 80.5681 65.1058C80.8319 64.8362 81.1895 64.6847 81.5625 64.6847H82.9688C83.3417 64.6847 83.6994 64.8362 83.9631 65.1058C84.2268 65.3754 84.375 65.7411 84.375 66.1224C84.375 66.5037 84.2268 66.8693 83.9631 67.1389C83.6994 67.4085 83.3417 67.56 82.9688 67.56Z" fill="white"/>
<path d="M87.1875 67.56H85.7812C85.4083 67.56 85.0506 67.4085 84.7869 67.1389C84.5232 66.8693 84.375 66.5037 84.375 66.1224C84.375 65.7411 84.5232 65.3754 84.7869 65.1058C85.0506 64.8362 85.4083 64.6847 85.7812 64.6847H87.1875C87.5605 64.6847 87.9181 64.8362 88.1819 65.1058C88.4456 65.3754 88.5938 65.7411 88.5938 66.1224C88.5938 66.5037 88.4456 66.8693 88.1819 67.1389C87.9181 67.4085 87.5605 67.56 87.1875 67.56Z" fill="white"/>
<path d="M87.1875 92C87.0028 92.0001 86.8199 91.963 86.6492 91.8908C86.4786 91.8186 86.3235 91.7127 86.1929 91.5792C86.0623 91.4456 85.9587 91.2871 85.8881 91.1126C85.8175 90.9382 85.7811 90.7512 85.7812 90.5624V66.1224C85.7812 65.7411 85.9294 65.3754 86.1931 65.1058C86.4569 64.8362 86.8145 64.6847 87.1875 64.6847C87.5605 64.6847 87.9181 64.8362 88.1819 65.1058C88.4456 65.3754 88.5938 65.7411 88.5938 66.1224V90.5624C88.5939 90.7512 88.5575 90.9382 88.4869 91.1126C88.4163 91.2871 88.3127 91.4456 88.1821 91.5792C88.0515 91.7127 87.8964 91.8186 87.7258 91.8908C87.5551 91.963 87.3722 92.0001 87.1875 92Z" fill="white"/>
<path d="M81.5625 74.7482C81.3778 74.7484 81.1949 74.7112 81.0242 74.639C80.8536 74.5668 80.6985 74.4609 80.5679 74.3274C80.4373 74.1939 80.3337 74.0354 80.2631 73.8609C80.1925 73.6864 80.1561 73.4994 80.1562 73.3106V66.1224C80.1562 65.7411 80.3044 65.3754 80.5681 65.1058C80.8319 64.8362 81.1895 64.6847 81.5625 64.6847C81.9355 64.6847 82.2931 64.8362 82.5569 65.1058C82.8206 65.3754 82.9688 65.7411 82.9688 66.1224V73.3106C82.9689 73.4994 82.9325 73.6864 82.8619 73.8609C82.7913 74.0354 82.6877 74.1939 82.5571 74.3274C82.4265 74.4609 82.2714 74.5668 82.1008 74.639C81.9301 74.7112 81.7472 74.7484 81.5625 74.7482Z" fill="white"/>
<path d="M61.875 74.7482H56.9531C56.5802 74.7482 56.2225 74.5968 55.9588 74.3272C55.695 74.0576 55.5469 73.6919 55.5469 73.3106C55.5469 72.9293 55.695 72.5636 55.9588 72.294C56.2225 72.0244 56.5802 71.873 56.9531 71.873H61.875C62.248 71.873 62.6056 72.0244 62.8694 72.294C63.1331 72.5636 63.2812 72.9293 63.2812 73.3106C63.2812 73.6919 63.1331 74.0576 62.8694 74.3272C62.6056 74.5968 62.248 74.7482 61.875 74.7482Z" fill="white"/>
<path d="M71.7188 74.7482H67.5C67.127 74.7482 66.7694 74.5968 66.5056 74.3272C66.2419 74.0576 66.0938 73.6919 66.0938 73.3106C66.0938 72.9293 66.2419 72.5636 66.5056 72.294C66.7694 72.0244 67.127 71.873 67.5 71.873H71.7188C72.0917 71.873 72.4494 72.0244 72.7131 72.294C72.9768 72.5636 73.125 72.9293 73.125 73.3106C73.125 73.6919 72.9768 74.0576 72.7131 74.3272C72.4494 74.5968 72.0917 74.7482 71.7188 74.7482Z" fill="white"/>
<path d="M81.5625 74.7482H77.3438C76.9708 74.7482 76.6131 74.5968 76.3494 74.3272C76.0857 74.0576 75.9375 73.6919 75.9375 73.3106C75.9375 72.9293 76.0857 72.5636 76.3494 72.294C76.6131 72.0244 76.9708 71.873 77.3438 71.873H81.5625C81.9355 71.873 82.2931 72.0244 82.5569 72.294C82.8206 72.5636 82.9688 72.9293 82.9688 73.3106C82.9688 73.6919 82.8206 74.0576 82.5569 74.3272C82.2931 74.5968 81.9355 74.7482 81.5625 74.7482Z" fill="white"/>
<path d="M25.3125 68.9977C25.1278 68.9978 24.9449 68.9607 24.7742 68.8884C24.6036 68.8162 24.4485 68.7103 24.3179 68.5768C24.1873 68.4433 24.0837 68.2848 24.0131 68.1103C23.9424 67.9358 23.9061 67.7488 23.9062 67.56C23.9072 66.7977 24.2038 66.067 24.7311 65.528C25.2583 64.989 25.9731 64.6857 26.7188 64.6847C27.0917 64.6847 27.4494 64.8362 27.7131 65.1058C27.9768 65.3754 28.125 65.7411 28.125 66.1224C28.125 66.5037 27.9768 66.8693 27.7131 67.1389C27.4494 67.4085 27.0917 67.56 26.7188 67.56C26.7189 67.7488 26.6826 67.9358 26.6119 68.1103C26.5413 68.2848 26.4377 68.4433 26.3071 68.5768C26.1765 68.7103 26.0214 68.8162 25.8508 68.8884C25.6801 68.9607 25.4972 68.9978 25.3125 68.9977Z" fill="white"/>
<path d="M25.3125 68.9977C25.1278 68.9978 24.9449 68.9607 24.7742 68.8884C24.6036 68.8162 24.4485 68.7103 24.3179 68.5768C24.1873 68.4433 24.0837 68.2848 24.0131 68.1103C23.9424 67.9358 23.9061 67.7488 23.9062 67.56V67.5571C23.7218 67.5571 23.5391 67.52 23.3686 67.4478C23.1982 67.3756 23.0433 67.2698 22.9129 67.1365C22.7824 67.0031 22.6789 66.8448 22.6083 66.6705C22.5377 66.4963 22.5014 66.3095 22.5014 66.1209C22.5014 65.9323 22.5377 65.7456 22.6083 65.5713C22.6789 65.3971 22.7824 65.2387 22.9129 65.1054C23.0433 64.972 23.1982 64.8662 23.3686 64.794C23.5391 64.7219 23.7218 64.6847 23.9062 64.6847C24.6519 64.6857 25.3667 64.989 25.8939 65.528C26.4212 66.067 26.7178 66.7977 26.7188 67.56C26.7189 67.7488 26.6826 67.9358 26.6119 68.1103C26.5413 68.2848 26.4377 68.4433 26.3071 68.5768C26.1765 68.7103 26.0214 68.8162 25.8508 68.8884C25.6801 68.9607 25.4972 68.9978 25.3125 68.9977Z" fill="white"/>
<path d="M28.125 67.56H26.7188C26.3458 67.56 25.9881 67.4085 25.7244 67.1389C25.4607 66.8693 25.3125 66.5037 25.3125 66.1224C25.3125 65.7411 25.4607 65.3754 25.7244 65.1058C25.9881 64.8362 26.3458 64.6847 26.7188 64.6847H28.125C28.498 64.6847 28.8556 64.8362 29.1194 65.1058C29.3831 65.3754 29.5312 65.7411 29.5312 66.1224C29.5312 66.5037 29.3831 66.8693 29.1194 67.1389C28.8556 67.4085 28.498 67.56 28.125 67.56Z" fill="white"/>
<path d="M23.9062 67.56H22.5C22.127 67.56 21.7694 67.4085 21.5056 67.1389C21.2419 66.8693 21.0938 66.5037 21.0938 66.1224C21.0938 65.7411 21.2419 65.3754 21.5056 65.1058C21.7694 64.8362 22.127 64.6847 22.5 64.6847H23.9062C24.2792 64.6847 24.6369 64.8362 24.9006 65.1058C25.1643 65.3754 25.3125 65.7411 25.3125 66.1224C25.3125 66.5037 25.1643 66.8693 24.9006 67.1389C24.6369 67.4085 24.2792 67.56 23.9062 67.56Z" fill="white"/>
<path d="M22.5 74.7482C22.3153 74.7484 22.1324 74.7112 21.9617 74.639C21.7911 74.5668 21.636 74.4609 21.5054 74.3274C21.3748 74.1939 21.2712 74.0354 21.2006 73.8609C21.1299 73.6864 21.0936 73.4994 21.0938 73.3106V66.1224C21.0938 65.7411 21.2419 65.3754 21.5056 65.1058C21.7694 64.8362 22.127 64.6847 22.5 64.6847C22.873 64.6847 23.2306 64.8362 23.4944 65.1058C23.7581 65.3754 23.9062 65.7411 23.9062 66.1224V73.3106C23.9064 73.4994 23.8701 73.6864 23.7994 73.8609C23.7288 74.0354 23.6252 74.1939 23.4946 74.3274C23.364 74.4609 23.2089 74.5668 23.0383 74.639C22.8676 74.7112 22.6847 74.7484 22.5 74.7482Z" fill="white"/>
<path d="M28.125 74.7482C27.9403 74.7484 27.7574 74.7112 27.5867 74.639C27.4161 74.5668 27.261 74.4609 27.1304 74.3274C26.9998 74.1939 26.8962 74.0354 26.8256 73.8609C26.7549 73.6864 26.7186 73.4994 26.7188 73.3106V66.1224C26.7188 65.7411 26.8669 65.3754 27.1306 65.1058C27.3944 64.8362 27.752 64.6847 28.125 64.6847C28.498 64.6847 28.8556 64.8362 29.1194 65.1058C29.3831 65.3754 29.5312 65.7411 29.5312 66.1224V73.3106C29.5314 73.4994 29.4951 73.6864 29.4244 73.8609C29.3538 74.0354 29.2502 74.1939 29.1196 74.3274C28.989 74.4609 28.8339 74.5668 28.6633 74.639C28.4926 74.7112 28.3097 74.7484 28.125 74.7482Z" fill="white"/>
<path d="M15.4688 68.9977C15.284 68.9978 15.1011 68.9607 14.9305 68.8884C14.7598 68.8162 14.6047 68.7103 14.4741 68.5768C14.3435 68.4433 14.24 68.2848 14.1693 68.1103C14.0987 67.9358 14.0624 67.7488 14.0625 67.56C14.0635 66.7977 14.3601 66.067 14.8873 65.528C15.4146 64.989 16.1294 64.6857 16.875 64.6847C17.248 64.6847 17.6056 64.8362 17.8694 65.1058C18.1331 65.3754 18.2812 65.7411 18.2812 66.1224C18.2812 66.5037 18.1331 66.8693 17.8694 67.1389C17.6056 67.4085 17.248 67.56 16.875 67.56C16.8751 67.7488 16.8388 67.9358 16.7682 68.1103C16.6975 68.2848 16.594 68.4433 16.4634 68.5768C16.3328 68.7103 16.1777 68.8162 16.007 68.8884C15.8364 68.9607 15.6535 68.9978 15.4688 68.9977Z" fill="white"/>
<path d="M15.4688 68.9977C15.284 68.9978 15.1011 68.9607 14.9305 68.8884C14.7598 68.8162 14.6047 68.7103 14.4741 68.5768C14.3435 68.4433 14.24 68.2848 14.1693 68.1103C14.0987 67.9358 14.0624 67.7488 14.0625 67.56V67.5571C13.878 67.5571 13.6953 67.52 13.5249 67.4478C13.3544 67.3756 13.1996 67.2698 13.0691 67.1365C12.9387 67.0031 12.8352 66.8448 12.7646 66.6705C12.694 66.4963 12.6577 66.3095 12.6577 66.1209C12.6577 65.9323 12.694 65.7456 12.7646 65.5713C12.8352 65.3971 12.9387 65.2387 13.0691 65.1054C13.1996 64.972 13.3544 64.8662 13.5249 64.794C13.6953 64.7219 13.878 64.6847 14.0625 64.6847C14.8081 64.6857 15.5229 64.989 16.0502 65.528C16.5774 66.067 16.874 66.7977 16.875 67.56C16.8751 67.7488 16.8388 67.9358 16.7682 68.1103C16.6975 68.2848 16.594 68.4433 16.4634 68.5768C16.3328 68.7103 16.1777 68.8162 16.007 68.8884C15.8364 68.9607 15.6535 68.9978 15.4688 68.9977Z" fill="white"/>
<path d="M18.2812 67.56H16.875C16.502 67.56 16.1444 67.4085 15.8806 67.1389C15.6169 66.8693 15.4688 66.5037 15.4688 66.1224C15.4688 65.7411 15.6169 65.3754 15.8806 65.1058C16.1444 64.8362 16.502 64.6847 16.875 64.6847H18.2812C18.6542 64.6847 19.0119 64.8362 19.2756 65.1058C19.5393 65.3754 19.6875 65.7411 19.6875 66.1224C19.6875 66.5037 19.5393 66.8693 19.2756 67.1389C19.0119 67.4085 18.6542 67.56 18.2812 67.56Z" fill="white"/>
<path d="M14.0625 67.56H12.6562C12.2833 67.56 11.9256 67.4085 11.6619 67.1389C11.3982 66.8693 11.25 66.5037 11.25 66.1224C11.25 65.7411 11.3982 65.3754 11.6619 65.1058C11.9256 64.8362 12.2833 64.6847 12.6562 64.6847H14.0625C14.4355 64.6847 14.7931 64.8362 15.0569 65.1058C15.3206 65.3754 15.4688 65.7411 15.4688 66.1224C15.4688 66.5037 15.3206 66.8693 15.0569 67.1389C14.7931 67.4085 14.4355 67.56 14.0625 67.56Z" fill="white"/>
<path d="M12.6562 74.7482C12.4715 74.7484 12.2886 74.7112 12.118 74.639C11.9473 74.5668 11.7922 74.4609 11.6616 74.3274C11.531 74.1939 11.4275 74.0354 11.3568 73.8609C11.2862 73.6864 11.2499 73.4994 11.25 73.3106V66.1224C11.25 65.7411 11.3982 65.3754 11.6619 65.1058C11.9256 64.8362 12.2833 64.6847 12.6562 64.6847C13.0292 64.6847 13.3869 64.8362 13.6506 65.1058C13.9143 65.3754 14.0625 65.7411 14.0625 66.1224V73.3106C14.0626 73.4994 14.0263 73.6864 13.9557 73.8609C13.885 74.0354 13.7815 74.1939 13.6509 74.3274C13.5203 74.4609 13.3652 74.5668 13.1945 74.639C13.0239 74.7112 12.841 74.7484 12.6562 74.7482Z" fill="white"/>
<path d="M18.2812 74.7482C18.0965 74.7484 17.9136 74.7112 17.743 74.639C17.5723 74.5668 17.4172 74.4609 17.2866 74.3274C17.156 74.1939 17.0525 74.0354 16.9818 73.8609C16.9112 73.6864 16.8749 73.4994 16.875 73.3106V66.1224C16.875 65.7411 17.0232 65.3754 17.2869 65.1058C17.5506 64.8362 17.9083 64.6847 18.2812 64.6847C18.6542 64.6847 19.0119 64.8362 19.2756 65.1058C19.5393 65.3754 19.6875 65.7411 19.6875 66.1224V73.3106C19.6876 73.4994 19.6513 73.6864 19.5807 73.8609C19.51 74.0354 19.4065 74.1939 19.2759 74.3274C19.1453 74.4609 18.9902 74.5668 18.8195 74.639C18.6489 74.7112 18.466 74.7484 18.2812 74.7482Z" fill="white"/>
<path d="M5.625 68.9977C5.4403 68.9978 5.25739 68.9607 5.08673 68.8884C4.91607 68.8162 4.761 68.7103 4.6304 68.5768C4.49979 68.4433 4.39621 68.2848 4.32558 68.1103C4.25495 67.9358 4.21864 67.7488 4.21875 67.56C4.21972 66.7977 4.51634 66.067 5.04358 65.528C5.57082 64.989 6.28563 64.6857 7.03125 64.6847C7.40421 64.6847 7.7619 64.8362 8.02562 65.1058C8.28934 65.3754 8.4375 65.7411 8.4375 66.1224C8.4375 66.5037 8.28934 66.8693 8.02562 67.1389C7.7619 67.4085 7.40421 67.56 7.03125 67.56C7.03136 67.7488 6.99505 67.9358 6.92442 68.1103C6.85379 68.2848 6.75021 68.4433 6.6196 68.5768C6.489 68.7103 6.33393 68.8162 6.16327 68.8884C5.99261 68.9607 5.8097 68.9978 5.625 68.9977Z" fill="white"/>
<path d="M5.625 68.9977C5.4403 68.9978 5.25739 68.9607 5.08673 68.8884C4.91607 68.8162 4.761 68.7103 4.6304 68.5768C4.49979 68.4433 4.39621 68.2848 4.32558 68.1103C4.25495 67.9358 4.21864 67.7488 4.21875 67.56V67.5571C4.03426 67.5571 3.85158 67.52 3.68114 67.4478C3.5107 67.3756 3.35583 67.2698 3.22538 67.1365C3.09492 67.0031 2.99144 66.8448 2.92084 66.6705C2.85024 66.4963 2.81391 66.3095 2.81391 66.1209C2.81391 65.9323 2.85024 65.7456 2.92084 65.5713C2.99144 65.3971 3.09492 65.2387 3.22538 65.1054C3.35583 64.972 3.5107 64.8662 3.68114 64.794C3.85158 64.7219 4.03426 64.6847 4.21875 64.6847C4.96437 64.6857 5.67918 64.989 6.20642 65.528C6.73366 66.067 7.03028 66.7977 7.03125 67.56C7.03136 67.7488 6.99505 67.9358 6.92442 68.1103C6.85379 68.2848 6.75021 68.4433 6.6196 68.5768C6.489 68.7103 6.33393 68.8162 6.16327 68.8884C5.99261 68.9607 5.8097 68.9978 5.625 68.9977Z" fill="white"/>
<path d="M8.4375 67.56H7.03125C6.65829 67.56 6.3006 67.4085 6.03688 67.1389C5.77316 66.8693 5.625 66.5037 5.625 66.1224C5.625 65.7411 5.77316 65.3754 6.03688 65.1058C6.3006 64.8362 6.65829 64.6847 7.03125 64.6847H8.4375C8.81046 64.6847 9.16815 64.8362 9.43187 65.1058C9.69559 65.3754 9.84375 65.7411 9.84375 66.1224C9.84375 66.5037 9.69559 66.8693 9.43187 67.1389C9.16815 67.4085 8.81046 67.56 8.4375 67.56Z" fill="white"/>
<path d="M4.21875 67.56H2.8125C2.43954 67.56 2.08185 67.4085 1.81813 67.1389C1.55441 66.8693 1.40625 66.5037 1.40625 66.1224C1.40625 65.7411 1.55441 65.3754 1.81813 65.1058C2.08185 64.8362 2.43954 64.6847 2.8125 64.6847H4.21875C4.59171 64.6847 4.9494 64.8362 5.21312 65.1058C5.47684 65.3754 5.625 65.7411 5.625 66.1224C5.625 66.5037 5.47684 66.8693 5.21312 67.1389C4.9494 67.4085 4.59171 67.56 4.21875 67.56Z" fill="white"/>
<path d="M2.8125 92C2.6278 92.0001 2.44489 91.963 2.27423 91.8908C2.10356 91.8186 1.9485 91.7127 1.8179 91.5792C1.68729 91.4456 1.58371 91.2871 1.51308 91.1126C1.44245 90.9382 1.40614 90.7512 1.40625 90.5624V66.1224C1.40625 65.7411 1.55441 65.3754 1.81813 65.1058C2.08185 64.8362 2.43954 64.6847 2.8125 64.6847C3.18546 64.6847 3.54315 64.8362 3.80687 65.1058C4.07059 65.3754 4.21875 65.7411 4.21875 66.1224V90.5624C4.21886 90.7512 4.18255 90.9382 4.11192 91.1126C4.04129 91.2871 3.93771 91.4456 3.8071 91.5792C3.6765 91.7127 3.52143 91.8186 3.35077 91.8908C3.18011 91.963 2.9972 92.0001 2.8125 92Z" fill="white"/>
<path d="M8.4375 74.7482C8.2528 74.7484 8.06989 74.7112 7.89923 74.639C7.72857 74.5668 7.5735 74.4609 7.4429 74.3274C7.31229 74.1939 7.20871 74.0354 7.13808 73.8609C7.06745 73.6864 7.03114 73.4994 7.03125 73.3106V66.1224C7.03125 65.7411 7.17941 65.3754 7.44313 65.1058C7.70685 64.8362 8.06454 64.6847 8.4375 64.6847C8.81046 64.6847 9.16815 64.8362 9.43187 65.1058C9.69559 65.3754 9.84375 65.7411 9.84375 66.1224V73.3106C9.84385 73.4994 9.80755 73.6864 9.73692 73.8609C9.66629 74.0354 9.56271 74.1939 9.4321 74.3274C9.3015 74.4609 9.14643 74.5668 8.97577 74.639C8.80511 74.7112 8.6222 74.7484 8.4375 74.7482Z" fill="white"/>
<path d="M33.0469 74.7482H28.125C27.752 74.7482 27.3944 74.5968 27.1306 74.3272C26.8669 74.0576 26.7188 73.6919 26.7188 73.3106C26.7188 72.9293 26.8669 72.5636 27.1306 72.294C27.3944 72.0244 27.752 71.873 28.125 71.873H33.0469C33.4198 71.873 33.7775 72.0244 34.0412 72.294C34.305 72.5636 34.4531 72.9293 34.4531 73.3106C34.4531 73.6919 34.305 74.0576 34.0412 74.3272C33.7775 74.5968 33.4198 74.7482 33.0469 74.7482Z" fill="white"/>
<path d="M22.5 74.7482H18.2812C17.9083 74.7482 17.5506 74.5968 17.2869 74.3272C17.0232 74.0576 16.875 73.6919 16.875 73.3106C16.875 72.9293 17.0232 72.5636 17.2869 72.294C17.5506 72.0244 17.9083 71.873 18.2812 71.873H22.5C22.873 71.873 23.2306 72.0244 23.4944 72.294C23.7581 72.5636 23.9062 72.9293 23.9062 73.3106C23.9062 73.6919 23.7581 74.0576 23.4944 74.3272C23.2306 74.5968 22.873 74.7482 22.5 74.7482Z" fill="white"/>
<path d="M12.6562 74.7482H8.4375C8.06454 74.7482 7.70685 74.5968 7.44313 74.3272C7.17941 74.0576 7.03125 73.6919 7.03125 73.3106C7.03125 72.9293 7.17941 72.5636 7.44313 72.294C7.70685 72.0244 8.06454 71.873 8.4375 71.873H12.6562C13.0292 71.873 13.3869 72.0244 13.6506 72.294C13.9143 72.5636 14.0625 72.9293 14.0625 73.3106C14.0625 73.6919 13.9143 74.0576 13.6506 74.3272C13.3869 74.5968 13.0292 74.7482 12.6562 74.7482Z" fill="white"/>
<path d="M88.5938 92H1.40625C1.03329 92 0.675604 91.8485 0.411881 91.5789C0.148158 91.3093 0 90.9436 0 90.5624C0 90.1811 0.148158 89.8154 0.411881 89.5458C0.675604 89.2762 1.03329 89.1247 1.40625 89.1247H88.5938C88.9667 89.1247 89.3244 89.2762 89.5881 89.5458C89.8518 89.8154 90 90.1811 90 90.5624C90 90.9436 89.8518 91.3093 89.5881 91.5789C89.3244 91.8485 88.9667 92 88.5938 92Z" fill="white"/>
<path d="M45 73.3106C44.8153 73.3107 44.6324 73.2736 44.4617 73.2014C44.2911 73.1292 44.136 73.0233 44.0054 72.8898C43.8748 72.7562 43.7712 72.5977 43.7006 72.4232C43.6299 72.2488 43.5936 72.0618 43.5938 71.873V70.4353C43.5938 70.054 43.7419 69.6883 44.0056 69.4187C44.2694 69.1491 44.627 68.9977 45 68.9977C45.373 68.9977 45.7306 69.1491 45.9944 69.4187C46.2581 69.6883 46.4062 70.054 46.4062 70.4353V71.873C46.4064 72.0618 46.3701 72.2488 46.2994 72.4232C46.2288 72.5977 46.1252 72.7562 45.9946 72.8898C45.864 73.0233 45.7089 73.1292 45.5383 73.2014C45.3676 73.2736 45.1847 73.3107 45 73.3106Z" fill="white"/>
<path d="M47.1094 7.17887C46.9247 7.17908 46.7418 7.14198 46.5711 7.06969C46.4005 6.9974 46.2456 6.89135 46.1152 6.75764L41.8964 2.4447C41.6367 2.1743 41.4919 1.80996 41.4935 1.43098C41.4952 1.05199 41.6432 0.689017 41.9054 0.421031C42.1675 0.153044 42.5226 0.00173104 42.8933 1.47602e-05C43.264 -0.00170152 43.6203 0.146318 43.8848 0.411866L48.1036 4.7248C48.3002 4.92586 48.4341 5.182 48.4883 5.46083C48.5426 5.73967 48.5147 6.02869 48.4083 6.29134C48.3019 6.554 48.1217 6.77851 47.8905 6.93648C47.6593 7.09446 47.3875 7.17881 47.1094 7.17887Z" fill="white"/>
<path d="M42.8906 7.17887C42.6125 7.17881 42.3407 7.09446 42.1095 6.93648C41.8783 6.77851 41.6981 6.554 41.5917 6.29134C41.4853 6.02869 41.4574 5.73967 41.5117 5.46083C41.5659 5.182 41.6998 4.92586 41.8964 4.7248L46.1152 0.411866C46.3797 0.146318 46.736 -0.00170152 47.1067 1.47602e-05C47.4774 0.00173104 47.8325 0.153044 48.0946 0.421031C48.3568 0.689017 48.5048 1.05199 48.5065 1.43098C48.5081 1.80996 48.3633 2.1743 48.1036 2.4447L43.8848 6.75764C43.7544 6.89135 43.5995 6.9974 43.4289 7.06969C43.2582 7.14198 43.0753 7.17908 42.8906 7.17887Z" fill="white"/>
</svg>
