<svg width="74" height="76" viewBox="0 0 74 76" fill="none" xmlns="http://www.w3.org/2000/svg">
<path d="M27.1333 69.871H17.2667C16.9396 69.871 16.6259 70.0001 16.3946 70.23C16.1633 70.4599 16.0333 70.7717 16.0333 71.0968C16.0333 71.4219 16.1633 71.7337 16.3946 71.9636C16.6259 72.1934 16.9396 72.3226 17.2667 72.3226H27.1333C27.4604 72.3226 27.7741 72.1934 28.0054 71.9636C28.2367 71.7337 28.3667 71.4219 28.3667 71.0968C28.3667 70.7717 28.2367 70.4599 28.0054 70.23C27.7741 70.0001 27.4604 69.871 27.1333 69.871Z" fill="white"/>
<path d="M69.6833 23.2903H44.4V4.29032C44.3987 3.15284 43.9435 2.06231 43.1343 1.258C42.325 0.453676 41.2278 0.00125726 40.0833 0H4.31667C3.1722 0.00125726 2.07498 0.453676 1.26572 1.258C0.456462 2.06231 0.00126498 3.15284 0 4.29032V71.7097C0.00126498 72.8472 0.456462 73.9377 1.26572 74.742C2.07498 75.5463 3.1722 75.9987 4.31667 76H40.0833C41.2278 75.9987 42.325 75.5463 43.1343 74.742C43.9435 73.9377 44.3987 72.8472 44.4 71.7097V53.9355H69.6833C70.8278 53.9342 71.925 53.4818 72.7343 52.6775C73.5435 51.8732 73.9987 50.7826 74 49.6452V27.5806C73.9987 26.4432 73.5435 25.3526 72.7343 24.5483C71.925 23.744 70.8278 23.2916 69.6833 23.2903ZM28.0198 2.45161L27.4031 4.90323H16.9969L16.3802 2.45161H28.0198ZM41.9333 71.7097C41.9329 72.1972 41.7379 72.6647 41.391 73.0094C41.0442 73.3541 40.5739 73.548 40.0833 73.5484H4.31667C3.82614 73.548 3.35582 73.3541 3.00897 73.0094C2.66212 72.6647 2.46707 72.1972 2.46667 71.7097V4.29032C2.46707 3.80279 2.66212 3.33534 3.00897 2.99061C3.35582 2.64587 3.82614 2.45202 4.31667 2.45161H13.8365L14.837 6.42629C14.9037 6.69148 15.0577 6.92691 15.2744 7.09515C15.4912 7.26339 15.7583 7.3548 16.0333 7.35484H28.3667C28.6417 7.3548 28.9088 7.26339 29.1256 7.09515C29.3423 6.92691 29.4963 6.69148 29.563 6.42629L30.5635 2.45161H40.0833C40.5739 2.45202 41.0442 2.64587 41.391 2.99061C41.7379 3.33534 41.9329 3.80279 41.9333 4.29032V71.7097ZM44.4 41.6774H48.1V46.5806H44.4V41.6774ZM71.5333 49.6452C71.5329 50.1327 71.3379 50.6001 70.991 50.9449C70.6442 51.2896 70.1739 51.4835 69.6833 51.4839H44.4V49.0323H49.3333C49.6604 49.0323 49.9741 48.9031 50.2054 48.6732C50.4367 48.4433 50.5667 48.1316 50.5667 47.8065V40.4516C50.5667 40.1265 50.4367 39.8147 50.2054 39.5848C49.9741 39.355 49.6604 39.2258 49.3333 39.2258H44.4V35.5484H71.5333V49.6452ZM71.5333 33.0968H44.4V30.6452H71.5333V33.0968ZM71.5333 28.1935H44.4V25.7419H69.6833C70.1739 25.7423 70.6442 25.9362 70.991 26.2809C71.3379 26.6257 71.5329 27.0931 71.5333 27.5806V28.1935Z" fill="white"/>
<path d="M67.8333 39.2258H56.7333C56.4062 39.2258 56.0925 39.355 55.8612 39.5848C55.6299 39.8147 55.5 40.1265 55.5 40.4516C55.5 40.7767 55.6299 41.0885 55.8612 41.3184C56.0925 41.5483 56.4062 41.6774 56.7333 41.6774H67.8333C68.1604 41.6774 68.4741 41.5483 68.7054 41.3184C68.9367 41.0885 69.0667 40.7767 69.0667 40.4516C69.0667 40.1265 68.9367 39.8147 68.7054 39.5848C68.4741 39.355 68.1604 39.2258 67.8333 39.2258Z" fill="white"/>
<path d="M67.8333 42.9032H56.7333C56.4062 42.9032 56.0925 43.0324 55.8612 43.2623C55.6299 43.4921 55.5 43.8039 55.5 44.129C55.5 44.4541 55.6299 44.7659 55.8612 44.9958C56.0925 45.2257 56.4062 45.3548 56.7333 45.3548H67.8333C68.1604 45.3548 68.4741 45.2257 68.7054 44.9958C68.9367 44.7659 69.0667 44.4541 69.0667 44.129C69.0667 43.8039 68.9367 43.4921 68.7054 43.2623C68.4741 43.0324 68.1604 42.9032 67.8333 42.9032Z" fill="white"/>
<path d="M67.8333 46.5806H62.9C62.5729 46.5806 62.2592 46.7098 62.0279 46.9397C61.7966 47.1696 61.6667 47.4813 61.6667 47.8065C61.6667 48.1316 61.7966 48.4433 62.0279 48.6732C62.2592 48.9031 62.5729 49.0323 62.9 49.0323H67.8333C68.1604 49.0323 68.4741 48.9031 68.7054 48.6732C68.9367 48.4433 69.0667 48.1316 69.0667 47.8065C69.0667 47.4813 68.9367 47.1696 68.7054 46.9397C68.4741 46.7098 68.1604 46.5806 67.8333 46.5806Z" fill="white"/>
<path d="M22.2 23.2903C19.2728 23.2903 16.4114 24.153 13.9776 25.7694C11.5437 27.3857 9.64676 29.683 8.52658 32.3708C7.40641 35.0587 7.11332 38.0163 7.68438 40.8697C8.25544 43.7231 9.665 46.3441 11.7348 48.4013C13.8046 50.4585 16.4417 51.8595 19.3127 52.427C22.1836 52.9946 25.1594 52.7033 27.8637 51.59C30.5681 50.4766 32.8795 48.5913 34.5057 46.1723C36.132 43.7533 37 40.9093 37 38C36.9956 34.1001 35.4349 30.3612 32.6603 27.6035C29.8857 24.8459 26.1239 23.2947 22.2 23.2903ZM22.2 50.2581C19.7607 50.2581 17.3762 49.5391 15.348 48.1922C13.3198 46.8453 11.739 44.9308 10.8055 42.691C9.87201 40.4511 9.62776 37.9864 10.1036 35.6086C10.5795 33.2307 11.7542 31.0466 13.479 29.3322C15.2039 27.6179 17.4015 26.4505 19.7939 25.9775C22.1863 25.5045 24.6661 25.7472 26.9198 26.675C29.1734 27.6028 31.0996 29.174 32.4548 31.1898C33.81 33.2056 34.5333 35.5756 34.5333 38C34.5296 41.2499 33.229 44.3657 30.9169 46.6637C28.6047 48.9617 25.4699 50.2544 22.2 50.2581Z" fill="white"/>
<path d="M28.7279 33.4558L20.8509 41.2847L16.7733 38.2452C16.5117 38.0501 16.1827 37.9663 15.8589 38.0123C15.5351 38.0583 15.2429 38.2302 15.0467 38.4903C14.8504 38.7504 14.7661 39.0773 14.8124 39.3992C14.8587 39.721 15.0317 40.0114 15.2933 40.2065L20.2267 43.8839C20.4642 44.0609 20.758 44.1469 21.0541 44.126C21.3502 44.1051 21.6289 43.9787 21.8388 43.77L30.4721 35.1894C30.7034 34.9595 30.8334 34.6477 30.8334 34.3226C30.8334 33.9975 30.7034 33.6857 30.4721 33.4558C30.2408 33.2259 29.9271 33.0967 29.6 33.0967C29.2729 33.0967 28.9592 33.2259 28.7279 33.4558Z" fill="white"/>
</svg>
