<svg width="86" height="81" viewBox="0 0 86 81" fill="none" xmlns="http://www.w3.org/2000/svg">
<path d="M32.766 29.8479C33.1461 29.8479 33.5107 29.6947 33.7795 29.4221C34.0483 29.1494 34.1993 28.7795 34.1993 28.3939V24.3023C34.1993 23.9167 34.0483 23.5469 33.7795 23.2742C33.5107 23.0015 33.1461 22.8483 32.766 22.8483C32.3859 22.8483 32.0213 23.0015 31.7525 23.2742C31.4837 23.5469 31.3327 23.9167 31.3327 24.3023V28.3939C31.3327 28.7795 31.4837 29.1494 31.7525 29.4221C32.0213 29.6947 32.3859 29.8479 32.766 29.8479Z" fill="white"/>
<path d="M43 29.8479C43.3801 29.8479 43.7447 29.6947 44.0135 29.4221C44.2823 29.1494 44.4333 28.7795 44.4333 28.3939V24.3023C44.4333 23.9167 44.2823 23.5469 44.0135 23.2742C43.7447 23.0015 43.3801 22.8483 43 22.8483C42.6199 22.8483 42.2553 23.0015 41.9865 23.2742C41.7177 23.5469 41.5667 23.9167 41.5667 24.3023V28.3939C41.5667 28.7795 41.7177 29.1494 41.9865 29.4221C42.2553 29.6947 42.6199 29.8479 43 29.8479Z" fill="white"/>
<path d="M53.234 29.8479C53.6141 29.8479 53.9787 29.6947 54.2475 29.4221C54.5163 29.1494 54.6673 28.7795 54.6673 28.3939V24.3023C54.6673 23.9167 54.5163 23.5469 54.2475 23.2742C53.9787 23.0015 53.6141 22.8483 53.234 22.8483C52.8539 22.8483 52.4893 23.0015 52.2205 23.2742C51.9517 23.5469 51.8007 23.9167 51.8007 24.3023V28.3939C51.8007 28.7795 51.9517 29.1494 52.2205 29.4221C52.4893 29.6947 52.8539 29.8479 53.234 29.8479Z" fill="white"/>
<path d="M32.766 43.3746C33.1461 43.3746 33.5107 43.2214 33.7795 42.9487C34.0483 42.676 34.1993 42.3062 34.1993 41.9206V37.829C34.1993 37.4434 34.0483 37.0735 33.7795 36.8008C33.5107 36.5282 33.1461 36.375 32.766 36.375C32.3859 36.375 32.0213 36.5282 31.7525 36.8008C31.4837 37.0735 31.3327 37.4434 31.3327 37.829V41.9206C31.3327 42.3062 31.4837 42.676 31.7525 42.9487C32.0213 43.2214 32.3859 43.3746 32.766 43.3746Z" fill="white"/>
<path d="M43 43.3746C43.3801 43.3746 43.7447 43.2214 44.0135 42.9487C44.2823 42.676 44.4333 42.3062 44.4333 41.9206V37.829C44.4333 37.4434 44.2823 37.0735 44.0135 36.8008C43.7447 36.5282 43.3801 36.375 43 36.375C42.6199 36.375 42.2553 36.5282 41.9865 36.8008C41.7177 37.0735 41.5667 37.4434 41.5667 37.829V41.9206C41.5667 42.3062 41.7177 42.676 41.9865 42.9487C42.2553 43.2214 42.6199 43.3746 43 43.3746Z" fill="white"/>
<path d="M53.234 43.3746C53.6141 43.3746 53.9787 43.2214 54.2475 42.9487C54.5163 42.676 54.6673 42.3062 54.6673 41.9206V37.829C54.6673 37.4434 54.5163 37.0735 54.2475 36.8008C53.9787 36.5282 53.6141 36.375 53.234 36.375C52.8539 36.375 52.4893 36.5282 52.2205 36.8008C51.9517 37.0735 51.8007 37.4434 51.8007 37.829V41.9206C51.8007 42.3062 51.9517 42.676 52.2205 42.9487C52.4893 43.2214 52.8539 43.3746 53.234 43.3746Z" fill="white"/>
<path d="M34.1993 55.4472V51.3556C34.1993 50.97 34.0483 50.6002 33.7795 50.3275C33.5107 50.0548 33.1461 49.9016 32.766 49.9016C32.3859 49.9016 32.0213 50.0548 31.7525 50.3275C31.4837 50.6002 31.3327 50.97 31.3327 51.3556V55.4472C31.3327 55.8329 31.4837 56.2027 31.7525 56.4754C32.0213 56.748 32.3859 56.9012 32.766 56.9012C33.1461 56.9012 33.5107 56.748 33.7795 56.4754C34.0483 56.2027 34.1993 55.8329 34.1993 55.4472Z" fill="white"/>
<path d="M43 56.9012C43.3801 56.9012 43.7447 56.748 44.0135 56.4754C44.2823 56.2027 44.4333 55.8329 44.4333 55.4472V51.3556C44.4333 50.97 44.2823 50.6002 44.0135 50.3275C43.7447 50.0548 43.3801 49.9016 43 49.9016C42.6199 49.9016 42.2553 50.0548 41.9865 50.3275C41.7177 50.6002 41.5667 50.97 41.5667 51.3556V55.4472C41.5667 55.8329 41.7177 56.2027 41.9865 56.4754C42.2553 56.748 42.6199 56.9012 43 56.9012Z" fill="white"/>
<path d="M53.234 56.9012C53.6141 56.9012 53.9787 56.748 54.2475 56.4754C54.5163 56.2027 54.6673 55.8329 54.6673 55.4472V51.3556C54.6673 50.97 54.5163 50.6002 54.2475 50.3275C53.9787 50.0548 53.6141 49.9016 53.234 49.9016C52.8539 49.9016 52.4893 50.0548 52.2205 50.3275C51.9517 50.6002 51.8007 50.97 51.8007 51.3556V55.4472C51.8007 55.8329 51.9517 56.2027 52.2205 56.4754C52.4893 56.748 52.8539 56.9012 53.234 56.9012Z" fill="white"/>
<path d="M15.3438 40.4666C14.9637 40.4666 14.5991 40.6198 14.3303 40.8924C14.0615 41.1651 13.9105 41.5349 13.9105 41.9206V44.99C13.9105 45.3756 14.0615 45.7454 14.3303 46.0181C14.5991 46.2908 14.9637 46.444 15.3438 46.444C15.724 46.444 16.0886 46.2908 16.3574 46.0181C16.6262 45.7454 16.7772 45.3756 16.7772 44.99V41.9206C16.7772 41.5349 16.6262 41.1651 16.3574 40.8924C16.0886 40.6198 15.724 40.4666 15.3438 40.4666Z" fill="white"/>
<path d="M15.3438 53.9932C14.9637 53.9932 14.5991 54.1464 14.3303 54.4191C14.0615 54.6918 13.9105 55.0616 13.9105 55.4472V58.5166C13.9105 58.9023 14.0615 59.2721 14.3303 59.5448C14.5991 59.8175 14.9637 59.9706 15.3438 59.9706C15.724 59.9706 16.0886 59.8175 16.3574 59.5448C16.6262 59.2721 16.7772 58.9023 16.7772 58.5166V55.4472C16.7772 55.0616 16.6262 54.6918 16.3574 54.4191C16.0886 54.1464 15.724 53.9932 15.3438 53.9932Z" fill="white"/>
<path d="M15.3438 67.5199C14.9637 67.5199 14.5991 67.6731 14.3303 67.9457C14.0615 68.2184 13.9105 68.5883 13.9105 68.9739V72.0433C13.9105 72.4289 14.0615 72.7988 14.3303 73.0714C14.5991 73.3441 14.9637 73.4973 15.3438 73.4973C15.724 73.4973 16.0886 73.3441 16.3574 73.0714C16.6262 72.7988 16.7772 72.4289 16.7772 72.0433V68.9739C16.7772 68.5883 16.6262 68.2184 16.3574 67.9457C16.0886 67.6731 15.724 67.5199 15.3438 67.5199Z" fill="white"/>
<path d="M84.5667 78.0833H78.68V35.2903C78.68 34.9047 78.529 34.5348 78.2601 34.2621C77.9913 33.9895 77.6268 33.8363 77.2466 33.8363H65.5033V14.0719C65.5033 13.6863 65.3523 13.3165 65.0835 13.0438C64.8147 12.7711 64.4501 12.6179 64.07 12.6179H58.6018V6.4529C58.6018 6.06727 58.4508 5.69744 58.182 5.42476C57.9132 5.15208 57.5486 4.99889 57.1685 4.99889H44.4333V1.45401C44.4333 1.06838 44.2823 0.69855 44.0135 0.42587C43.7447 0.15319 43.3801 0 43 0C42.6199 0 42.2553 0.15319 41.9865 0.42587C41.7177 0.69855 41.5667 1.06838 41.5667 1.45401V4.99889H28.8172C28.437 4.99889 28.0724 5.15208 27.8036 5.42476C27.5348 5.69744 27.3838 6.06727 27.3838 6.4529V12.6179H21.93C21.5499 12.6179 21.1853 12.7711 20.9165 13.0438C20.6477 13.3165 20.4967 13.6863 20.4967 14.0719V33.8363H8.74333C8.36319 33.8363 7.99862 33.9895 7.72981 34.2621C7.46101 34.5348 7.31 34.9047 7.31 35.2903V78.0833H1.43333C1.05319 78.0833 0.688616 78.2365 0.419814 78.5091C0.151011 78.7818 0 79.1516 0 79.5373C0 79.9229 0.151011 80.2927 0.419814 80.5654C0.688616 80.8381 1.05319 80.9913 1.43333 80.9913H21.8927C21.9071 80.9913 21.9185 81 21.9343 81H64.07C64.0858 81 64.0972 80.9913 64.1116 80.9913H84.5667C84.9468 80.9913 85.3114 80.8381 85.5802 80.5654C85.849 80.2927 86 79.9229 86 79.5373C86 79.1516 85.849 78.7818 85.5802 78.5091C85.3114 78.2365 84.9468 78.0833 84.5667 78.0833ZM75.8133 36.7443V78.0833H65.5033V36.7443H75.8133ZM30.2505 7.90691H55.7352V12.6179H30.2505V7.90691ZM10.1838 36.7443H20.5038V78.0833H10.1838V36.7443ZM23.3705 15.5259H62.6367V78.092H50.2527V64.9637H51.8064C52.1865 64.9637 52.5511 64.8105 52.8199 64.5379C53.0887 64.2652 53.2397 63.8953 53.2397 63.5097C53.2397 63.1241 53.0887 62.7543 52.8199 62.4816C52.5511 62.2089 52.1865 62.0557 51.8064 62.0557H34.1936C33.8135 62.0557 33.4489 62.2089 33.1801 62.4816C32.9113 62.7543 32.7603 63.1241 32.7603 63.5097C32.7603 63.8953 32.9113 64.2652 33.1801 64.5379C33.4489 64.8105 33.8135 64.9637 34.1936 64.9637H35.7473V78.092H23.3633L23.3705 15.5259ZM38.6169 64.9623H47.3889V78.0905H38.614L38.6169 64.9623Z" fill="white"/>
<path d="M70.6633 46.444C71.0435 46.444 71.4081 46.2908 71.6768 46.0181C71.9457 45.7454 72.0967 45.3756 72.0967 44.99V41.9206C72.0967 41.5349 71.9457 41.1651 71.6768 40.8924C71.4081 40.6198 71.0435 40.4666 70.6633 40.4666C70.2832 40.4666 69.9186 40.6198 69.6498 40.8924C69.381 41.1651 69.23 41.5349 69.23 41.9206V44.99C69.23 45.3756 69.381 45.7454 69.6498 46.0181C69.9186 46.2908 70.2832 46.444 70.6633 46.444Z" fill="white"/>
<path d="M70.6633 59.9706C71.0435 59.9706 71.4081 59.8175 71.6768 59.5448C71.9457 59.2721 72.0967 58.9023 72.0967 58.5166V55.4472C72.0967 55.0616 71.9457 54.6918 71.6768 54.4191C71.4081 54.1464 71.0435 53.9932 70.6633 53.9932C70.2832 53.9932 69.9186 54.1464 69.6498 54.4191C69.381 54.6918 69.23 55.0616 69.23 55.4472V58.5166C69.23 58.9023 69.381 59.2721 69.6498 59.5448C69.9186 59.8175 70.2832 59.9706 70.6633 59.9706Z" fill="white"/>
<path d="M70.6633 73.4973C71.0435 73.4973 71.4081 73.3441 71.6768 73.0714C71.9457 72.7988 72.0967 72.4289 72.0967 72.0433V68.9739C72.0967 68.5883 71.9457 68.2184 71.6768 67.9457C71.4081 67.6731 71.0435 67.5199 70.6633 67.5199C70.2832 67.5199 69.9186 67.6731 69.6498 67.9457C69.381 68.2184 69.23 68.5883 69.23 68.9739V72.0433C69.23 72.4289 69.381 72.7988 69.6498 73.0714C69.9186 73.3441 70.2832 73.4973 70.6633 73.4973Z" fill="white"/>
</svg>
