<svg width="77" height="77" viewBox="0 0 77 77" fill="none" xmlns="http://www.w3.org/2000/svg">
<path d="M73.6162 70.2324H73.165V46.0078C73.6517 45.9511 74.0606 45.6184 74.2063 45.1397C74.3664 44.6135 74.1671 44.0542 73.7104 43.7479L64.6024 37.6384C64.4165 37.5137 64.1978 37.4473 63.9741 37.4473H62.0033C61.3804 37.4473 60.8754 37.9523 60.8754 38.5752C60.8754 39.1981 61.3804 39.7031 62.0033 39.7031H63.6307L69.6842 43.7637H53.1631V39.7031H57.052C57.675 39.7031 58.18 39.1981 58.18 38.5752C58.18 37.9523 57.675 37.4473 57.052 37.4473H54.3662V34.7906C54.3662 33.7677 53.534 32.9355 52.5111 32.9355H52.5044C51.9174 32.3155 50.6281 30.8111 50.1804 29.1356C49.8318 27.831 48.6989 26.9199 47.4255 26.9199H43.2373V26.5439C43.2373 24.9477 42.4429 23.5343 41.2294 22.6756C41.6403 22.1154 41.8838 21.4251 41.8838 20.6787C41.8838 19.2082 40.9407 17.9545 39.6279 17.4889V14.2871H52.9375C53.5604 14.2871 54.0654 13.7821 54.0654 13.1592V1.12793C54.0654 0.505012 53.5604 0 52.9375 0H38.5C37.8771 0 37.3721 0.505012 37.3721 1.12793V17.4889C36.0593 17.9545 35.1162 19.2082 35.1162 20.6787C35.1162 21.4251 35.3595 22.1154 35.7706 22.6756C34.5572 23.5343 33.7627 24.9477 33.7627 26.5439V26.9199H29.5745C28.3011 26.9199 27.1682 27.8311 26.8196 29.1356C26.3717 30.8116 25.0817 32.3165 24.4956 32.9355H24.4889C23.4659 32.9355 22.6338 33.7678 22.6338 34.7906V37.4473H13.0259C12.8022 37.4473 12.5835 37.5137 12.3976 37.6384L3.28964 43.7479C2.83276 44.0542 2.63349 44.6135 2.79366 45.1397C2.93938 45.6184 3.3483 45.9511 3.83496 46.0078V48.0903C3.83496 48.7132 4.33997 49.2182 4.96289 49.2182C5.58581 49.2182 6.09082 48.7132 6.09082 48.0903V46.0195H70.9092V70.2324H67.751V64.2168C67.751 62.1852 66.098 60.5322 64.0664 60.5322C62.0348 60.5322 60.3818 62.1852 60.3818 64.2168V70.2324H57.5244V64.2168C57.5244 62.1852 55.8715 60.5322 53.8398 60.5322C51.8082 60.5322 50.1553 62.1852 50.1553 64.2168V70.2324H47.2979V64.2168C47.2979 62.1852 45.6449 60.5322 43.6133 60.5322C41.5817 60.5322 39.9287 62.1852 39.9287 64.2168V70.2324H37.0713V64.2168C37.0713 62.1852 35.4183 60.5322 33.3867 60.5322C31.3551 60.5322 29.7021 62.1852 29.7021 64.2168V70.2324H26.8447V64.2168C26.8447 62.1852 25.1918 60.5322 23.1602 60.5322C21.1285 60.5322 19.4756 62.1852 19.4756 64.2168V70.2324H16.6182V64.2168C16.6182 62.1852 14.9652 60.5322 12.9336 60.5322C10.902 60.5322 9.24902 62.1852 9.24902 64.2168V70.2324H6.09082V52.9028C6.09082 52.2798 5.58581 51.7748 4.96289 51.7748C4.33997 51.7748 3.83496 52.2798 3.83496 52.9028V70.2324H3.38379C1.51789 70.2324 0 71.7503 0 73.6162C0 75.4821 1.51789 77 3.38379 77H46.7715C47.3944 77 47.8994 76.495 47.8994 75.8721C47.8994 75.2492 47.3944 74.7441 46.7715 74.7441H3.38379C2.76177 74.7441 2.25586 74.2382 2.25586 73.6162C2.25586 72.9942 2.76177 72.4883 3.38379 72.4883H73.6162C74.2382 72.4883 74.7441 72.9942 74.7441 73.6162C74.7441 74.2382 74.2382 74.7441 73.6162 74.7441H51.6456C51.0227 74.7441 50.5177 75.2492 50.5177 75.8721C50.5177 76.495 51.0227 77 51.6456 77H73.6162C75.4821 77 77 75.4821 77 73.6162C77 71.7503 75.4821 70.2324 73.6162 70.2324ZM51.8096 8.02078H39.6279V6.26633H51.8096V8.02078ZM51.8096 12.0312H39.6279V10.2766H51.8096V12.0312ZM51.8096 4.01047H39.6279V2.25586H51.8096V4.01047ZM37.3721 20.6787C37.3721 20.0567 37.878 19.5508 38.5 19.5508C39.122 19.5508 39.6279 20.0567 39.6279 20.6787C39.6279 21.3007 39.122 21.8066 38.5 21.8066C37.878 21.8066 37.3721 21.3007 37.3721 20.6787ZM36.0186 26.5439C36.0186 25.1757 37.1317 24.0625 38.5 24.0625C39.8683 24.0625 40.9814 25.1757 40.9814 26.5439V26.9199H36.0186V26.5439ZM28.9991 29.7179C29.0843 29.3987 29.3211 29.1758 29.5746 29.1758H47.4255C47.6791 29.1758 47.9157 29.3988 48.0011 29.7181C48.3277 30.9405 48.9643 32.0558 49.5898 32.9355H27.4102C28.0357 32.0558 28.6723 30.9405 28.9991 29.7179ZM24.8896 35.1914H52.1104V37.4473H24.8896V35.1914ZM13.3691 39.7031H23.8369V43.7637H7.31575L13.3691 39.7031ZM47.8994 43.7637V41.7334C47.8994 41.1105 47.3944 40.6055 46.7715 40.6055C46.1486 40.6055 45.6436 41.1105 45.6436 41.7334V43.7637H42.385V41.7334C42.385 41.1105 41.88 40.6055 41.2571 40.6055C40.6342 40.6055 40.1292 41.1105 40.1292 41.7334V43.7637H36.8707V41.7334C36.8707 41.1105 36.3657 40.6055 35.7427 40.6055C35.1198 40.6055 34.6148 41.1105 34.6148 41.7334V43.7637H31.3564V41.7334C31.3564 41.1105 30.8514 40.6055 30.2285 40.6055C29.6056 40.6055 29.1006 41.1105 29.1006 41.7334V43.7637H26.0928V39.7031H50.9072V43.7637H47.8994ZM11.5049 70.2324V64.2168C11.5049 63.4291 12.1458 62.7881 12.9336 62.7881C13.7213 62.7881 14.3623 63.4291 14.3623 64.2168V70.2324H11.5049ZM21.7314 70.2324V64.2168C21.7314 63.4291 22.3724 62.7881 23.1602 62.7881C23.9479 62.7881 24.5889 63.4291 24.5889 64.2168V70.2324H21.7314ZM31.958 70.2324V64.2168C31.958 63.4291 32.599 62.7881 33.3867 62.7881C34.1745 62.7881 34.8154 63.4291 34.8154 64.2168V70.2324H31.958ZM42.1846 70.2324V64.2168C42.1846 63.4291 42.8255 62.7881 43.6133 62.7881C44.401 62.7881 45.042 63.4291 45.042 64.2168V70.2324H42.1846ZM52.4111 70.2324V64.2168C52.4111 63.4291 53.0521 62.7881 53.8398 62.7881C54.6276 62.7881 55.2686 63.4291 55.2686 64.2168V70.2324H52.4111ZM62.6377 70.2324V64.2168C62.6377 63.4291 63.2787 62.7881 64.0664 62.7881C64.8541 62.7881 65.4951 63.4291 65.4951 64.2168V70.2324H62.6377Z" fill="white"/>
<path d="M14.8887 57.4256C15.8423 57.4256 16.6182 56.6497 16.6182 55.6961V52.8387C16.6182 50.8071 14.9652 49.1541 12.9336 49.1541C10.902 49.1541 9.24902 50.8071 9.24902 52.8387V55.6961C9.24902 56.6497 10.0249 57.4256 10.9785 57.4256H14.8887ZM11.5049 52.8387C11.5049 52.0509 12.1458 51.41 12.9336 51.41C13.7213 51.41 14.3623 52.0509 14.3623 52.8387V55.1697H11.5049V52.8387Z" fill="white"/>
<path d="M25.1152 57.4256C26.0689 57.4256 26.8447 56.6497 26.8447 55.6961V52.8387C26.8447 50.8071 25.1918 49.1541 23.1602 49.1541C21.1285 49.1541 19.4756 50.8071 19.4756 52.8387V55.6961C19.4756 56.6497 20.2515 57.4256 21.2051 57.4256H25.1152ZM21.7314 52.8387C21.7314 52.0509 22.3724 51.41 23.1602 51.41C23.9479 51.41 24.5889 52.0509 24.5889 52.8387V55.1697H21.7314V52.8387Z" fill="white"/>
<path d="M35.3418 57.4256C36.2954 57.4256 37.0713 56.6497 37.0713 55.6961V52.8387C37.0713 50.8071 35.4183 49.1541 33.3867 49.1541C31.3551 49.1541 29.7021 50.8071 29.7021 52.8387V55.6961C29.7021 56.6497 30.478 57.4256 31.4316 57.4256H35.3418ZM31.958 52.8387C31.958 52.0509 32.599 51.41 33.3867 51.41C34.1745 51.41 34.8154 52.0509 34.8154 52.8387V55.1697H31.958V52.8387Z" fill="white"/>
<path d="M45.5684 57.4256C46.522 57.4256 47.2979 56.6497 47.2979 55.6961V52.8387C47.2979 50.8071 45.6449 49.1541 43.6133 49.1541C41.5817 49.1541 39.9287 50.8071 39.9287 52.8387V55.6961C39.9287 56.6497 40.7046 57.4256 41.6582 57.4256H45.5684ZM42.1846 52.8387C42.1846 52.0509 42.8255 51.41 43.6133 51.41C44.401 51.41 45.042 52.0509 45.042 52.8387V55.1697H42.1846V52.8387Z" fill="white"/>
<path d="M55.7949 57.4256C56.7486 57.4256 57.5244 56.6497 57.5244 55.6961V52.8387C57.5244 50.8071 55.8715 49.1541 53.8398 49.1541C51.8082 49.1541 50.1553 50.8071 50.1553 52.8387V55.6961C50.1553 56.6497 50.9311 57.4256 51.8848 57.4256H55.7949ZM52.4111 52.8387C52.4111 52.0509 53.0521 51.41 53.8398 51.41C54.6276 51.41 55.2686 52.0509 55.2686 52.8387V55.1697H52.4111V52.8387Z" fill="white"/>
<path d="M66.0215 57.4256C66.9751 57.4256 67.751 56.6497 67.751 55.6961V52.8387C67.751 50.8071 66.098 49.1541 64.0664 49.1541C62.0348 49.1541 60.3818 50.8071 60.3818 52.8387V55.6961C60.3818 56.6497 61.1577 57.4256 62.1113 57.4256H66.0215ZM62.6377 52.8387C62.6377 52.0509 63.2787 51.41 64.0664 51.41C64.8541 51.41 65.4951 52.0509 65.4951 52.8387V55.1697H62.6377V52.8387Z" fill="white"/>
</svg>
