<svg width="70" height="76" viewBox="0 0 70 76" fill="none" xmlns="http://www.w3.org/2000/svg">
<path d="M68.75 35.4667H57.5V6.33333C57.4957 2.83701 54.7003 0.00432944 51.25 0H10C7.23877 0 5 2.26862 5 5.06667V20.2667H1.25C0.559692 20.2667 0 20.8338 0 21.5333V29.1333C0 29.8328 0.559692 30.4 1.25 30.4H5V44.3333C5 45.0328 5.55969 45.6 6.25 45.6H12.5V70.9333C12.5 73.7314 14.7388 76 17.5 76H58.75C61.5112 76 63.75 73.7314 63.75 70.9333C63.75 68.1353 61.5112 65.8667 58.75 65.8667H57.5V45.6H68.75C69.4403 45.6 70 45.0328 70 44.3333V36.7333C70 36.0338 69.4403 35.4667 68.75 35.4667ZM7.5 5.06667C7.5 3.66764 8.61938 2.53333 10 2.53333C11.3806 2.53333 12.5 3.66764 12.5 5.06667V20.2667H7.5V5.06667ZM2.5 22.8H37.5C38.1287 22.8 38.6597 22.3275 38.7402 21.6954L43.0475 25.3333L38.7402 28.9713C38.6597 28.3392 38.1287 27.8667 37.5 27.8667H2.5V22.8ZM7.5 43.0667V30.4H12.5V43.0667H7.5ZM61.25 70.9333C61.25 72.3324 60.1306 73.4667 58.75 73.4667H21.8286C22.2699 72.6973 22.5012 71.8233 22.5 70.9333V68.4H58.75C60.1306 68.4 61.25 69.5343 61.25 70.9333ZM55 65.8667H21.25C20.5597 65.8667 20 66.4338 20 67.1333V70.9333C20 72.3324 18.8806 73.4667 17.5 73.4667C16.1194 73.4667 15 72.3324 15 70.9333V30.4H36.25V31.6667C36.25 32.1584 36.5308 32.6062 36.9702 32.8146C37.4097 33.023 37.9285 32.955 38.3014 32.6395L45.8014 26.3062C46.0858 26.0656 46.2506 25.7094 46.2506 25.3333C46.2506 24.9573 46.0858 24.601 45.8014 24.3604L38.3014 18.0271C37.9285 17.7117 37.4097 17.6437 36.9702 17.8521C36.5308 18.0605 36.25 18.5083 36.25 19V20.2667H15V5.06667C14.9957 4.1748 14.7565 3.30026 14.3073 2.53333H51.25C53.3209 2.53333 55 4.2348 55 6.33333V35.4667H33.75V34.2C33.75 33.7083 33.4692 33.2605 33.0298 33.0521C32.5903 32.8437 32.0715 32.9117 31.6986 33.2271L24.1986 39.5604C23.9142 39.801 23.7494 40.1573 23.7494 40.5333C23.7494 40.9094 23.9142 41.2656 24.1986 41.5062L31.6986 47.8396C32.0715 48.155 32.5903 48.223 33.0298 48.0146C33.4692 47.8062 33.75 47.3584 33.75 46.8667V45.6H55V65.8667ZM67.5 43.0667H32.5C32.3389 43.0673 32.1796 43.1001 32.0312 43.1632C31.9855 43.1873 31.9415 43.2145 31.8988 43.2442C31.8091 43.2912 31.7249 43.3487 31.6486 43.4161C31.6083 43.4619 31.571 43.5101 31.5375 43.5608C31.4764 43.632 31.4246 43.7099 31.3812 43.794C31.3568 43.8534 31.3379 43.9152 31.3239 43.9789C31.2976 44.0408 31.2769 44.1051 31.2622 44.1713L26.9525 40.5333L31.2598 36.8954C31.2744 36.9616 31.2952 37.0259 31.3214 37.0877C31.3348 37.1514 31.3544 37.2133 31.3788 37.2727C31.4215 37.3568 31.474 37.4347 31.535 37.5058C31.5686 37.5565 31.6058 37.6048 31.6461 37.6506C31.7224 37.718 31.8066 37.7755 31.8964 37.8225C31.9391 37.8522 31.983 37.8794 32.0288 37.9035C32.1777 37.9672 32.3383 38 32.5 38H67.5V43.0667Z" fill="white"/>
<path d="M20 7.6H32.5V10.1333H20V7.6Z" fill="white"/>
<path d="M20 12.6667H32.5V15.2H20V12.6667Z" fill="white"/>
<path d="M25 55.7333H50V58.2667H25V55.7333Z" fill="white"/>
<path d="M25 60.8H50V63.3333H25V60.8Z" fill="white"/>
<path d="M42.5 50.6667H50V53.2H42.5V50.6667Z" fill="white"/>
</svg>
