<svg width="76" height="76" viewBox="0 0 76 76" fill="none" xmlns="http://www.w3.org/2000/svg">
<path d="M70.0945 52.5038C71.0748 52.5038 71.8725 51.704 71.8725 50.721V47.6236H74.2052C75.1949 47.6236 76 46.8142 76 45.8195V41.7259C76 40.7312 75.1947 39.9218 74.2052 39.9218H70.9973V27.6227C71.3114 27.7013 71.6334 27.7428 71.9579 27.7428C72.3103 27.7428 72.6653 27.6961 73.0154 27.6015C74.058 27.32 74.9266 26.6495 75.4589 25.7171C75.9967 24.7831 76.1392 23.6913 75.8602 22.6428C75.581 21.5937 74.9143 20.7185 73.9833 20.1786L40.1626 0.553504C39.5433 0.191414 38.7954 0 37.9997 0C37.2041 0 36.4561 0.191414 35.8401 0.551714L2.01494 20.179C0.0892555 21.2993 -0.572184 23.7829 0.539765 25.7157C1.07711 26.6516 1.94696 27.3216 2.98944 27.6023C3.66127 27.7831 4.35121 27.787 5.00641 27.6228V39.9217H1.79852C0.808734 39.9217 0.00360676 40.731 0.00360676 41.7257V45.8194C0.00360676 46.8141 0.808883 47.6234 1.79852 47.6234H4.13107V50.7208C4.13107 51.704 4.92685 52.5037 5.90491 52.5037H7.24471V63.418H5.90491C4.92685 63.418 4.13107 64.2196 4.13107 65.205V68.2982H1.79852C0.808734 68.2982 0.00360676 69.1076 0.00360676 70.1023V74.196C0.00360676 75.1906 0.808883 76 1.79852 76H35.6773C36.2921 76 36.7906 75.499 36.7906 74.8811C36.7906 74.2631 36.2922 73.7621 35.6773 73.7621H2.23003V70.5361H73.7736V73.7621H40.8146C40.1997 73.7621 39.7013 74.2631 39.7013 74.8811C39.7013 75.499 40.1996 76 40.8146 76H74.2052C75.1949 76 76 75.1906 76 74.196V70.1023C76 69.1076 75.1947 68.2982 74.2052 68.2982H71.8725V65.205C71.8725 64.2196 71.0748 63.418 70.0945 63.418H68.7549V52.5037H70.0945V52.5038ZM4.93635 25.2616C4.51983 25.503 4.03325 25.5665 3.56538 25.4406C3.09795 25.3147 2.70815 25.0153 2.46827 24.5972C2.46797 24.5968 2.46783 24.5965 2.46753 24.596C1.96937 23.7309 2.26669 22.6182 3.12927 22.1164L36.9565 2.48793C37.2281 2.32904 37.6084 2.23789 37.9997 2.23789C38.3968 2.23789 38.7673 2.32666 39.0462 2.48972L72.8706 22.1167C73.2863 22.3578 73.5842 22.7501 73.7096 23.2212C73.8349 23.6918 73.7718 24.1801 73.5301 24.5998C73.2925 25.0159 72.9046 25.3144 72.4378 25.4406C71.9698 25.567 71.4835 25.5039 71.0678 25.262L38.5564 6.39618C38.3842 6.29622 38.192 6.24624 37.9997 6.24624C37.8075 6.24624 37.6153 6.29622 37.4431 6.39618L4.93635 25.2616ZM2.23003 42.1597H35.6773C36.2921 42.1597 36.7906 41.6587 36.7906 41.0408C36.7906 40.4228 36.2922 39.9218 35.6773 39.9218H7.23283V26.5128L37.9997 8.65719L68.7709 26.513V39.9218H40.6295C40.0146 39.9218 39.5162 40.4228 39.5162 41.0408C39.5162 41.6587 40.0145 42.1597 40.6295 42.1597H73.7736V45.3857H2.23003V42.1597ZM31.0977 50.2659V47.6236H44.9018V50.2659H31.0977ZM41.784 52.5038V63.4181H34.2154V52.5038H41.784ZM6.35764 50.2659V47.6236H20.1575V50.2659H6.35764ZM17.044 52.5038V63.4181H9.47128V52.5038H17.044ZM20.1575 68.2984H6.35764V65.656H20.1575V68.2984ZM28.8711 65.2052V68.2984H22.3839V65.2052C22.3839 64.2198 21.5883 63.4181 20.6101 63.4181H19.2704V52.5038H20.6101C21.5883 52.5038 22.3839 51.704 22.3839 50.721V47.6236H28.8711V50.721C28.8711 51.7042 29.6688 52.5038 30.6491 52.5038H31.9889V63.4181H30.6491C29.6688 63.4181 28.8711 64.2198 28.8711 65.2052ZM44.9018 68.2984H31.0977V65.656H44.9018V68.2984ZM53.6154 65.2052V68.2984H47.1282V65.2052C47.1282 64.2198 46.3305 63.4181 45.3502 63.4181H44.0106V52.5038H45.3502C46.3305 52.5038 47.1282 51.704 47.1282 50.721V47.6236H53.6154V50.721C53.6154 51.7042 54.4131 52.5038 55.3935 52.5038H56.7332V63.4181H55.3935C54.4131 63.4181 53.6154 64.2198 53.6154 65.2052ZM69.6461 65.656V68.2984H55.842V65.656H69.6461ZM58.9598 63.4181V52.5038H66.5283V63.4181H58.9598ZM55.842 50.2659V47.6236H69.6461V50.2659H55.842Z" fill="white"/>
<path d="M42.8407 17.5613C42.8407 14.9692 40.7427 12.8604 38.1637 12.8604C35.5848 12.8604 33.4868 14.9692 33.4868 17.5613C33.4868 20.1534 35.5848 22.2622 38.1637 22.2622C40.7427 22.2622 42.8407 20.1534 42.8407 17.5613ZM35.7133 17.5613C35.7133 16.2032 36.8127 15.0983 38.1637 15.0983C39.5148 15.0983 40.6142 16.2032 40.6142 17.5613C40.6142 18.9194 39.5148 20.0243 38.1637 20.0243C36.8127 20.0243 35.7133 18.9194 35.7133 17.5613Z" fill="white"/>
<path d="M24.5705 30.4292C24.876 29.9464 25.0556 29.3754 25.0556 28.7621C25.0556 27.0426 23.6637 25.6437 21.953 25.6437H19.4417C18.8267 25.6437 18.3284 26.1446 18.3284 26.7626V35.452C18.3284 35.7497 18.4464 36.0351 18.6563 36.245C18.8649 36.4538 19.1474 36.571 19.4417 36.571H19.4466C19.4466 36.571 21.7553 36.5607 22.3916 36.5607C24.2885 36.5607 25.832 35.0095 25.832 33.1028C25.8318 32.0267 25.34 31.064 24.5705 30.4292ZM21.953 27.8817C22.4361 27.8817 22.8291 28.2766 22.8291 28.7622C22.8291 29.2478 22.4361 29.6428 21.953 29.6428C21.7694 29.6428 20.555 29.6451 20.555 29.6451V27.8818L21.953 27.8817ZM22.3916 34.3229C22.0529 34.3229 21.2418 34.3259 20.555 34.3286V31.8847C20.719 31.8841 22.3916 31.8829 22.3916 31.8829C23.0609 31.8829 23.6054 32.4301 23.6054 33.103C23.6052 33.7757 23.0608 34.3229 22.3916 34.3229Z" fill="white"/>
<path d="M33.5573 26.4897C33.5536 26.4797 33.5496 26.4697 33.5457 26.4597C33.3431 25.964 32.8679 25.6438 32.3347 25.6438C32.3344 25.6438 32.334 25.6438 32.334 25.6438C31.8004 25.6441 31.3251 25.965 31.1229 26.4612C31.1195 26.4697 31.1161 26.4782 31.1129 26.4867L27.8666 35.0538C27.6477 35.6313 27.9362 36.2778 28.5108 36.4977C29.0847 36.7178 29.7285 36.4279 29.9474 35.8504L30.4828 34.4374H34.162L34.6913 35.8472C34.8595 36.2953 35.2832 36.5714 35.7331 36.5714C35.8637 36.5714 35.9966 36.5481 36.126 36.4991C36.7012 36.2808 36.9915 35.6352 36.7744 35.0571L33.5573 26.4897ZM31.3307 32.1996L32.3307 29.5607L33.3216 32.1996H31.3307Z" fill="white"/>
<path d="M46.2533 25.6438C46.2498 25.6438 46.2459 25.6438 46.2423 25.6438C45.6274 25.6498 45.1338 26.1555 45.1397 26.7735L45.1898 31.9621L41.1916 26.1432C40.9149 25.7402 40.4099 25.5652 39.9441 25.7108C39.4791 25.8566 39.1621 26.2894 39.1621 26.779V35.4523C39.1621 36.0703 39.6604 36.5713 40.2754 36.5713C40.8904 36.5713 41.3887 36.0703 41.3887 35.4523V30.3684L45.1944 35.9072C45.5199 36.3803 46.0642 36.5817 46.5803 36.4195C47.1068 36.2544 47.4471 35.7598 47.4471 35.1487L47.3663 26.752C47.3604 26.1376 46.8631 25.6438 46.2533 25.6438Z" fill="white"/>
<path d="M57.5866 34.647L53.6979 30.8763L57.2563 27.589C57.709 27.1708 57.7387 26.4629 57.3225 26.0078C56.9066 25.5529 56.2021 25.523 55.7495 25.9413L52.9074 28.5671V26.654C52.9074 26.036 52.409 25.535 51.7941 25.535C51.1791 25.535 50.6808 26.036 50.6808 26.654V35.4522C50.6808 36.0701 51.1791 36.5711 51.7941 36.5711C52.409 36.5711 52.9074 36.0701 52.9074 35.4522V33.2191L56.0407 36.2575C56.2567 36.467 56.5353 36.5713 56.8135 36.5713C57.1052 36.5713 57.3964 36.4568 57.6148 36.2293C58.0418 35.7844 58.0292 35.076 57.5866 34.647Z" fill="white"/>
</svg>
