<svg width="90" height="66" viewBox="0 0 90 66" fill="none" xmlns="http://www.w3.org/2000/svg">
<path d="M87.1789 46.3404C86.9942 46.3405 86.8114 46.3043 86.6407 46.2337C86.4701 46.1632 86.315 46.0598 86.1844 45.9294C86.0538 45.7989 85.9503 45.6441 85.8796 45.4737C85.809 45.3033 85.7727 45.1206 85.7728 44.9362V37.9149C85.7728 37.5425 85.921 37.1853 86.1847 36.9219C86.4483 36.6586 86.806 36.5106 87.1789 36.5106C87.5518 36.5106 87.9095 36.6586 88.1732 36.9219C88.4369 37.1853 88.585 37.5425 88.585 37.9149V44.9362C88.5851 45.1206 88.5488 45.3033 88.4782 45.4737C88.4076 45.6441 88.304 45.7989 88.1734 45.9294C88.0428 46.0598 87.8878 46.1632 87.7171 46.2337C87.5465 46.3043 87.3636 46.3405 87.1789 46.3404Z" fill="white"/>
<path d="M87.1803 39.3191C86.919 39.3194 86.6627 39.2469 86.4402 39.1098C86.2178 38.9727 86.0381 38.7764 85.9212 38.543L84.515 35.7345C84.4319 35.5694 84.3822 35.3897 84.3688 35.2055C84.3553 35.0212 84.3784 34.8362 84.4367 34.6609C84.495 34.4856 84.5873 34.3235 84.7084 34.1838C84.8295 34.0442 84.977 33.9299 85.1424 33.8472C85.3079 33.7646 85.488 33.7154 85.6725 33.7024C85.857 33.6895 86.0422 33.713 86.2176 33.7716C86.393 33.8302 86.5551 33.9228 86.6946 34.0441C86.8341 34.1653 86.9483 34.3129 87.0307 34.4783L88.4368 37.2868C88.544 37.5008 88.5946 37.7386 88.5839 37.9777C88.5732 38.2167 88.5016 38.4491 88.3757 38.6527C88.2498 38.8563 88.0739 39.0244 87.8647 39.141C87.6555 39.2577 87.4199 39.319 87.1803 39.3191Z" fill="white"/>
<path d="M85.7714 36.5106C85.5318 36.5105 85.2962 36.4492 85.087 36.3325C84.8778 36.2159 84.7019 36.0478 84.5761 35.8442C84.4502 35.6406 84.3785 35.4082 84.3678 35.1692C84.3571 34.9301 84.4078 34.6923 84.515 34.4783L85.9211 31.6698C86.0034 31.5044 86.1176 31.3568 86.2571 31.2355C86.3966 31.1143 86.5587 31.0217 86.7341 30.9631C86.9095 30.9044 87.0948 30.881 87.2793 30.8939C87.4638 30.9069 87.6439 30.9561 87.8093 31.0387C87.9747 31.1213 88.1222 31.2357 88.2433 31.3753C88.3644 31.515 88.4568 31.6771 88.515 31.8524C88.5733 32.0277 88.5964 32.2127 88.583 32.3969C88.5695 32.5812 88.5198 32.7609 88.4367 32.926L87.0306 35.7345C86.9137 35.9679 86.7339 36.1642 86.5115 36.3013C86.2891 36.4384 86.0328 36.5109 85.7714 36.5106Z" fill="white"/>
<path d="M87.1803 33.7021C86.9668 33.7019 86.756 33.6531 86.5641 33.5595C86.3722 33.4659 86.2041 33.3299 86.0726 33.1618C85.9411 32.9938 85.8496 32.798 85.805 32.5894C85.7605 32.3808 85.764 32.1648 85.8154 31.9578L87.2215 26.3408C87.3127 25.9805 87.5432 25.6711 87.8624 25.4803C88.1817 25.2895 88.5637 25.2329 88.9246 25.3229C89.2856 25.413 89.5961 25.6423 89.7881 25.9606C89.98 26.2789 90.0377 26.6602 89.9486 27.0209L88.5425 32.638C88.4669 32.9417 88.2918 33.2115 88.0449 33.4043C87.7981 33.5972 87.4937 33.702 87.1803 33.7021Z" fill="white"/>
<path d="M88.5864 28.0851C88.3251 28.0854 88.0688 28.0129 87.8464 27.8758C87.6239 27.7387 87.4442 27.5424 87.3273 27.3089L85.9212 24.5004C85.838 24.3354 85.7883 24.1556 85.7749 23.9714C85.7615 23.7872 85.7845 23.6021 85.8428 23.4268C85.9011 23.2515 85.9934 23.0894 86.1145 22.9498C86.2356 22.8102 86.3831 22.6958 86.5485 22.6132C86.714 22.5306 86.8941 22.4814 87.0786 22.4684C87.2631 22.4554 87.4483 22.4789 87.6237 22.5375C87.7991 22.5961 87.9612 22.6887 88.1007 22.81C88.2403 22.9313 88.3544 23.0789 88.4368 23.2443L89.8429 26.0528C89.9501 26.2668 90.0007 26.5046 89.99 26.7436C89.9793 26.9827 89.9077 27.215 89.7818 27.4186C89.6559 27.6222 89.48 27.7903 89.2708 27.907C89.0616 28.0236 88.826 28.0849 88.5864 28.0851Z" fill="white"/>
<path d="M87.1789 25.2766C86.9009 25.2765 86.6291 25.1941 86.3979 25.0398C86.1667 24.8855 85.9865 24.6662 85.8801 24.4097C85.7737 24.1531 85.7459 23.8708 85.8001 23.5985C85.8543 23.3261 85.9882 23.0759 86.1848 22.8795L87.5909 21.4753C87.721 21.343 87.8761 21.2377 88.0472 21.1656C88.2183 21.0934 88.402 21.0558 88.5877 21.055C88.7734 21.0542 88.9574 21.0901 89.1291 21.1607C89.3009 21.2312 89.4569 21.3351 89.5882 21.4662C89.7195 21.5974 89.8235 21.7532 89.8942 21.9247C89.9649 22.0962 90.0008 22.28 90 22.4655C89.9991 22.6509 89.9615 22.8344 89.8893 23.0052C89.8171 23.1761 89.7117 23.3309 89.5792 23.4609L88.173 24.8651C88.0427 24.9958 87.8877 25.0993 87.7171 25.17C87.5465 25.2406 87.3636 25.2768 87.1789 25.2766Z" fill="white"/>
<path d="M88.5864 23.8723C88.3251 23.8726 88.0688 23.8001 87.8464 23.663C87.6239 23.5259 87.4442 23.3296 87.3273 23.0962L85.9212 20.2877C85.838 20.1226 85.7883 19.9429 85.7749 19.7587C85.7615 19.5744 85.7845 19.3894 85.8428 19.2141C85.9011 19.0388 85.9934 18.8767 86.1145 18.737C86.2356 18.5974 86.3831 18.483 86.5485 18.4004C86.714 18.3178 86.8941 18.2686 87.0786 18.2556C87.2631 18.2427 87.4483 18.2661 87.6237 18.3248C87.7991 18.3834 87.9612 18.476 88.1007 18.5972C88.2403 18.7185 88.3544 18.8661 88.4368 19.0315L89.8429 21.84C89.9501 22.054 90.0007 22.2918 89.99 22.5309C89.9793 22.7699 89.9077 23.0023 89.7818 23.2059C89.6559 23.4095 89.48 23.5776 89.2708 23.6942C89.0616 23.8109 88.826 23.8722 88.5864 23.8723Z" fill="white"/>
<path d="M81.5531 22.4681C81.2101 22.4676 80.8792 22.342 80.6226 22.1148C80.3659 21.8877 80.2012 21.5747 80.1596 21.2348C80.1179 20.8948 80.202 20.5514 80.3962 20.2691C80.5904 19.9868 80.8812 19.7852 81.2139 19.7021L86.8383 18.2978C87.0176 18.2526 87.204 18.2431 87.387 18.2699C87.5699 18.2968 87.7458 18.3594 87.9044 18.4542C88.0631 18.549 88.2014 18.6742 88.3116 18.8225C88.4217 18.9708 88.5015 19.1394 88.5463 19.3185C88.5911 19.4977 88.6001 19.6839 88.5727 19.8665C88.5453 20.0491 88.4821 20.2245 88.3867 20.3827C88.2913 20.5409 88.1656 20.6787 88.0168 20.7883C87.868 20.8979 87.699 20.9771 87.5194 21.0213L81.895 22.4256C81.7832 22.4538 81.6684 22.4681 81.5531 22.4681Z" fill="white"/>
<path d="M77.3361 26.6809C77.0581 26.6808 76.7863 26.5984 76.5551 26.4441C76.3239 26.2898 76.1437 26.0705 76.0373 25.8139C75.9309 25.5574 75.9031 25.2751 75.9573 25.0027C76.0116 24.7304 76.1454 24.4802 76.342 24.2838L80.5604 20.071C80.6905 19.9387 80.8456 19.8334 81.0166 19.7613C81.1877 19.6892 81.3714 19.6516 81.5571 19.6508C81.7428 19.6499 81.9268 19.6858 82.0986 19.7564C82.2703 19.827 82.4263 19.9308 82.5576 20.062C82.689 20.1931 82.793 20.3489 82.8636 20.5205C82.9343 20.692 82.9703 20.8757 82.9694 21.0612C82.9686 21.2467 82.931 21.4301 82.8587 21.601C82.7865 21.7718 82.6811 21.9267 82.5486 22.0566L78.3303 26.2694C78.1999 26.4 78.0449 26.5036 77.8743 26.5742C77.7037 26.6448 77.5208 26.6811 77.3361 26.6809Z" fill="white"/>
<path d="M77.3361 26.6809C77.1825 26.681 77.0299 26.656 76.8844 26.6068L72.7347 25.2025C72.3814 25.0829 72.0902 24.828 71.9252 24.4939C71.7601 24.1598 71.7347 23.774 71.8545 23.4212C71.9743 23.0684 72.2296 22.7776 72.5641 22.6127C72.8986 22.4479 73.285 22.4225 73.6382 22.5421L77.7879 23.9464C78.1036 24.0533 78.371 24.2687 78.5424 24.5541C78.7139 24.8396 78.7782 25.1766 78.7239 25.5051C78.6696 25.8335 78.5003 26.132 78.2462 26.3474C77.992 26.5627 77.6695 26.6809 77.3361 26.6809Z" fill="white"/>
<path d="M61.8703 30.8936C61.5531 30.894 61.2451 30.7873 60.9963 30.5908C60.7475 30.3943 60.5726 30.1195 60.4999 29.8112C60.4272 29.5028 60.461 29.179 60.5959 28.8923C60.7308 28.6056 60.9587 28.3728 61.2428 28.2318L72.5603 22.6148C72.8941 22.4509 73.2792 22.4256 73.6315 22.5446C73.9839 22.6636 74.2746 22.9171 74.4402 23.2497C74.6058 23.5823 74.6328 23.9668 74.5152 24.3192C74.3975 24.6715 74.1449 24.963 73.8127 25.1298L62.4951 30.7469C62.301 30.8435 62.0872 30.8937 61.8703 30.8936Z" fill="white"/>
<path d="M33.7481 30.8936C33.6703 30.894 33.5927 30.8876 33.5161 30.8744L25.0794 29.4702C24.7116 29.4091 24.3831 29.2045 24.1663 28.9016C23.9495 28.5986 23.862 28.2221 23.9232 27.8547C23.9844 27.4874 24.1892 27.1594 24.4925 26.9428C24.7959 26.7263 25.173 26.6389 25.5408 26.7L33.9775 28.1043C34.3254 28.1621 34.6389 28.3485 34.8557 28.6263C35.0725 28.9042 35.1768 29.2533 35.1479 29.6044C35.1191 29.9554 34.9591 30.2829 34.6998 30.5217C34.4405 30.7605 34.1008 30.8932 33.7481 30.8936Z" fill="white"/>
<path d="M25.3086 29.4894C25.0908 29.4891 24.876 29.4384 24.6811 29.3413L21.8688 27.937C21.7032 27.8548 21.5555 27.7407 21.434 27.6014C21.3126 27.4621 21.2199 27.3002 21.1612 27.1251C21.1025 26.9499 21.079 26.7649 21.092 26.5806C21.105 26.3964 21.1542 26.2165 21.237 26.0513C21.3197 25.8861 21.4342 25.7388 21.574 25.6178C21.7138 25.4969 21.8761 25.4047 22.0517 25.3465C22.2272 25.2883 22.4125 25.2652 22.597 25.2786C22.7814 25.2921 22.9614 25.3417 23.1267 25.4247L25.9389 26.829C26.2224 26.9704 26.4497 27.2034 26.584 27.4901C26.7183 27.7768 26.7517 28.1004 26.6787 28.4084C26.6057 28.7164 26.4307 28.9908 26.182 29.187C25.9333 29.3832 25.6255 29.4898 25.3086 29.4894Z" fill="white"/>
<path d="M22.4978 28.0851C22.2751 28.0848 22.0556 28.0318 21.8574 27.9303C21.6593 27.8288 21.4881 27.6817 21.3579 27.5012C21.2277 27.3208 21.1423 27.112 21.1087 26.8921C21.0751 26.6723 21.0942 26.4476 21.1645 26.2365L22.5706 22.0238C22.6287 21.8485 22.7208 21.6864 22.8417 21.5467C22.9626 21.4071 23.11 21.2926 23.2752 21.2099C23.4405 21.1272 23.6205 21.0778 23.8049 21.0647C23.9893 21.0516 24.1745 21.0749 24.3499 21.1333C24.5252 21.1918 24.6873 21.2842 24.8269 21.4053C24.9664 21.5264 25.0807 21.6738 25.1631 21.839C25.2456 22.0043 25.2945 22.1841 25.3072 22.3683C25.32 22.5525 25.2962 22.7374 25.2372 22.9124L23.8311 27.1252C23.7379 27.4047 23.5589 27.6478 23.3196 27.8201C23.0803 27.9924 22.7928 28.0851 22.4978 28.0851Z" fill="white"/>
<path d="M23.9039 23.8723C23.5449 23.873 23.1994 23.7361 22.9386 23.4897L20.1264 20.8403C19.991 20.714 19.8819 20.5622 19.8055 20.3936C19.729 20.2251 19.6867 20.0431 19.6808 19.8581C19.675 19.6732 19.7058 19.4889 19.7715 19.3159C19.8372 19.1429 19.9365 18.9845 20.0637 18.85C20.1908 18.7154 20.3434 18.6072 20.5125 18.5317C20.6817 18.4561 20.8641 18.4147 21.0493 18.4098C21.2345 18.4049 21.4189 18.4365 21.5918 18.503C21.7647 18.5694 21.9228 18.6694 22.0569 18.797L24.8692 21.4464C25.0741 21.6394 25.2163 21.8894 25.2772 22.164C25.3382 22.4387 25.3152 22.7252 25.2112 22.9867C25.1072 23.2481 24.927 23.4723 24.6939 23.6302C24.4608 23.7881 24.1856 23.8725 23.9039 23.8723Z" fill="white"/>
<path d="M14.0611 28.0851C13.7817 28.0851 13.5086 28.0019 13.2767 27.8463C13.0449 27.6906 12.8647 27.4694 12.7592 27.211C12.6537 26.9527 12.6277 26.6687 12.6844 26.3955C12.7412 26.1223 12.8782 25.8722 13.0779 25.677L20.1085 18.8148C20.3759 18.5585 20.7338 18.418 21.1044 18.4238C21.475 18.4296 21.8283 18.5813 22.0874 18.8459C22.3466 19.1106 22.4907 19.4667 22.4883 19.8368C22.486 20.2069 22.3374 20.5612 22.0749 20.8225L15.0443 27.6847C14.7819 27.9418 14.4288 28.0856 14.0611 28.0851Z" fill="white"/>
<path d="M8.43808 30.8936C8.12114 30.894 7.81337 30.7875 7.56468 30.5913C7.31599 30.3951 7.14097 30.1207 7.06799 29.8127C6.99502 29.5047 7.02838 29.1811 7.16267 28.8944C7.29695 28.6077 7.52428 28.3747 7.80779 28.2332L13.4322 25.4247C13.7657 25.2592 14.1513 25.2325 14.5044 25.3505C14.8576 25.4685 15.1494 25.7216 15.316 26.0543C15.4825 26.3869 15.5101 26.7719 15.3928 27.1249C15.2755 27.4778 15.0227 27.7699 14.6901 27.937L9.06561 30.7455C8.87072 30.8427 8.65591 30.8934 8.43808 30.8936Z" fill="white"/>
<path d="M7.03196 36.5106C6.81838 36.5104 6.60766 36.4616 6.41574 36.368C6.22382 36.2744 6.05575 36.1384 5.92424 35.9703C5.79273 35.8023 5.70123 35.6065 5.65666 35.3979C5.6121 35.1893 5.61565 34.9733 5.66704 34.7663L7.07315 29.1493C7.11745 28.97 7.19673 28.8012 7.30645 28.6526C7.41618 28.504 7.55419 28.3784 7.71258 28.2831C7.87098 28.1879 8.04663 28.1248 8.22949 28.0974C8.41235 28.0701 8.59882 28.079 8.77821 28.1238C8.9576 28.1685 9.12638 28.2482 9.27489 28.3582C9.4234 28.4682 9.54872 28.6063 9.64366 28.7648C9.7386 28.9232 9.80131 29.0989 9.82818 29.2815C9.85505 29.4642 9.84556 29.6504 9.80025 29.8295L8.39414 35.4465C8.31857 35.7502 8.14341 36.02 7.89657 36.2128C7.64972 36.4057 7.34537 36.5105 7.03196 36.5106Z" fill="white"/>
<path d="M8.43526 42.1277C8.12186 42.1275 7.81751 42.0227 7.57066 41.8299C7.32381 41.637 7.14866 41.3673 7.07309 41.0635L5.66698 35.4465C5.62167 35.2675 5.61218 35.0813 5.63905 34.8986C5.66592 34.7159 5.72862 34.5403 5.82357 34.3818C5.91851 34.2234 6.04383 34.0852 6.19234 33.9752C6.34085 33.8652 6.50963 33.7855 6.68902 33.7408C6.86841 33.696 7.05488 33.6871 7.23773 33.7144C7.42059 33.7418 7.59625 33.8049 7.75464 33.9002C7.91304 33.9954 8.05105 34.121 8.16078 34.2696C8.2705 34.4182 8.34978 34.587 8.39408 34.7663L9.80019 40.3833C9.85158 40.5903 9.85512 40.8063 9.81056 41.0149C9.766 41.2235 9.6745 41.4193 9.54299 41.5874C9.41148 41.7554 9.2434 41.8914 9.05149 41.985C8.85957 42.0786 8.64885 42.1274 8.43526 42.1277Z" fill="white"/>
<path d="M4.21834 43.5319C3.8846 43.5318 3.56178 43.4132 3.30761 43.1972C3.05344 42.9812 2.8845 42.6819 2.831 42.3529C2.7775 42.024 2.84293 41.6867 3.01559 41.4015C3.18825 41.1162 3.45688 40.9017 3.77343 40.7961L7.99176 39.3918C8.16699 39.333 8.35212 39.3092 8.53655 39.3219C8.72098 39.3346 8.90109 39.3835 9.06657 39.4658C9.23205 39.5482 9.37964 39.6623 9.5009 39.8016C9.62215 39.941 9.71469 40.1029 9.7732 40.278C9.83172 40.4531 9.85507 40.6381 9.84191 40.8222C9.82875 41.0064 9.77935 41.1862 9.69652 41.3512C9.6137 41.5163 9.49909 41.6634 9.35924 41.7842C9.2194 41.9049 9.05708 41.997 8.88158 42.055L4.66324 43.4592C4.51983 43.5072 4.36959 43.5318 4.21834 43.5319Z" fill="white"/>
<path d="M4.21693 43.5319C3.99909 43.5317 3.78428 43.481 3.5894 43.3838L0.777172 41.9796C0.444494 41.8124 0.191766 41.5204 0.0744269 41.1674C-0.0429121 40.8145 -0.0152813 40.4295 0.151258 40.0968C0.317798 39.7642 0.609647 39.5111 0.962788 39.3931C1.31593 39.275 1.70153 39.3017 2.035 39.4673L4.84722 40.8715C5.13072 41.013 5.35805 41.246 5.49234 41.5327C5.62662 41.8194 5.65998 42.143 5.58701 42.451C5.51404 42.759 5.33901 43.0334 5.09032 43.2296C4.84163 43.4258 4.53386 43.5323 4.21693 43.5319Z" fill="white"/>
<path d="M7.03197 53.4975C6.79854 53.4978 6.5687 53.4401 6.36323 53.3295C6.15776 53.2189 5.98314 53.0589 5.85516 52.8639L0.230715 44.3026C0.129372 44.1485 0.0594242 43.9759 0.0248659 43.7947C-0.00969243 43.6136 -0.00818463 43.4274 0.0293032 43.2468C0.066791 43.0663 0.139525 42.8948 0.243351 42.7423C0.347178 42.5898 0.480065 42.4593 0.634424 42.358C0.788783 42.2568 0.961591 42.187 1.14298 42.1525C1.32437 42.118 1.5108 42.1195 1.69161 42.1569C1.87241 42.1943 2.04407 42.267 2.19677 42.3707C2.34947 42.4743 2.48022 42.6071 2.58157 42.7612L8.20601 51.3225C8.34517 51.5342 8.42443 51.7795 8.43539 52.0325C8.44636 52.2855 8.38862 52.5367 8.2683 52.7596C8.14797 52.9825 7.96954 53.1687 7.75189 53.2986C7.53424 53.4285 7.28552 53.4972 7.03197 53.4975Z" fill="white"/>
<path d="M1.40611 44.9362C1.22143 44.9363 1.03854 44.9 0.867892 44.8295C0.697247 44.759 0.542196 44.6555 0.411606 44.5251C0.281015 44.3947 0.177446 44.2398 0.10682 44.0694C0.0361931 43.899 -0.000105131 43.7164 2.28705e-07 43.5319V40.7234C2.28705e-07 40.351 0.148144 39.9938 0.411841 39.7304C0.675538 39.4671 1.03319 39.3191 1.40611 39.3191C1.77904 39.3191 2.13669 39.4671 2.40038 39.7304C2.66408 39.9938 2.81222 40.351 2.81222 40.7234V43.5319C2.81233 43.7164 2.77603 43.899 2.7054 44.0694C2.63478 44.2398 2.53121 44.3947 2.40062 44.5251C2.27003 44.6555 2.11498 44.759 1.94433 44.8295C1.77369 44.9 1.59079 44.9363 1.40611 44.9362Z" fill="white"/>
<path d="M7.25713 53.3617C6.98404 53.3617 6.71686 53.2824 6.4882 53.1332C6.25954 52.9841 6.07931 52.7718 5.9695 52.5221C5.8597 52.2724 5.82509 51.9961 5.86988 51.7271C5.91468 51.4581 6.03695 51.2079 6.22176 51.0071L8.80742 48.1986C8.93239 48.0628 9.08291 47.9529 9.25039 47.8752C9.41788 47.7976 9.59905 47.7536 9.78355 47.7458C9.96806 47.738 10.1523 47.7666 10.3257 47.83C10.4992 47.8933 10.6584 47.9901 10.7944 48.1149C10.9303 48.2397 11.0404 48.3901 11.1182 48.5573C11.196 48.7246 11.24 48.9055 11.2478 49.0898C11.2556 49.274 11.2269 49.458 11.1635 49.6312C11.1001 49.8045 11.0031 49.9635 10.8781 50.0993L8.29249 52.9078C8.16094 53.0511 8.00094 53.1655 7.82268 53.2436C7.64441 53.3218 7.45181 53.362 7.25713 53.3617Z" fill="white"/>
<path d="M9.84419 50.5532C9.52726 50.5536 9.21949 50.447 8.97079 50.2508C8.7221 50.0546 8.54708 49.7803 8.47411 49.4723C8.40113 49.1642 8.4345 48.8407 8.56878 48.554C8.70306 48.2673 8.93039 48.0343 9.2139 47.8928L12.0261 46.4885C12.3596 46.323 12.7452 46.2963 13.0983 46.4143C13.4515 46.5324 13.7433 46.7855 13.9099 47.1181C14.0764 47.4507 14.104 47.8358 13.9867 48.1887C13.8694 48.5417 13.6166 48.8337 13.2839 49.0008L10.4717 50.4051C10.2768 50.5023 10.062 50.553 9.84419 50.5532Z" fill="white"/>
<path d="M12.6564 49.1489C12.395 49.1492 12.1388 49.0767 11.9163 48.9396C11.6939 48.8025 11.5141 48.6062 11.3972 48.3728L9.99111 45.5643C9.82537 45.2312 9.79865 44.8461 9.91683 44.4935C10.035 44.1408 10.2884 43.8493 10.6215 43.683C10.9546 43.5167 11.3401 43.4891 11.6935 43.6063C12.047 43.7235 12.3394 43.9759 12.5067 44.3081L13.9128 47.1166C14.02 47.3306 14.0707 47.5684 14.06 47.8074C14.0493 48.0465 13.9776 48.2789 13.8518 48.4825C13.7259 48.6861 13.55 48.8542 13.3408 48.9708C13.1316 49.0875 12.896 49.1488 12.6564 49.1489Z" fill="white"/>
<path d="M16.8733 46.3404H11.2489C10.876 46.3404 10.5183 46.1925 10.2546 45.9291C9.99093 45.6658 9.84278 45.3086 9.84278 44.9362C9.84278 44.5637 9.99093 44.2066 10.2546 43.9432C10.5183 43.6799 10.876 43.5319 11.2489 43.5319H16.8733C17.2463 43.5319 17.6039 43.6799 17.8676 43.9432C18.1313 44.2066 18.2795 44.5637 18.2795 44.9362C18.2795 45.3086 18.1313 45.6658 17.8676 45.9291C17.6039 46.1925 17.2463 46.3404 16.8733 46.3404Z" fill="white"/>
<path d="M21.0917 50.5532C20.907 50.5534 20.7241 50.5172 20.5535 50.4465C20.3829 50.3759 20.2279 50.2724 20.0976 50.1417L15.8792 45.929C15.6195 45.6649 15.4747 45.309 15.4764 44.9388C15.4781 44.5686 15.6261 44.2141 15.8882 43.9523C16.1503 43.6905 16.5053 43.5427 16.876 43.5411C17.2467 43.5394 17.603 43.684 17.8675 43.9434L22.0858 48.1561C22.2824 48.3525 22.4163 48.6027 22.4705 48.8751C22.5247 49.1474 22.4969 49.4297 22.3905 49.6863C22.2841 49.9428 22.1039 50.1621 21.8727 50.3164C21.6415 50.4707 21.3697 50.5531 21.0917 50.5532Z" fill="white"/>
<path d="M21.0917 50.5532C20.8136 50.5531 20.5418 50.4707 20.3106 50.3164C20.0795 50.1621 19.8993 49.9428 19.7929 49.6863C19.6865 49.4297 19.6586 49.1474 19.7129 48.8751C19.7671 48.6027 19.901 48.3525 20.0976 48.1561L22.9098 45.3476C23.1742 45.0882 23.5306 44.9437 23.9013 44.9453C24.2719 44.947 24.6269 45.0948 24.8891 45.3566C25.1512 45.6183 25.2992 45.9729 25.3008 46.3431C25.3025 46.7132 25.1577 47.0691 24.898 47.3332L22.0858 50.1417C21.9554 50.2724 21.8005 50.3759 21.6299 50.4465C21.4592 50.5172 21.2764 50.5534 21.0917 50.5532Z" fill="white"/>
<path d="M29.5298 49.1489C29.4145 49.1489 29.2996 49.1346 29.1878 49.1064L23.5634 47.7022C23.2027 47.6111 22.8928 47.3809 22.7018 47.0621C22.5107 46.7433 22.4541 46.3618 22.5442 46.0013C22.6344 45.6408 22.864 45.3307 23.1827 45.139C23.5014 44.9473 23.8833 44.8897 24.2445 44.9787L29.8689 46.3829C30.2016 46.466 30.4924 46.6677 30.6866 46.95C30.8808 47.2322 30.9649 47.5757 30.9233 47.9156C30.8816 48.2556 30.7169 48.5686 30.4603 48.7957C30.2036 49.0228 29.8727 49.1485 29.5298 49.1489Z" fill="white"/>
<path d="M30.9359 51.9574C30.6745 51.9577 30.4182 51.8852 30.1958 51.7481C29.9734 51.611 29.7936 51.4147 29.6767 51.1813L28.2706 48.3728C28.1048 48.0397 28.0781 47.6546 28.1963 47.302C28.3145 46.9493 28.5679 46.6578 28.901 46.4915C29.234 46.3252 29.6196 46.2976 29.973 46.4148C30.3264 46.532 30.6189 46.7844 30.7862 47.1166L32.1923 49.9251C32.2995 50.1391 32.3502 50.3769 32.3395 50.616C32.3288 50.855 32.2571 51.0874 32.1312 51.291C32.0053 51.4946 31.8295 51.6627 31.6203 51.7793C31.411 51.896 31.1755 51.9573 30.9359 51.9574Z" fill="white"/>
<path d="M33.7467 51.9574H30.9345C30.5615 51.9574 30.2039 51.8095 29.9402 51.5462C29.6765 51.2828 29.5283 50.9256 29.5283 50.5532C29.5283 50.1808 29.6765 49.8236 29.9402 49.5602C30.2039 49.2969 30.5615 49.1489 30.9345 49.1489H33.7467C34.1196 49.1489 34.4773 49.2969 34.741 49.5602C35.0047 49.8236 35.1528 50.1808 35.1528 50.5532C35.1528 50.9256 35.0047 51.2828 34.741 51.5462C34.4773 51.8095 34.1196 51.9574 33.7467 51.9574Z" fill="white"/>
<path d="M35.1528 56.1702C34.8578 56.1702 34.5703 56.0775 34.331 55.9052C34.0916 55.7329 33.9127 55.4898 33.8195 55.2103L32.4133 50.9975C32.3544 50.8225 32.3306 50.6376 32.3433 50.4534C32.3561 50.2693 32.405 50.0894 32.4875 49.9241C32.5699 49.7589 32.6841 49.6115 32.8237 49.4904C32.9632 49.3693 33.1253 49.2769 33.3007 49.2184C33.4761 49.16 33.6613 49.1367 33.8457 49.1498C34.0301 49.1629 34.2101 49.2123 34.3753 49.295C34.5406 49.3777 34.6879 49.4922 34.8089 49.6318C34.9298 49.7715 35.0219 49.9336 35.08 50.1089L36.4861 54.3216C36.5564 54.5327 36.5755 54.7574 36.5419 54.9773C36.5083 55.1971 36.4229 55.4059 36.2927 55.5863C36.1625 55.7668 35.9913 55.9139 35.7931 56.0154C35.595 56.1169 35.3755 56.1699 35.1528 56.1702Z" fill="white"/>
<path d="M39.3697 58.9787C39.0926 58.9785 38.8217 58.8964 38.5911 58.7428L34.3728 55.9343C34.0663 55.7261 33.8545 55.4055 33.7834 55.0421C33.7124 54.6788 33.7879 54.3021 33.9936 53.9941C34.1992 53.6861 34.5183 53.4716 34.8815 53.3974C35.2446 53.3231 35.6224 53.3951 35.9327 53.5976L40.1511 56.4061C40.4023 56.5734 40.5928 56.8169 40.6947 57.1007C40.7965 57.3846 40.8042 57.6936 40.7166 57.9821C40.629 58.2706 40.4507 58.5233 40.2081 58.7028C39.9656 58.8822 39.6716 58.979 39.3697 58.9787Z" fill="white"/>
<path d="M39.3711 58.9787C39.0374 58.9786 38.7146 58.86 38.4604 58.644C38.2062 58.428 38.0373 58.1287 37.9838 57.7997C37.9303 57.4708 37.9957 57.1335 38.1684 56.8483C38.341 56.563 38.6097 56.3485 38.9262 56.2429L43.1446 54.8386C43.4979 54.7218 43.8832 54.7497 44.216 54.9163C44.5487 55.0828 44.8018 55.3744 44.9196 55.727C45.0374 56.0796 45.0104 56.4644 44.8444 56.7972C44.6785 57.1299 44.3872 57.3833 44.0344 57.5018L39.816 58.906C39.6726 58.954 39.5224 58.9786 39.3711 58.9787Z" fill="white"/>
<path d="M46.4003 58.9787C46.1824 58.9785 45.9676 58.9278 45.7728 58.8306L42.9605 57.4264C42.7949 57.3441 42.6471 57.2301 42.5257 57.0908C42.4043 56.9515 42.3116 56.7896 42.2529 56.6144C42.1942 56.4393 42.1706 56.2542 42.1836 56.07C42.1966 55.8857 42.2459 55.7058 42.3286 55.5406C42.4114 55.3754 42.5259 55.2281 42.6657 55.1072C42.8055 54.9862 42.9678 54.894 43.1433 54.8358C43.3189 54.7776 43.5042 54.7546 43.6886 54.768C43.8731 54.7814 44.0531 54.8311 44.2183 54.9141L47.0306 56.3183C47.3141 56.4598 47.5414 56.6928 47.6757 56.9795C47.81 57.2662 47.8433 57.5898 47.7704 57.8978C47.6974 58.2058 47.5224 58.4802 47.2737 58.6764C47.025 58.8726 46.7172 58.9791 46.4003 58.9787Z" fill="white"/>
<path d="M46.4017 58.9787C46.1236 58.9787 45.8518 58.8963 45.6207 58.742C45.3895 58.5877 45.2093 58.3684 45.1029 58.1118C44.9965 57.8553 44.9686 57.573 45.0229 57.3006C45.0771 57.0282 45.211 56.778 45.4076 56.5817L46.8137 55.1774C47.0781 54.918 47.4345 54.7734 47.8052 54.7751C48.1758 54.7768 48.5308 54.9246 48.793 55.1864C49.0551 55.4481 49.2031 55.8027 49.2047 56.1728C49.2064 56.543 49.0616 56.8989 48.8019 57.163L47.3958 58.5673C47.2654 58.6979 47.1105 58.8015 46.9399 58.8721C46.7693 58.9427 46.5864 58.9789 46.4017 58.9787Z" fill="white"/>
<path d="M56.2445 60.383C56.0932 60.3828 55.943 60.3583 55.7996 60.3103L47.3629 57.5018C47.1874 57.4438 47.0251 57.3517 46.8852 57.231C46.7454 57.1102 46.6308 56.9631 46.548 56.798C46.4651 56.633 46.4157 56.4532 46.4026 56.2691C46.3894 56.0849 46.4128 55.9 46.4713 55.7248C46.5298 55.5497 46.6223 55.3878 46.7436 55.2484C46.8648 55.1091 47.0124 54.995 47.1779 54.9126C47.3434 54.8303 47.5235 54.7814 47.7079 54.7687C47.8924 54.756 48.0775 54.7798 48.2527 54.8386L56.6894 57.6472C57.0059 57.7527 57.2746 57.9673 57.4472 58.2525C57.6199 58.5378 57.6853 58.875 57.6318 59.204C57.5783 59.533 57.4094 59.8322 57.1552 60.0482C56.901 60.2642 56.5782 60.3829 56.2445 60.383Z" fill="white"/>
<path d="M56.2459 60.383C55.9289 60.3834 55.6212 60.2768 55.3725 60.0806C55.1238 59.8844 54.9488 59.6101 54.8758 59.302C54.8028 58.994 54.8362 58.6704 54.9705 58.3837C55.1047 58.097 55.3321 57.8641 55.6156 57.7226L58.4278 56.3183C58.7613 56.1528 59.1469 56.1261 59.5 56.2441C59.8532 56.3622 60.145 56.6152 60.3115 56.9479C60.4781 57.2805 60.5057 57.6655 60.3884 58.0185C60.271 58.3714 60.0183 58.6635 59.6856 58.8306L56.8734 60.2349C56.6785 60.3321 56.4637 60.3828 56.2459 60.383Z" fill="white"/>
<path d="M61.8689 58.9787H59.0567C58.6838 58.9787 58.3261 58.8308 58.0624 58.5674C57.7987 58.3041 57.6506 57.9469 57.6506 57.5745C57.6506 57.202 57.7987 56.8449 58.0624 56.5815C58.3261 56.3182 58.6838 56.1702 59.0567 56.1702H61.8689C62.2418 56.1702 62.5995 56.3182 62.8632 56.5815C63.1269 56.8449 63.275 57.202 63.275 57.5745C63.275 57.9469 63.1269 58.3041 62.8632 58.5674C62.5995 58.8308 62.2418 58.9787 61.8689 58.9787Z" fill="white"/>
<path d="M61.8689 58.9787C61.6462 58.9784 61.4267 58.9254 61.2286 58.8239C61.0304 58.7224 60.8592 58.5753 60.729 58.3949C60.5989 58.2144 60.5134 58.0056 60.4798 57.7858C60.4462 57.5659 60.4653 57.3412 60.5356 57.1301L61.9417 52.9174C61.9998 52.7421 62.0919 52.58 62.2129 52.4403C62.3338 52.3007 62.4811 52.1862 62.6464 52.1035C62.8117 52.0208 62.9916 51.9715 63.1761 51.9583C63.3605 51.9452 63.5456 51.9685 63.721 52.0269C63.8964 52.0854 64.0585 52.1778 64.198 52.2989C64.3376 52.42 64.4518 52.5674 64.5343 52.7326C64.6167 52.8979 64.6657 53.0778 64.6784 53.262C64.6911 53.4461 64.6673 53.631 64.6084 53.806L63.2022 58.0188C63.109 58.2983 62.9301 58.5414 62.6908 58.7137C62.4515 58.886 62.1639 58.9787 61.8689 58.9787Z" fill="white"/>
<path d="M66.0872 54.766H63.275C62.9021 54.766 62.5445 54.618 62.2808 54.3547C62.0171 54.0913 61.8689 53.7341 61.8689 53.3617C61.8689 52.9893 62.0171 52.6321 62.2808 52.3687C62.5445 52.1054 62.9021 51.9574 63.275 51.9574H66.0872C66.4602 51.9574 66.8178 52.1054 67.0815 52.3687C67.3452 52.6321 67.4934 52.9893 67.4934 53.3617C67.4934 53.7341 67.3452 54.0913 67.0815 54.3547C66.8178 54.618 66.4602 54.766 66.0872 54.766Z" fill="white"/>
<path d="M68.8995 57.5745C68.7148 57.5747 68.5319 57.5384 68.3613 57.4678C68.1907 57.3972 68.0357 57.2936 67.9053 57.163L65.0931 54.3545C64.8334 54.0904 64.6886 53.7345 64.6903 53.3643C64.692 52.9942 64.84 52.6396 65.1021 52.3778C65.3642 52.1161 65.7192 51.9683 66.0899 51.9666C66.4606 51.9649 66.8169 52.1095 67.0814 52.3689L69.8936 55.1774C70.0902 55.3738 70.2241 55.624 70.2783 55.8963C70.3325 56.1687 70.3047 56.451 70.1983 56.7076C70.0919 56.9641 69.9117 57.1834 69.6805 57.3377C69.4493 57.492 69.1775 57.5744 68.8995 57.5745Z" fill="white"/>
<path d="M71.7103 58.9787C71.4925 58.9785 71.2776 58.9278 71.0828 58.8306L68.2705 57.4264C67.9379 57.2593 67.6851 56.9672 67.5678 56.6142C67.4505 56.2613 67.4781 55.8763 67.6446 55.5436C67.8112 55.211 68.103 54.9579 68.4561 54.8399C68.8093 54.7219 69.1949 54.7485 69.5284 54.9141L72.3406 56.3183C72.6241 56.4598 72.8514 56.6928 72.9857 56.9795C73.12 57.2662 73.1533 57.5898 73.0804 57.8978C73.0074 58.2058 72.8324 58.4802 72.5837 58.6764C72.335 58.8726 72.0272 58.9791 71.7103 58.9787Z" fill="white"/>
<path d="M71.7131 58.9787C71.3962 58.9791 71.0884 58.8726 70.8397 58.6764C70.591 58.4802 70.416 58.2058 70.343 57.8978C70.2701 57.5898 70.3034 57.2662 70.4377 56.9795C70.572 56.6928 70.7993 56.4598 71.0828 56.3183L73.895 54.9141C74.2285 54.7485 74.6141 54.7219 74.9672 54.8399C75.3204 54.9579 75.6122 55.211 75.7788 55.5436C75.9453 55.8763 75.9729 56.2613 75.8556 56.6142C75.7383 56.9672 75.4855 57.2593 75.1529 57.4264L72.3406 58.8306C72.1458 58.9278 71.9309 58.9785 71.7131 58.9787Z" fill="white"/>
<path d="M74.5239 60.383C74.3392 60.3831 74.1563 60.3468 73.9857 60.2763C73.8151 60.2058 73.66 60.1023 73.5294 59.9719C73.3988 59.8415 73.2953 59.6866 73.2246 59.5162C73.154 59.3458 73.1177 59.1632 73.1178 58.9787V56.1702C73.1178 55.7978 73.266 55.4406 73.5296 55.1772C73.7933 54.9139 74.151 54.766 74.5239 54.766C74.8968 54.766 75.2545 54.9139 75.5182 55.1772C75.7819 55.4406 75.93 55.7978 75.93 56.1702V58.9787C75.9301 59.1632 75.8938 59.3458 75.8232 59.5162C75.7526 59.6866 75.649 59.8415 75.5184 59.9719C75.3878 60.1023 75.2328 60.2058 75.0621 60.2763C74.8915 60.3468 74.7086 60.3831 74.5239 60.383Z" fill="white"/>
<path d="M73.1164 63.2601C72.9031 63.2604 72.6926 63.2116 72.5012 63.1174C72.1662 62.9541 71.9098 62.6646 71.7885 62.3125C71.6673 61.9604 71.6909 61.5747 71.8544 61.2401L73.2605 58.363C73.3415 58.1973 73.4544 58.0492 73.5927 57.927C73.7309 57.8049 73.892 57.7112 74.0665 57.6512C74.2411 57.5912 74.4258 57.5662 74.61 57.5775C74.7943 57.5888 74.9745 57.6362 75.1404 57.7171C75.3063 57.798 75.4546 57.9107 75.5769 58.0488C75.6992 58.1869 75.7931 58.3477 75.8531 58.522C75.9132 58.6964 75.9383 58.8808 75.9269 59.0648C75.9156 59.2488 75.8681 59.4288 75.7871 59.5945L74.381 62.4716C74.2656 62.7083 74.0857 62.9078 73.8621 63.0472C73.6385 63.1866 73.38 63.2604 73.1164 63.2601Z" fill="white"/>
<path d="M78.7409 66C78.5276 66 78.3171 65.9513 78.1257 65.8574L72.5012 63.1174C72.3353 63.0366 72.187 62.9239 72.0647 62.7858C71.9424 62.6477 71.8486 62.4868 71.7885 62.3125C71.7285 62.1382 71.7034 61.9537 71.7147 61.7697C71.726 61.5857 71.7735 61.4057 71.8544 61.2401C71.9354 61.0744 72.0483 60.9262 72.1866 60.8041C72.3249 60.682 72.4859 60.5882 72.6605 60.5283C72.8351 60.4683 73.0198 60.4432 73.204 60.4546C73.3883 60.4659 73.5685 60.5133 73.7344 60.5942L79.3588 63.3341C79.6446 63.4734 79.8746 63.7053 80.0113 63.992C80.148 64.2787 80.1834 64.6032 80.1117 64.9126C80.04 65.2219 79.8654 65.4979 79.6164 65.6954C79.3675 65.8929 79.0588 66.0003 78.7409 66Z" fill="white"/>
<path d="M78.7423 65.9095C78.5576 65.9096 78.3747 65.8733 78.204 65.8028C78.0334 65.7323 77.8783 65.6288 77.7477 65.4984C77.6172 65.368 77.5136 65.2132 77.443 65.0427C77.3723 64.8723 77.336 64.6897 77.3361 64.5052V53.3617C77.3361 52.9893 77.4843 52.6321 77.748 52.3687C78.0117 52.1054 78.3693 51.9574 78.7423 51.9574C79.1152 51.9574 79.4728 52.1054 79.7365 52.3687C80.0002 52.6321 80.1484 52.9893 80.1484 53.3617V64.5052C80.1485 64.6897 80.1122 64.8723 80.0415 65.0427C79.9709 65.2132 79.8674 65.368 79.7368 65.4984C79.6062 65.6288 79.4511 65.7323 79.2805 65.8028C79.1098 65.8733 78.9269 65.9096 78.7423 65.9095Z" fill="white"/>
<path d="M78.7437 54.766C78.4823 54.7662 78.226 54.6937 78.0036 54.5566C77.7812 54.4195 77.6014 54.2232 77.4845 53.9898L74.6723 48.3728C74.5891 48.2077 74.5395 48.028 74.526 47.8438C74.5126 47.6595 74.5356 47.4745 74.5939 47.2992C74.6522 47.1239 74.7445 46.9618 74.8656 46.8222C74.9867 46.6825 75.1342 46.5682 75.2997 46.4855C75.4651 46.4029 75.6452 46.3537 75.8297 46.3407C76.0142 46.3278 76.1995 46.3512 76.3748 46.4099C76.5502 46.4685 76.7123 46.5611 76.8519 46.6824C76.9914 46.8036 77.1055 46.9512 77.1879 47.1166L80.0001 52.7336C80.1073 52.9476 80.158 53.1854 80.1473 53.4245C80.1366 53.6635 80.0649 53.8959 79.939 54.0995C79.8131 54.3031 79.6373 54.4712 79.4281 54.5878C79.2188 54.7045 78.9833 54.7658 78.7437 54.766Z" fill="white"/>
<path d="M75.93 49.1489H73.1178C72.7449 49.1489 72.3872 49.001 72.1235 48.7376C71.8598 48.4743 71.7117 48.1171 71.7117 47.7447C71.7117 47.3722 71.8598 47.0151 72.1235 46.7517C72.3872 46.4884 72.7449 46.3404 73.1178 46.3404H75.93C76.303 46.3404 76.6606 46.4884 76.9243 46.7517C77.188 47.0151 77.3361 47.3722 77.3361 47.7447C77.3361 48.1171 77.188 48.4743 76.9243 48.7376C76.6606 49.001 76.303 49.1489 75.93 49.1489Z" fill="white"/>
<path d="M73.1192 49.1489C72.9056 49.1487 72.6949 49.0999 72.503 49.0063C72.3111 48.9127 72.143 48.7767 72.0115 48.6086C71.88 48.4406 71.7885 48.2448 71.7439 48.0362C71.6994 47.8276 71.7029 47.6116 71.7543 47.4046L73.1604 41.7876C73.2516 41.4273 73.4821 41.1179 73.8013 40.9271C74.1206 40.7363 74.5026 40.6797 74.8635 40.7697C75.2245 40.8598 75.535 41.0891 75.7269 41.4074C75.9189 41.7257 75.9766 42.107 75.8875 42.4678L74.4814 48.0848C74.4058 48.3885 74.2307 48.6583 73.9838 48.8511C73.737 49.044 73.4326 49.1488 73.1192 49.1489Z" fill="white"/>
<path d="M74.5253 43.5319C74.2084 43.5323 73.9006 43.4258 73.6519 43.2296C73.4032 43.0334 73.2282 42.759 73.1552 42.451C73.0823 42.143 73.1156 41.8194 73.2499 41.5327C73.3842 41.246 73.6115 41.013 73.895 40.8715L79.5195 38.063C79.853 37.8975 80.2386 37.8708 80.5917 37.9888C80.9448 38.1068 81.2367 38.3599 81.4032 38.6926C81.5698 39.0252 81.5974 39.4102 81.48 39.7632C81.3627 40.1161 81.11 40.4082 80.7773 40.5753L75.1529 43.3838C74.958 43.481 74.7432 43.5317 74.5253 43.5319Z" fill="white"/>
<path d="M80.1484 40.7234C79.9257 40.7231 79.7062 40.6701 79.508 40.5686C79.3099 40.467 79.1386 40.32 79.0085 40.1395C78.8783 39.9591 78.7929 39.7503 78.7593 39.5304C78.7256 39.3106 78.7448 39.0859 78.815 38.8748L80.2212 34.6621C80.2792 34.4868 80.3714 34.3247 80.4923 34.185C80.6132 34.0454 80.7605 33.9309 80.9258 33.8482C81.0911 33.7655 81.2711 33.7161 81.4555 33.703C81.6399 33.6899 81.8251 33.7132 82.0005 33.7716C82.1758 33.8301 82.3379 33.9225 82.4775 34.0436C82.617 34.1646 82.7313 34.312 82.8137 34.4773C82.8961 34.6426 82.9451 34.8224 82.9578 35.0066C82.9705 35.1908 82.9467 35.3757 82.8878 35.5507L81.4817 39.7635C81.3885 40.043 81.2095 40.2861 80.9702 40.4584C80.7309 40.6307 80.4434 40.7234 80.1484 40.7234Z" fill="white"/>
<path d="M87.1789 46.3404C86.9942 46.3405 86.8114 46.3043 86.6407 46.2337C86.4701 46.1631 86.3152 46.0596 86.1848 45.929L81.9665 41.7162C81.7067 41.4521 81.562 41.0962 81.5637 40.726C81.5653 40.3559 81.7133 40.0013 81.9754 39.7395C82.2375 39.4778 82.5926 39.33 82.9632 39.3283C83.3339 39.3266 83.6902 39.4712 83.9547 39.7306L88.173 43.9434C88.3696 44.1397 88.5035 44.3899 88.5577 44.6623C88.612 44.9347 88.5841 45.217 88.4777 45.4735C88.3713 45.7301 88.1911 45.9494 87.96 46.1037C87.7288 46.258 87.457 46.3404 87.1789 46.3404Z" fill="white"/>
<path d="M82.9592 42.1277C82.6458 42.1275 82.3414 42.0227 82.0946 41.8299C81.8477 41.637 81.6726 41.3673 81.597 41.0635L80.1909 35.4465C80.1018 35.0857 80.1595 34.7044 80.3515 34.3861C80.5434 34.0678 80.8539 33.8385 81.2149 33.7485C81.5758 33.6584 81.9578 33.715 82.2771 33.9058C82.5964 34.0966 82.8268 34.406 82.918 34.7663L84.3241 40.3833C84.3755 40.5903 84.379 40.8063 84.3345 41.0149C84.2899 41.2235 84.1984 41.4193 84.0669 41.5874C83.9354 41.7554 83.7673 41.8914 83.5754 41.985C83.3835 42.0786 83.1728 42.1274 82.9592 42.1277Z" fill="white"/>
<path d="M47.8078 49.1489C47.4787 49.1492 47.1599 49.0342 46.907 48.8239C46.1985 48.2329 29.5283 34.1766 29.5283 18.2553C29.5283 13.4137 31.4542 8.7704 34.8823 5.34686C38.3103 1.92332 42.9598 0 47.8078 0C52.6558 0 57.3053 1.92332 60.7333 5.34686C64.1614 8.7704 66.0872 13.4137 66.0872 18.2553C66.0872 34.1766 49.4171 48.2329 48.7086 48.8239C48.4557 49.0342 48.1369 49.1492 47.8078 49.1489ZM47.8078 2.80851C43.7071 2.81314 39.7756 4.44205 36.8759 7.33789C33.9763 10.2337 32.3452 14.16 32.3406 18.2553C32.3406 30.8566 44.3777 42.7393 47.8078 45.8687C51.2366 42.7365 63.275 30.8388 63.275 18.2553C63.2704 14.16 61.6393 10.2337 58.7397 7.33789C55.84 4.44205 51.9085 2.81314 47.8078 2.80851Z" fill="white"/>
<path d="M47.8078 28.0851C45.8611 28.0851 43.9581 27.5086 42.3394 26.4285C40.7208 25.3484 39.4592 23.8132 38.7143 22.017C37.9693 20.2209 37.7744 18.2444 38.1541 16.3376C38.5339 14.4308 39.4714 12.6793 40.8479 11.3046C42.2244 9.92989 43.9783 8.99369 45.8876 8.61441C47.7969 8.23512 49.7759 8.42979 51.5745 9.17378C53.373 9.91777 54.9102 11.1777 55.9918 12.7942C57.0733 14.4107 57.6506 16.3112 57.6506 18.2553C57.6474 20.8614 56.6094 23.3598 54.7642 25.2025C52.919 27.0453 50.4173 28.082 47.8078 28.0851ZM47.8078 11.234C46.4173 11.234 45.058 11.6458 43.9018 12.4173C42.7457 13.1888 41.8445 14.2854 41.3124 15.5684C40.7803 16.8514 40.6411 18.2631 40.9123 19.6251C41.1836 20.9871 41.8532 22.2382 42.8364 23.2201C43.8197 24.2021 45.0724 24.8708 46.4362 25.1417C47.8 25.4126 49.2136 25.2736 50.4983 24.7421C51.7829 24.2107 52.881 23.3108 53.6535 22.1561C54.426 21.0015 54.8384 19.644 54.8384 18.2553C54.8362 16.3938 54.0947 14.6092 52.7767 13.2929C51.4587 11.9767 49.6717 11.2362 47.8078 11.234Z" fill="white"/>
</svg>
