<svg width="20" height="16" viewBox="0 0 20 16" fill="none" xmlns="http://www.w3.org/2000/svg">
<path fill-rule="evenodd" clip-rule="evenodd" d="M1.60628 0.920088L7.617 7.13515C8.92796 8.48749 11.0709 8.48865 12.383 7.13515L18.3937 0.920088C18.4542 0.857525 18.4454 0.754494 18.3752 0.703877C17.7621 0.261978 17.0162 0 16.2127 0H3.7873C2.98377 0 2.23786 0.262023 1.62479 0.703877C1.55457 0.754494 1.54575 0.857525 1.60628 0.920088ZM0 3.91431C0 3.26127 0.156656 2.64426 0.432597 2.10193C0.475748 2.01709 0.585124 1.99993 0.650698 2.06771L6.58533 8.20143C8.46464 10.1466 11.5342 10.1477 13.4147 8.20143L19.3493 2.06771C19.4149 1.99993 19.5243 2.01709 19.5674 2.10193C19.8433 2.64426 20 3.26132 20 3.91431V12.0856C20 14.2457 18.3 16 16.2127 16H3.7873C1.70005 16 0 14.2457 0 12.0856V3.91431Z" fill="white"/>
</svg>
