<svg width="306" height="60" viewBox="0 0 306 60" fill="none" xmlns="http://www.w3.org/2000/svg">
<path d="M16.2162 21.8919L0 8.10812V60H12.973V34.0541H16.2162V21.8919Z" fill="white"/>
<path d="M24.3243 21.8919L40.5405 8.10812V60H27.5675V34.0541H24.3243V21.8919Z" fill="white"/>
<path d="M19.4595 34.054H21.0811L20.2703 -7.15256e-06L19.4595 34.054Z" fill="white"/>
<path fill-rule="evenodd" clip-rule="evenodd" d="M25.9459 35.6757H14.5945V60H25.9459V35.6757ZM18.1377 53.0379C18.7522 53.355 19.4657 53.5135 20.278 53.5135C21.08 53.5135 21.783 53.3603 22.3871 53.0538C23.0016 52.7473 23.4754 52.3139 23.8087 51.7537C24.1524 51.1936 24.3243 50.5489 24.3243 49.8196C24.3243 49.7773 24.3034 49.7403 24.2618 49.7086C24.2305 49.6769 24.1889 49.661 24.1368 49.661L22.309 49.5818C22.184 49.5818 22.1215 49.6399 22.1215 49.7562C22.1215 50.3058 21.9496 50.7497 21.6059 51.0879C21.2727 51.4261 20.83 51.5952 20.278 51.5952C19.7156 51.5952 19.2626 51.4261 18.9189 51.0879C18.5856 50.7497 18.4189 50.3058 18.4189 49.7562V45.9354C18.4189 45.3752 18.5856 44.926 18.9189 44.5878C19.2626 44.2496 19.7156 44.0805 20.278 44.0805C20.83 44.0805 21.2727 44.2496 21.6059 44.5878C21.9496 44.926 22.1215 45.3752 22.1215 45.9354C22.1215 46.0516 22.1736 46.1098 22.2777 46.1098H22.309L24.1368 45.9988C24.2618 45.9777 24.3243 45.9195 24.3243 45.8244C24.3243 45.0951 24.1524 44.4557 23.8087 43.9061C23.4754 43.3459 23.0016 42.9179 22.3871 42.6219C21.783 42.3154 21.08 42.1622 20.278 42.1622C19.4657 42.1622 18.7522 42.3207 18.1377 42.6378C17.5233 42.9549 17.0494 43.4041 16.7161 43.9854C16.3828 44.5667 16.2162 45.2378 16.2162 45.9988V49.661C16.2162 50.422 16.3828 51.0932 16.7161 51.6745C17.0494 52.2558 17.5233 52.7103 18.1377 53.0379Z" fill="white"/>
<path d="M53 49.4628V29.3701H58.9503L62.5231 43.0759L66.0556 29.3701H72.0193V49.4628H68.3256V33.6463L64.417 49.4628H60.5889L56.6937 33.6463V49.4628H53Z" fill="white"/>
<path d="M79.1113 39.3479L75.6862 38.7174C76.0712 37.3103 76.7339 36.2687 77.6741 35.5925C78.6143 34.9164 80.0112 34.5783 81.8648 34.5783C83.5482 34.5783 84.8019 34.7839 85.6257 35.195C86.4495 35.5971 87.027 36.1133 87.3584 36.7438C87.6986 37.3651 87.8688 38.5119 87.8688 40.184L87.8285 44.6795C87.8285 45.9587 87.8867 46.9044 88.0031 47.5166C88.1284 48.1197 88.3568 48.7684 88.6881 49.4628H84.9541C84.8556 49.207 84.7347 48.8278 84.5914 48.3253C84.5287 48.0968 84.484 47.9461 84.4571 47.873C83.8124 48.5126 83.1229 48.9923 82.3886 49.3121C81.6543 49.6319 80.8708 49.7918 80.0381 49.7918C78.5695 49.7918 77.4099 49.3852 76.5592 48.572C75.7175 47.7587 75.2967 46.7308 75.2967 45.4881C75.2967 44.6658 75.4892 43.9348 75.8742 43.2952C76.2593 42.6465 76.7965 42.153 77.486 41.815C78.1845 41.4678 79.1874 41.1662 80.4947 40.9104C82.2588 40.5723 83.4811 40.2571 84.1616 39.9647V39.5809C84.1616 38.8408 83.9825 38.3154 83.6243 38.0047C83.2662 37.6849 82.5901 37.525 81.5961 37.525C80.9246 37.525 80.4007 37.6621 80.0246 37.9362C79.6485 38.2012 79.3441 38.6718 79.1113 39.3479ZM84.1616 42.4729C83.6781 42.6373 82.9125 42.8338 81.8648 43.0622C80.8171 43.2906 80.1321 43.5145 79.8097 43.7338C79.3172 44.0901 79.071 44.5424 79.071 45.0907C79.071 45.6298 79.268 46.0958 79.662 46.4887C80.056 46.8816 80.5574 47.078 81.1663 47.078C81.8469 47.078 82.4961 46.8496 83.1139 46.3927C83.5706 46.0455 83.8706 45.6206 84.0139 45.1181C84.1124 44.7891 84.1616 44.1632 84.1616 43.2404V42.4729Z" fill="white"/>
<path d="M104.041 39.2109L100.32 39.8962C100.195 39.1378 99.9081 38.5667 99.4603 38.1829C99.0216 37.7992 98.4485 37.6073 97.7411 37.6073C96.8009 37.6073 96.0487 37.9408 95.4846 38.6078C94.9294 39.2657 94.6518 40.3713 94.6518 41.9246C94.6518 43.6516 94.9338 44.8714 95.498 45.5841C96.0711 46.2968 96.8367 46.6531 97.7948 46.6531C98.5112 46.6531 99.0977 46.4475 99.5544 46.0364C100.011 45.6161 100.333 44.8988 100.521 43.8846L104.229 44.5287C103.844 46.2648 103.105 47.576 102.012 48.4623C100.92 49.3486 99.4559 49.7918 97.6202 49.7918C95.5338 49.7918 93.8683 49.1202 92.6236 47.777C91.3879 46.4338 90.77 44.5744 90.77 42.1987C90.77 39.7956 91.3924 37.9271 92.637 36.593C93.8817 35.2499 95.5651 34.5783 97.6874 34.5783C99.4245 34.5783 100.804 34.962 101.824 35.7296C102.854 36.488 103.593 37.6484 104.041 39.2109Z" fill="white"/>
<path d="M105.223 34.9072H118.13V38.0185H113.564V49.4628H109.789V38.0185H105.223V34.9072Z" fill="white"/>
<path d="M128.661 44.8303L132.422 45.4744C131.938 46.8816 131.173 47.9552 130.125 48.6953C129.086 49.4263 127.783 49.7918 126.216 49.7918C123.736 49.7918 121.9 48.9649 120.709 47.311C119.769 45.9861 119.299 44.314 119.299 42.2947C119.299 39.8824 119.917 37.9956 121.153 36.6342C122.388 35.2636 123.951 34.5783 125.84 34.5783C127.962 34.5783 129.637 35.2956 130.864 36.7301C132.09 38.1555 132.677 40.3439 132.623 43.2952H123.167C123.194 44.4374 123.499 45.3282 124.081 45.9678C124.663 46.5983 125.388 46.9135 126.257 46.9135C126.848 46.9135 127.345 46.7491 127.748 46.4201C128.151 46.0912 128.455 45.5612 128.661 44.8303ZM128.876 40.9378C128.849 39.8231 128.567 38.9779 128.03 38.4022C127.492 37.8174 126.839 37.525 126.069 37.525C125.245 37.525 124.564 37.8311 124.027 38.4433C123.49 39.0555 123.226 39.887 123.234 40.9378H128.876Z" fill="white"/>
<path d="M135.605 34.9072H139.124V37.0453C139.581 36.3144 140.199 35.7204 140.978 35.2636C141.757 34.8067 142.621 34.5783 143.57 34.5783C145.227 34.5783 146.633 35.2407 147.788 36.5656C148.943 37.8905 149.52 39.7363 149.52 42.1028C149.52 44.5333 148.938 46.4247 147.774 47.777C146.61 49.1202 145.2 49.7918 143.543 49.7918C142.755 49.7918 142.039 49.6319 141.394 49.3121C140.758 48.9923 140.087 48.444 139.379 47.6674V55H135.605V34.9072ZM139.339 41.9383C139.339 43.5739 139.657 44.7846 140.293 45.5704C140.929 46.347 141.703 46.7354 142.616 46.7354C143.494 46.7354 144.224 46.379 144.806 45.6663C145.388 44.9445 145.679 43.7658 145.679 42.1302C145.679 40.6043 145.379 39.4713 144.779 38.7312C144.179 37.991 143.436 37.621 142.549 37.621C141.627 37.621 140.861 37.9865 140.252 38.7174C139.644 39.4393 139.339 40.5129 139.339 41.9383Z" fill="white"/>
<path d="M165.155 42.0754L169.01 43.3226C168.419 45.5156 167.434 47.1465 166.055 48.2156C164.685 49.2755 162.943 49.8055 160.83 49.8055C158.215 49.8055 156.066 48.8963 154.383 47.078C152.699 45.2506 151.858 42.7561 151.858 39.5946C151.858 36.2504 152.704 33.6554 154.396 31.8097C156.089 29.9548 158.314 29.0274 161.072 29.0274C163.48 29.0274 165.437 29.7538 166.941 31.2066C167.837 32.0655 168.508 33.2991 168.956 34.9072L165.021 35.8666C164.788 34.825 164.3 34.0026 163.557 33.3996C162.822 32.7965 161.927 32.495 160.87 32.495C159.411 32.495 158.224 33.0295 157.311 34.0986C156.406 35.1676 155.954 36.8991 155.954 39.2931C155.954 41.8332 156.402 43.6424 157.297 44.7206C158.193 45.7988 159.357 46.3379 160.79 46.3379C161.846 46.3379 162.755 45.9953 163.516 45.31C164.277 44.6247 164.824 43.5465 165.155 42.0754Z" fill="white"/>
<path d="M170.716 34.9072H183.624V38.0185H179.057V49.4628H175.282V38.0185H170.716V34.9072Z" fill="white"/>
<path d="M185.786 34.9072H189.305V37.0453C189.762 36.3144 190.38 35.7204 191.159 35.2636C191.938 34.8067 192.802 34.5783 193.751 34.5783C195.408 34.5783 196.813 35.2407 197.969 36.5656C199.124 37.8905 199.701 39.7363 199.701 42.1028C199.701 44.5333 199.119 46.4247 197.955 47.777C196.791 49.1202 195.381 49.7918 193.724 49.7918C192.936 49.7918 192.22 49.6319 191.575 49.3121C190.939 48.9923 190.268 48.444 189.56 47.6674V55H185.786V34.9072ZM189.52 41.9383C189.52 43.5739 189.838 44.7846 190.474 45.5704C191.109 46.347 191.884 46.7354 192.797 46.7354C193.675 46.7354 194.405 46.379 194.987 45.6663C195.569 44.9445 195.86 43.7658 195.86 42.1302C195.86 40.6043 195.56 39.4713 194.96 38.7312C194.36 37.991 193.617 37.621 192.73 37.621C191.808 37.621 191.042 37.9865 190.433 38.7174C189.825 39.4393 189.52 40.5129 189.52 41.9383Z" fill="white"/>
<path d="M201.837 41.9794C201.837 40.7002 202.146 39.4621 202.764 38.2652C203.382 37.0682 204.255 36.1545 205.383 35.524C206.52 34.8935 207.787 34.5783 209.184 34.5783C211.342 34.5783 213.111 35.2956 214.49 36.7301C215.869 38.1555 216.558 39.9601 216.558 42.1439C216.558 44.346 215.86 46.1734 214.463 47.6263C213.075 49.0699 211.324 49.7918 209.211 49.7918C207.904 49.7918 206.654 49.4902 205.464 48.8872C204.282 48.2841 203.382 47.4024 202.764 46.242C202.146 45.0724 201.837 43.6516 201.837 41.9794ZM205.705 42.185C205.705 43.6287 206.041 44.7343 206.713 45.5018C207.384 46.2694 208.213 46.6531 209.198 46.6531C210.183 46.6531 211.006 46.2694 211.669 45.5018C212.341 44.7343 212.676 43.6196 212.676 42.1576C212.676 40.7322 212.341 39.6357 211.669 38.8682C211.006 38.1007 210.183 37.7169 209.198 37.7169C208.213 37.7169 207.384 38.1007 206.713 38.8682C206.041 39.6357 205.705 40.7413 205.705 42.185Z" fill="white"/>
<path d="M219.433 34.9072H223.059V44.049L228.862 34.9072H232.569V49.4628H228.942V40.1566L223.059 49.4628H219.433V34.9072ZM228.472 29H230.312C230.205 30.2427 229.775 31.2203 229.023 31.9331C228.28 32.6366 227.312 32.9884 226.122 32.9884C224.931 32.9884 223.959 32.6366 223.207 31.9331C222.464 31.2203 222.038 30.2427 221.931 29H223.771C223.834 29.6487 224.058 30.1422 224.443 30.4802C224.828 30.8092 225.387 30.9736 226.122 30.9736C226.856 30.9736 227.415 30.8092 227.8 30.4802C228.186 30.1422 228.409 29.6487 228.472 29Z" fill="white"/>
<path d="M236.021 44.1038V40.2525H243.435V44.1038H236.021Z" fill="white"/>
<path d="M258.008 29.3701V37.9225C258.671 37.8677 259.173 37.6164 259.513 37.1687C259.853 36.721 260.323 35.6976 260.923 34.0986C261.711 32.0062 262.517 30.6721 263.341 30.0965C264.156 29.53 265.512 29.2467 267.411 29.2467C267.5 29.2467 267.693 29.2421 267.988 29.233V32.2346L267.411 32.2209C266.605 32.2209 266.014 32.326 265.638 32.5361C265.262 32.7371 264.957 33.0478 264.724 33.4681C264.491 33.8884 264.147 34.7519 263.69 36.0585C263.448 36.7529 263.184 37.3332 262.898 37.7992C262.62 38.2652 262.123 38.7037 261.407 39.1149C262.293 39.3799 263.023 39.9007 263.596 40.6774C264.178 41.4449 264.814 42.5368 265.503 43.9531L268.19 49.4628H263.515L261.151 44.2683C261.125 44.1952 261.048 44.0536 260.923 43.8434C260.851 43.7064 260.69 43.3911 260.44 42.8977C259.938 41.9383 259.526 41.3261 259.204 41.0611C258.881 40.7962 258.483 40.6637 258.008 40.6637V49.4628H254.127V40.6637C253.67 40.6637 253.276 40.7916 252.945 41.0474C252.613 41.3033 252.201 41.92 251.709 42.8977C251.431 43.446 251.266 43.7612 251.212 43.8434C251.131 43.9805 251.055 44.1221 250.984 44.2683L248.62 49.4628H243.945L246.632 43.9531C247.294 42.5916 247.917 41.5134 248.499 40.7185C249.09 39.9144 249.837 39.3799 250.742 39.1149C250.026 38.7037 249.524 38.2697 249.238 37.8129C248.96 37.3469 248.696 36.7621 248.445 36.0585C247.997 34.7793 247.657 33.925 247.424 33.4955C247.2 33.0661 246.896 32.7463 246.511 32.5361C246.135 32.326 245.517 32.2209 244.657 32.2209C244.55 32.2209 244.38 32.2254 244.147 32.2346V29.233C244.442 29.2421 244.635 29.2467 244.724 29.2467C246.65 29.2467 248.02 29.5345 248.835 30.1102C249.64 30.695 250.433 32.0244 251.212 34.0986C251.821 35.7067 252.291 36.7347 252.622 37.1824C252.963 37.621 253.464 37.8677 254.127 37.9225V29.3701H258.008Z" fill="white"/>
<path d="M270.594 29.3701H285.315V32.7417H274.57V37.4017H279.889C281.357 37.4017 282.575 37.5844 283.542 37.9499C284.509 38.3154 285.333 38.9916 286.014 39.9784C286.703 40.9652 287.048 42.1211 287.048 43.446C287.048 44.8074 286.703 45.9724 286.014 46.941C285.324 47.9095 284.536 48.572 283.65 48.9283C282.772 49.2847 281.518 49.4628 279.889 49.4628H270.594V29.3701ZM274.57 46.0912H278.438C279.674 46.0912 280.542 46.0318 281.044 45.913C281.545 45.7851 281.98 45.5018 282.347 45.0633C282.723 44.6247 282.911 44.0856 282.911 43.446C282.911 42.514 282.584 41.8378 281.93 41.4175C281.286 40.9881 280.18 40.7733 278.613 40.7733H274.57V46.0912Z" fill="white"/>
<path d="M290.339 29.3701H294.059V42.747L302.038 29.3701H306V49.4628H302.279V36.3463L294.314 49.4628H290.339V29.3701Z" fill="white"/>
</svg>
