<svg width="27" height="27" viewBox="0 0 27 27" fill="none" xmlns="http://www.w3.org/2000/svg">
<path d="M20.5274 17.861C19.6453 16.9902 18.544 16.9902 17.6675 17.861C16.9989 18.524 16.3303 19.187 15.6729 19.8612C15.4931 20.0466 15.3414 20.0859 15.1223 19.9623C14.6897 19.7264 14.229 19.5353 13.8132 19.2769C11.8748 18.0577 10.251 16.4901 8.81265 14.7259C8.09909 13.8495 7.46419 12.9112 7.02032 11.8549C6.93042 11.6414 6.94728 11.501 7.12146 11.3268C7.79007 10.6807 8.44182 10.0177 9.0992 9.35471C10.015 8.43328 10.015 7.35454 9.09358 6.4275C8.57105 5.89936 8.04852 5.38247 7.52599 4.85433C6.98661 4.31496 6.45284 3.76997 5.90784 3.23622C5.02572 2.3766 3.92448 2.3766 3.04798 3.24184C2.37375 3.90482 1.72762 4.58465 1.04215 5.23639C0.40725 5.83756 0.0869904 6.57358 0.0195674 7.4332C-0.0871857 8.83219 0.255548 10.1525 0.738746 11.4391C1.72762 14.1023 3.2334 16.4677 5.05944 18.6364C7.52599 21.5692 10.4701 23.8896 13.9143 25.5639C15.4651 26.3168 17.072 26.8955 18.8193 26.991C20.0217 27.0584 21.0668 26.755 21.9039 25.8167C22.477 25.1762 23.1232 24.5919 23.73 23.9795C24.629 23.0693 24.6346 21.9681 23.7412 21.0692C22.6737 19.996 21.6005 18.9285 20.5274 17.861Z" fill="white"/>
<path d="M19.4542 13.3831L21.5275 13.0292C21.2016 11.1245 20.3027 9.39965 18.9373 8.02875C17.4934 6.58481 15.6673 5.67463 13.6559 5.3937L13.3637 7.47815C14.92 7.69727 16.3359 8.39957 17.454 9.51764C18.5103 10.5739 19.2014 11.9111 19.4542 13.3831Z" fill="white"/>
<path d="M22.6962 4.37115C20.3027 1.97769 17.2742 0.466331 13.9312 0L13.639 2.08444C16.527 2.48897 19.1452 3.79807 21.2129 5.86004C23.1737 7.82087 24.4604 10.2986 24.9267 13.0235L27 12.6696C26.455 9.51202 24.9661 6.64662 22.6962 4.37115Z" fill="white"/>
</svg>
