<svg width="20" height="20" viewBox="0 0 20 20" fill="none" xmlns="http://www.w3.org/2000/svg">
<path fill-rule="evenodd" clip-rule="evenodd" d="M5 0C2.23858 0 0 2.23858 0 5V15C0 17.7614 2.23858 20 5 20H15C17.7614 20 20 17.7614 20 15V5C20 2.23858 17.7614 0 15 0H5ZM11 6C11 5.44772 10.5523 5 10 5C9.4477 5 9 5.44772 9 6V10C9 10.3344 9.1671 10.6466 9.4453 10.8321L12.4453 12.8321C12.9048 13.1384 13.5257 13.0142 13.8321 12.5547C14.1384 12.0952 14.0142 11.4743 13.5547 11.1679L11 9.4648V6Z" fill="white"/>
</svg>
